<svg xmlns="http://www.w3.org/2000/svg" viewBox="0 0 1000 1000" preserveAspectRatio="none">
  <path d="M 216.2,988.6 L 216.7,990.0 L 216.4,992.1 L 217.1,994.7 L 215.8,997.2 L 215.3,1000.0 L 209.7,1000.0 L 211.2,998.3 L 211.0,994.8 L 208.8,995.8 L 206.6,995.6 L 204.8,994.4 L 203.6,992.3 L 206.8,992.0 L 209.1,990.7 L 211.0,989.1 L 213.3,988.2 L 216.2,988.6 Z M 108.7,951.0 L 109.7,949.5 L 109.8,947.6 L 108.8,945.5 L 107.0,947.4 L 106.5,948.1 L 105.4,946.0 L 105.0,943.6 L 105.3,941.2 L 106.2,939.0 L 109.0,941.1 L 111.1,943.3 L 113.6,945.0 L 117.3,945.4 L 117.3,944.1 L 115.1,942.7 L 113.1,940.7 L 111.6,938.3 L 111.0,935.2 L 111.3,932.4 L 113.4,925.1 L 114.3,923.4 L 115.3,923.6 L 115.5,925.2 L 116.1,926.7 L 118.0,927.1 L 118.6,924.5 L 119.5,922.7 L 121.0,921.8 L 123.6,923.0 L 123.8,925.7 L 123.4,929.2 L 124.4,932.3 L 125.7,930.5 L 131.2,928.9 L 133.9,926.8 L 127.9,926.9 L 131.8,924.0 L 133.4,922.4 L 135.0,920.3 L 136.7,914.8 L 137.6,913.6 L 138.5,916.4 L 138.5,919.1 L 138.0,921.8 L 136.4,926.8 L 137.5,928.7 L 137.9,930.0 L 137.1,930.5 L 136.1,931.1 L 133.6,933.7 L 132.8,934.7 L 132.3,936.7 L 131.8,941.7 L 130.8,943.9 L 130.0,944.1 L 126.5,944.0 L 125.4,944.5 L 123.4,946.9 L 122.4,947.8 L 118.1,949.2 L 116.8,949.8 L 116.1,951.1 L 115.6,952.4 L 115.1,953.3 L 112.9,954.7 L 110.4,955.6 L 107.8,955.8 L 105.5,954.8 L 106.2,954.1 L 106.4,953.5 L 106.4,952.8 L 106.6,952.0 L 108.7,951.0 Z M 44.8,1000.0 L 46.7,997.1 L 48.5,996.5 L 49.6,997.1 L 49.7,998.6 L 49.4,1000.0 L 44.7,1000.0 L 44.8,1000.0 Z M 54.7,999.4 L 57.6,997.7 L 60.0,995.6 L 62.7,990.9 L 64.1,989.6 L 65.6,989.5 L 67.2,990.3 L 68.7,990.3 L 70.1,988.2 L 68.2,986.2 L 69.7,983.5 L 72.8,981.2 L 75.3,980.2 L 78.5,981.0 L 81.3,983.5 L 83.2,986.8 L 83.6,990.5 L 84.8,990.5 L 85.6,988.6 L 86.5,988.0 L 87.4,988.6 L 88.3,990.4 L 90.8,989.1 L 88.2,984.6 L 90.6,982.4 L 95.3,981.0 L 99.5,979.0 L 100.8,977.0 L 100.6,975.0 L 99.1,973.7 L 96.9,973.2 L 90.2,977.2 L 89.1,976.7 L 89.0,974.1 L 89.1,973.1 L 91.9,970.0 L 93.4,968.9 L 97.4,967.1 L 99.1,966.0 L 101.0,965.2 L 110.0,963.8 L 110.9,963.0 L 114.7,957.9 L 119.0,955.4 L 118.6,964.1 L 122.8,964.9 L 123.5,964.1 L 128.8,959.6 L 129.2,958.6 L 129.6,956.1 L 129.8,955.5 L 130.7,955.0 L 133.3,954.3 L 141.9,950.2 L 143.4,950.0 L 145.5,950.0 L 147.7,950.3 L 149.2,951.3 L 151.2,956.2 L 148.2,957.0 L 139.6,955.3 L 140.8,957.8 L 139.8,959.2 L 138.1,960.6 L 137.3,963.3 L 135.3,962.7 L 133.4,962.7 L 131.7,963.3 L 130.0,964.7 L 131.1,965.9 L 131.5,966.6 L 132.1,967.1 L 133.7,967.3 L 130.8,969.6 L 125.1,971.3 L 119.5,971.6 L 116.9,969.5 L 114.2,969.3 L 109.1,970.0 L 106.5,971.9 L 110.9,975.6 L 108.5,977.1 L 106.8,978.6 L 106.9,980.0 L 109.9,980.9 L 109.4,983.3 L 108.3,985.5 L 106.8,987.4 L 105.2,988.8 L 106.7,990.3 L 108.8,990.7 L 110.6,989.6 L 111.3,986.6 L 115.2,981.7 L 115.3,980.8 L 127.0,978.8 L 133.2,978.4 L 137.8,980.4 L 135.9,980.1 L 134.3,980.6 L 133.4,981.7 L 133.1,983.6 L 132.5,985.4 L 131.1,985.3 L 129.4,984.6 L 128.1,984.4 L 127.2,984.2 L 126.0,983.5 L 124.9,983.5 L 124.5,985.1 L 124.8,985.8 L 125.7,986.9 L 125.9,987.7 L 125.7,989.6 L 124.9,990.4 L 123.7,990.4 L 122.3,989.7 L 121.1,994.2 L 118.6,995.5 L 115.8,996.3 L 114.1,999.1 L 116.8,999.1 L 119.6,1000.0 L 53.2,1000.0 L 54.7,999.4 Z M 127.1,997.0 L 128.9,995.2 L 131.1,993.9 L 133.3,992.3 L 133.6,991.1 L 133.2,989.7 L 133.1,988.7 L 134.4,988.2 L 136.0,988.0 L 136.8,987.4 L 137.0,986.2 L 136.7,984.3 L 142.9,985.3 L 141.1,988.4 L 140.7,991.3 L 141.9,997.2 L 144.9,992.5 L 146.3,988.9 L 148.6,986.7 L 153.9,986.6 L 150.8,982.9 L 150.0,981.0 L 152.9,977.1 L 152.9,974.3 L 151.4,972.2 L 148.5,972.2 L 147.4,974.1 L 146.7,977.1 L 145.7,979.1 L 143.3,978.2 L 137.7,973.5 L 136.4,971.3 L 142.5,971.1 L 141.0,968.7 L 140.7,966.8 L 141.9,966.0 L 144.7,967.1 L 144.9,963.1 L 148.0,964.1 L 154.6,969.5 L 158.4,971.5 L 162.2,972.4 L 165.5,971.4 L 168.1,968.0 L 171.2,970.4 L 174.1,969.3 L 175.7,966.2 L 175.0,962.6 L 177.7,963.3 L 180.5,965.5 L 182.8,968.3 L 183.8,971.0 L 183.9,973.3 L 183.7,974.7 L 182.8,975.4 L 179.0,975.9 L 178.2,976.7 L 178.3,978.0 L 179.2,979.6 L 182.4,981.9 L 185.8,980.8 L 188.7,978.3 L 192.4,974.2 L 199.4,968.3 L 201.9,967.4 L 203.3,969.9 L 202.0,973.2 L 193.1,985.2 L 192.2,987.1 L 192.1,990.8 L 191.5,992.5 L 191.0,992.0 L 188.5,993.2 L 186.4,994.7 L 186.8,995.1 L 186.1,995.6 L 184.5,996.5 L 182.8,996.5 L 181.9,994.6 L 181.8,986.8 L 181.2,985.9 L 180.0,987.3 L 178.8,989.6 L 178.2,991.5 L 175.6,990.6 L 175.5,992.2 L 176.9,994.7 L 178.4,996.6 L 182.2,999.8 L 182.3,1000.0 L 126.3,1000.0 L 127.1,997.0 Z M 347.7,153.5 L 348.7,154.0 L 350.7,156.1 L 352.4,158.7 L 350.9,159.6 L 348.2,160.3 L 346.2,161.9 L 346.0,163.8 L 347.5,167.6 L 347.7,169.5 L 347.2,170.9 L 346.4,171.4 L 343.9,171.1 L 342.5,171.2 L 338.7,172.3 L 334.8,172.8 L 330.7,172.3 L 323.1,170.0 L 324.5,168.6 L 320.3,165.4 L 318.3,165.1 L 316.0,166.8 L 314.2,167.4 L 313.4,165.1 L 313.8,161.9 L 315.3,159.5 L 316.8,159.7 L 326.3,159.4 L 328.3,160.5 L 329.9,162.4 L 331.9,163.3 L 335.3,161.4 L 343.6,155.4 L 347.7,153.5 Z M 470.1,133.2 L 468.9,133.4 L 467.7,133.5 L 466.5,133.5 L 465.7,133.4 L 464.1,133.1 L 461.8,132.1 L 461.3,131.5 L 461.6,130.8 L 462.1,129.9 L 462.4,129.4 L 462.6,128.8 L 462.5,128.2 L 462.1,127.4 L 460.9,126.7 L 459.4,126.4 L 457.9,125.6 L 457.0,123.5 L 462.1,122.2 L 463.4,123.8 L 465.4,128.7 L 467.5,129.0 L 469.1,129.6 L 470.4,130.9 L 471.3,132.8 L 470.1,133.2 Z M 285.7,88.0 L 288.7,89.0 L 291.2,91.2 L 292.3,93.8 L 293.7,98.4 L 293.3,100.2 L 290.5,101.0 L 283.8,101.0 L 281.9,100.2 L 284.6,98.5 L 284.7,96.4 L 282.8,91.7 L 283.2,89.4 L 285.7,88.0 Z M 336.7,49.0 L 338.4,50.6 L 339.8,52.6 L 339.9,55.0 L 338.2,56.6 L 335.3,57.5 L 332.1,57.8 L 329.5,57.8 L 325.8,53.6 L 328.5,49.9 L 333.3,47.7 L 335.9,47.8 L 336.7,49.0 Z M 416.3,71.8 L 417.8,72.8 L 414.2,79.3 L 412.4,80.7 L 409.7,81.0 L 408.3,79.5 L 407.6,77.2 L 407.5,74.8 L 406.4,72.8 L 403.9,73.5 L 401.1,74.8 L 399.1,74.9 L 398.1,72.9 L 397.6,68.1 L 397.0,66.4 L 395.5,65.5 L 393.9,65.6 L 389.3,66.5 L 390.0,64.8 L 389.9,63.6 L 389.2,62.6 L 387.9,61.2 L 383.5,62.4 L 378.1,60.5 L 373.8,56.7 L 372.4,52.1 L 377.4,56.9 L 378.8,57.4 L 380.6,55.9 L 380.5,53.5 L 380.1,50.9 L 380.7,48.8 L 382.3,45.5 L 379.7,43.9 L 375.8,42.3 L 373.6,39.1 L 379.3,39.2 L 381.7,38.4 L 383.8,36.5 L 380.0,33.3 L 379.3,29.5 L 381.4,26.6 L 386.3,25.9 L 388.2,26.5 L 389.9,27.7 L 391.2,29.4 L 391.7,31.8 L 392.5,33.0 L 398.2,36.4 L 394.5,37.9 L 394.9,40.1 L 397.6,42.3 L 402.6,44.8 L 407.5,46.5 L 409.3,46.7 L 411.0,47.5 L 410.1,49.2 L 408.3,51.1 L 407.4,52.7 L 406.7,55.5 L 405.7,57.6 L 405.6,59.9 L 408.1,63.1 L 408.9,63.8 L 409.9,64.4 L 411.0,64.8 L 412.0,65.0 L 412.7,65.3 L 412.7,66.0 L 412.5,66.9 L 412.6,67.7 L 416.3,71.8 Z M 673.7,704.5 L 674.9,704.5 L 676.0,705.6 L 678.9,706.9 L 683.6,709.9 L 684.8,710.9 L 687.2,712.2 L 690.3,712.3 L 696.5,711.7 L 702.2,712.9 L 701.5,715.5 L 698.3,719.3 L 696.3,724.0 L 695.5,725.4 L 693.5,726.9 L 691.2,728.0 L 687.1,729.2 L 685.6,731.4 L 681.4,744.0 L 681.4,744.7 L 681.6,745.7 L 681.6,746.8 L 681.3,748.1 L 680.6,748.5 L 677.8,749.4 L 676.8,749.9 L 674.4,753.6 L 668.2,770.3 L 664.2,778.0 L 661.7,781.2 L 660.9,783.0 L 660.7,785.5 L 661.0,790.3 L 660.9,791.5 L 660.5,792.4 L 658.2,795.3 L 657.6,796.2 L 654.7,802.7 L 650.2,809.8 L 642.9,818.3 L 635.0,824.1 L 633.5,824.7 L 631.8,824.0 L 630.3,822.5 L 628.7,821.6 L 626.7,822.7 L 622.2,828.0 L 620.6,831.2 L 619.9,835.0 L 621.1,833.3 L 622.5,832.0 L 624.2,831.2 L 626.0,831.0 L 614.4,850.1 L 612.3,863.7 L 609.2,867.9 L 604.9,868.1 L 600.4,867.3 L 596.9,868.2 L 586.4,881.9 L 575.8,890.5 L 574.2,892.9 L 573.9,894.9 L 573.2,897.1 L 572.2,899.2 L 568.6,904.7 L 567.4,905.3 L 564.5,905.6 L 563.2,906.4 L 562.0,908.1 L 555.1,922.4 L 551.0,927.9 L 544.7,940.5 L 541.8,949.5 L 539.1,953.2 L 530.3,956.2 L 526.6,959.6 L 523.5,964.0 L 521.5,968.0 L 515.8,985.3 L 512.1,992.5 L 505.5,1000.0 L 276.4,1000.0 L 279.8,997.4 L 284.0,989.2 L 286.7,987.3 L 290.5,985.9 L 292.8,983.7 L 294.6,983.6 L 297.0,988.5 L 299.2,986.8 L 300.1,985.1 L 300.0,983.1 L 299.3,980.6 L 298.3,980.1 L 296.1,977.8 L 294.8,975.3 L 296.2,974.1 L 298.2,973.2 L 301.2,969.7 L 303.3,968.9 L 305.4,968.4 L 307.6,967.0 L 309.6,965.3 L 311.1,963.5 L 312.4,961.2 L 312.9,959.3 L 313.4,954.5 L 317.1,945.8 L 318.6,942.9 L 329.0,933.4 L 338.8,919.7 L 347.0,904.4 L 351.7,891.4 L 353.6,888.1 L 355.0,884.2 L 355.6,873.5 L 356.5,869.1 L 356.6,868.1 L 356.4,866.9 L 356.4,865.7 L 357.0,865.3 L 358.3,865.3 L 360.0,865.0 L 361.1,864.4 L 359.9,861.4 L 359.3,858.5 L 359.1,855.7 L 359.4,854.1 L 360.9,850.7 L 363.0,839.8 L 363.6,832.2 L 363.3,830.3 L 362.3,828.6 L 359.4,824.1 L 357.0,811.7 L 353.5,801.5 L 351.0,796.4 L 348.2,792.2 L 334.4,780.7 L 330.7,775.4 L 314.0,760.3 L 301.4,753.9 L 291.3,750.2 L 286.6,749.6 L 278.7,749.7 L 272.0,749.8 L 257.4,745.6 L 246.4,744.8 L 241.7,744.0 L 237.4,741.7 L 217.9,727.2 L 214.3,723.7 L 203.5,710.3 L 196.0,704.0 L 186.9,700.0 L 177.0,697.6 L 146.1,694.1 L 135.5,691.4 L 110.6,676.9 L 103.8,671.2 L 98.1,663.7 L 94.4,655.0 L 93.0,646.3 L 93.7,637.5 L 95.8,628.4 L 100.9,619.8 L 109.1,614.2 L 127.6,607.0 L 173.7,582.4 L 177.6,581.3 L 202.0,582.4 L 210.7,579.9 L 218.7,574.9 L 240.2,556.0 L 242.9,552.0 L 244.2,545.0 L 245.9,540.4 L 246.2,537.9 L 246.1,532.1 L 246.8,530.7 L 247.1,530.1 L 249.9,529.4 L 248.7,526.0 L 249.1,523.1 L 250.2,520.3 L 250.8,517.0 L 250.7,484.1 L 252.1,477.0 L 258.4,464.9 L 260.6,458.1 L 261.9,450.8 L 262.6,439.6 L 264.3,432.8 L 264.5,428.8 L 263.5,425.4 L 261.9,421.9 L 260.9,418.7 L 261.7,415.8 L 264.6,417.1 L 268.1,417.3 L 271.5,416.7 L 274.5,415.7 L 274.7,417.8 L 275.7,419.6 L 277.0,421.1 L 278.2,422.1 L 279.4,422.1 L 279.3,419.4 L 282.2,421.1 L 284.5,423.5 L 287.1,424.9 L 290.8,423.3 L 289.4,422.5 L 285.6,419.3 L 290.5,417.8 L 296.2,418.4 L 301.4,418.0 L 304.7,414.0 L 301.2,414.0 L 299.8,414.4 L 298.4,415.4 L 297.0,414.0 L 297.5,410.3 L 293.8,407.5 L 288.6,406.2 L 284.8,407.1 L 283.5,409.2 L 282.8,411.1 L 281.6,412.5 L 278.7,413.0 L 276.8,411.8 L 276.6,409.1 L 277.1,406.0 L 277.9,403.9 L 279.6,401.9 L 281.1,401.2 L 283.0,401.0 L 285.3,400.1 L 291.1,394.7 L 294.1,392.9 L 294.2,389.2 L 292.0,386.0 L 287.8,385.7 L 284.7,389.0 L 283.2,393.4 L 281.0,395.9 L 275.8,392.9 L 275.1,389.4 L 276.1,371.3 L 281.0,362.3 L 289.8,359.6 L 300.3,359.4 L 310.2,358.0 L 309.5,356.4 L 308.3,355.2 L 306.8,354.5 L 305.0,354.2 L 307.6,352.6 L 309.5,350.4 L 310.1,347.8 L 308.8,344.9 L 301.1,348.9 L 300.3,349.7 L 299.6,351.9 L 298.7,352.8 L 297.9,352.6 L 296.8,352.0 L 295.5,351.7 L 289.9,353.8 L 286.7,350.8 L 274.2,313.6 L 263.1,292.6 L 260.9,283.9 L 260.9,281.9 L 262.6,279.5 L 264.7,278.5 L 270.1,277.3 L 272.2,276.1 L 274.2,272.5 L 275.7,268.2 L 278.1,264.5 L 282.6,262.9 L 283.0,262.2 L 282.1,260.8 L 280.1,260.0 L 277.5,261.1 L 275.7,262.4 L 272.1,264.3 L 270.6,265.6 L 265.4,273.5 L 262.8,274.6 L 258.6,271.7 L 255.8,268.2 L 248.0,253.7 L 245.9,247.7 L 241.4,240.9 L 240.7,239.3 L 239.5,235.2 L 231.3,223.1 L 229.9,217.8 L 233.0,217.5 L 238.3,218.5 L 245.7,216.5 L 248.5,217.3 L 250.4,218.8 L 250.0,220.8 L 248.2,222.9 L 248.0,224.1 L 257.6,239.0 L 258.5,245.2 L 261.3,249.9 L 264.5,252.0 L 266.5,247.5 L 264.1,242.6 L 263.5,239.6 L 265.7,238.3 L 271.2,239.1 L 273.7,238.8 L 276.4,237.0 L 272.7,237.1 L 263.2,235.8 L 259.9,234.5 L 262.7,233.4 L 272.7,226.0 L 274.0,226.5 L 273.9,230.6 L 281.5,222.9 L 285.7,220.1 L 290.3,219.7 L 297.5,226.4 L 300.0,227.5 L 302.6,226.6 L 303.1,224.4 L 302.2,221.8 L 300.6,219.6 L 300.9,217.5 L 291.3,214.5 L 287.6,212.0 L 284.7,212.9 L 283.0,210.5 L 281.6,206.9 L 279.8,204.1 L 275.1,208.8 L 272.4,207.0 L 271.9,202.7 L 274.0,200.3 L 276.2,199.8 L 278.5,198.4 L 280.3,196.5 L 281.0,194.4 L 268.9,192.7 L 256.2,193.4 L 249.9,195.0 L 245.0,198.1 L 243.5,200.5 L 242.4,205.1 L 241.5,207.2 L 239.7,209.2 L 238.2,209.3 L 233.7,206.0 L 231.1,209.4 L 227.2,212.4 L 222.8,213.7 L 218.9,212.1 L 216.7,208.8 L 208.7,187.2 L 204.2,169.3 L 200.5,160.8 L 190.4,146.5 L 163.8,120.2 L 158.0,111.5 L 156.7,102.8 L 157.1,100.6 L 157.9,98.8 L 159.3,97.7 L 161.7,97.5 L 159.8,102.7 L 159.6,105.3 L 160.7,108.0 L 163.6,102.9 L 165.4,100.8 L 168.1,100.0 L 170.8,101.4 L 173.8,107.6 L 177.6,110.4 L 182.0,116.6 L 184.7,118.1 L 187.9,118.7 L 189.8,120.5 L 189.7,122.6 L 186.8,124.5 L 194.5,126.7 L 196.5,127.0 L 196.7,127.4 L 194.9,128.4 L 192.1,129.4 L 189.5,129.7 L 191.3,130.8 L 192.1,132.3 L 191.9,134.2 L 190.9,136.2 L 193.2,136.3 L 195.0,136.8 L 198.8,138.8 L 198.7,137.4 L 198.8,134.7 L 198.7,133.4 L 200.6,136.1 L 202.6,140.4 L 204.6,142.5 L 206.4,138.7 L 208.4,138.8 L 209.2,136.7 L 209.5,133.5 L 210.3,130.7 L 211.5,129.4 L 214.4,127.2 L 215.4,125.4 L 212.5,126.3 L 211.5,126.8 L 209.8,123.1 L 211.4,114.5 L 209.9,112.4 L 208.2,115.2 L 207.4,113.8 L 207.2,103.9 L 207.1,103.3 L 207.8,102.3 L 210.9,99.4 L 209.4,97.3 L 207.1,95.3 L 205.4,93.1 L 206.2,91.0 L 210.3,87.8 L 209.9,86.7 L 203.9,83.8 L 202.7,83.9 L 199.6,87.2 L 197.3,89.1 L 195.6,89.9 L 184.5,90.8 L 178.5,89.8 L 174.3,86.6 L 172.9,80.5 L 175.5,81.7 L 176.9,77.1 L 178.9,76.6 L 181.5,78.0 L 184.5,78.9 L 192.5,78.3 L 196.3,77.3 L 199.4,75.5 L 202.3,72.9 L 204.7,71.6 L 210.3,69.4 L 215.4,65.5 L 217.2,64.8 L 218.8,64.7 L 220.0,64.0 L 220.6,61.5 L 219.5,60.7 L 219.0,60.5 L 218.7,60.2 L 217.9,58.9 L 216.0,60.7 L 213.5,61.9 L 210.9,62.6 L 210.2,62.7 L 208.2,62.9 L 206.4,63.6 L 202.0,67.2 L 199.9,68.3 L 198.4,66.1 L 195.3,67.8 L 191.7,70.7 L 188.3,72.4 L 183.5,71.7 L 180.7,70.9 L 179.1,69.9 L 178.1,66.5 L 180.0,65.7 L 185.5,67.1 L 188.8,69.5 L 190.2,69.6 L 191.1,64.8 L 193.9,58.6 L 198.2,53.9 L 199.3,51.8 L 199.7,50.4 L 199.8,48.8 L 200.6,45.9 L 203.8,47.1 L 206.2,46.8 L 206.7,45.1 L 204.4,42.1 L 202.5,41.1 L 195.3,39.5 L 196.3,45.3 L 194.0,51.8 L 189.5,57.1 L 184.1,59.4 L 186.9,56.2 L 187.9,55.5 L 185.7,54.9 L 183.7,55.2 L 182.0,55.1 L 181.4,53.5 L 180.8,50.5 L 179.6,50.0 L 177.9,50.4 L 176.2,50.3 L 174.1,49.7 L 172.9,49.8 L 172.3,49.1 L 172.1,46.5 L 172.3,44.3 L 172.9,42.4 L 174.5,38.6 L 171.5,38.8 L 169.5,40.1 L 165.6,44.0 L 166.3,38.7 L 163.4,38.6 L 155.2,44.1 L 157.3,45.7 L 157.4,49.8 L 160.0,50.6 L 163.4,50.5 L 165.8,50.8 L 167.7,51.9 L 169.7,54.3 L 168.6,57.0 L 168.7,58.9 L 170.4,59.6 L 171.8,59.2 L 172.8,58.3 L 174.3,56.3 L 176.0,56.3 L 178.1,57.9 L 181.6,62.1 L 174.8,63.6 L 173.7,64.1 L 173.3,65.9 L 172.2,66.9 L 170.6,67.3 L 168.8,67.3 L 167.2,66.7 L 164.7,64.1 L 162.8,63.5 L 160.7,63.3 L 159.5,62.6 L 154.8,57.3 L 153.1,54.5 L 150.9,51.8 L 147.6,49.5 L 144.1,48.9 L 135.0,48.8 L 133.2,47.7 L 132.0,45.9 L 129.1,43.6 L 125.7,41.5 L 123.2,40.7 L 120.2,39.2 L 118.8,35.8 L 118.4,28.4 L 117.1,25.5 L 111.6,21.0 L 109.2,15.3 L 106.8,13.1 L 100.8,9.7 L 107.7,4.3 L 109.4,1.3 L 109.1,0.0 L 213.0,0.0 L 213.3,0.2 L 214.1,4.9 L 213.9,9.8 L 214.3,13.2 L 216.7,15.6 L 225.3,20.6 L 228.9,22.1 L 231.2,22.5 L 236.0,22.4 L 238.1,23.3 L 240.0,25.8 L 239.8,27.5 L 238.8,29.2 L 238.2,31.2 L 239.3,35.7 L 241.3,38.0 L 244.2,39.8 L 247.5,42.8 L 258.4,56.1 L 264.6,61.6 L 272.5,66.0 L 277.4,67.6 L 277.6,68.7 L 276.5,71.3 L 276.6,71.8 L 277.2,72.0 L 277.6,72.3 L 277.1,73.2 L 276.5,73.5 L 275.9,73.3 L 275.4,72.9 L 275.3,72.6 L 274.3,73.2 L 273.6,72.9 L 273.0,73.1 L 272.6,75.2 L 274.2,78.7 L 278.4,80.0 L 283.7,80.6 L 288.3,81.7 L 282.6,82.5 L 266.9,82.0 L 263.7,82.5 L 264.2,85.1 L 267.0,93.0 L 270.1,98.0 L 270.6,101.3 L 270.2,104.7 L 269.4,107.7 L 265.4,98.8 L 262.4,95.0 L 257.5,93.5 L 261.0,101.8 L 260.7,105.0 L 256.4,105.3 L 256.4,106.7 L 258.2,107.2 L 259.9,108.0 L 261.4,109.0 L 262.9,110.4 L 261.6,112.4 L 257.7,114.5 L 256.5,115.8 L 256.6,118.3 L 258.7,121.7 L 259.3,124.2 L 259.2,128.1 L 260.1,128.6 L 262.6,130.7 L 264.5,131.7 L 267.1,132.3 L 272.3,132.5 L 280.3,129.9 L 282.5,129.8 L 284.5,131.1 L 283.7,132.2 L 275.1,136.4 L 270.4,137.9 L 267.4,137.7 L 259.5,135.3 L 263.4,138.5 L 266.3,143.2 L 278.1,171.7 L 274.0,170.8 L 271.5,169.0 L 268.8,168.3 L 263.9,170.6 L 262.3,169.6 L 261.6,168.5 L 261.7,167.0 L 262.5,165.4 L 258.9,164.7 L 256.1,159.5 L 253.4,159.6 L 246.8,162.4 L 243.8,164.1 L 240.7,166.9 L 240.8,168.2 L 242.4,168.4 L 249.0,167.4 L 252.3,168.1 L 250.6,169.5 L 247.9,171.0 L 246.2,172.5 L 247.2,174.0 L 250.2,175.5 L 251.1,176.1 L 251.0,177.3 L 251.4,185.4 L 252.2,187.9 L 254.6,189.0 L 256.1,188.0 L 256.3,185.7 L 256.1,183.0 L 256.4,181.0 L 257.7,182.5 L 259.2,180.3 L 260.9,178.4 L 262.9,177.0 L 265.3,175.9 L 268.2,175.4 L 277.0,176.9 L 288.8,176.8 L 292.9,179.0 L 292.4,184.7 L 290.5,187.0 L 288.7,188.3 L 287.7,190.0 L 288.7,193.6 L 289.8,196.0 L 290.8,197.4 L 292.0,197.1 L 293.8,195.0 L 298.6,174.1 L 299.9,174.1 L 304.1,183.0 L 305.7,187.4 L 305.4,192.4 L 309.7,191.4 L 314.5,191.2 L 316.8,189.8 L 313.7,185.1 L 312.9,182.0 L 317.3,181.0 L 323.2,181.6 L 327.2,182.8 L 329.5,187.2 L 327.5,195.9 L 329.9,199.2 L 332.9,199.8 L 335.1,199.0 L 337.2,197.8 L 340.4,196.9 L 344.7,194.4 L 345.9,194.8 L 346.9,195.5 L 347.8,195.8 L 353.9,193.4 L 355.6,193.0 L 357.6,193.6 L 361.6,196.4 L 364.1,197.0 L 365.6,197.7 L 372.3,204.4 L 373.6,206.3 L 374.6,208.5 L 375.1,211.3 L 375.0,215.7 L 372.7,229.0 L 373.6,233.4 L 375.8,237.5 L 378.8,241.1 L 381.7,243.9 L 388.5,247.0 L 396.8,247.2 L 405.3,245.4 L 412.5,242.5 L 414.0,241.2 L 414.6,239.9 L 415.6,239.0 L 418.2,238.5 L 419.8,239.4 L 420.3,241.4 L 420.2,245.7 L 421.2,249.4 L 423.7,251.7 L 427.0,252.1 L 430.5,250.3 L 427.5,249.7 L 425.6,247.7 L 424.4,244.8 L 423.6,238.8 L 421.8,233.7 L 421.4,231.3 L 418.1,225.6 L 417.5,222.8 L 417.7,212.8 L 416.8,210.4 L 415.9,208.9 L 411.4,197.2 L 410.1,195.0 L 408.3,192.7 L 406.0,190.9 L 401.2,188.1 L 399.3,186.4 L 398.1,184.3 L 397.5,182.3 L 396.5,180.4 L 394.1,178.6 L 398.0,177.4 L 402.6,178.1 L 406.7,178.0 L 409.4,174.8 L 403.3,174.9 L 400.4,174.6 L 397.8,173.4 L 400.1,172.7 L 402.4,172.2 L 404.4,171.4 L 405.6,169.5 L 403.9,169.4 L 402.7,169.0 L 401.6,168.5 L 400.4,168.1 L 409.8,165.8 L 413.0,163.6 L 412.0,158.9 L 409.0,160.6 L 408.1,161.5 L 406.8,159.7 L 405.8,157.7 L 405.7,155.8 L 406.9,153.9 L 402.6,148.1 L 403.9,143.1 L 406.3,138.4 L 405.3,134.1 L 403.7,133.5 L 401.6,133.2 L 399.7,132.6 L 398.9,130.9 L 398.3,130.4 L 394.9,126.5 L 391.5,125.0 L 384.4,122.9 L 381.3,120.5 L 379.6,118.0 L 378.7,114.9 L 378.1,107.6 L 379.6,104.8 L 383.4,104.8 L 388.1,105.5 L 394.3,104.4 L 395.6,105.3 L 396.4,106.8 L 397.5,108.5 L 398.3,110.0 L 398.7,110.6 L 399.5,111.2 L 401.0,111.9 L 404.9,114.9 L 406.8,115.1 L 411.7,110.6 L 415.2,114.1 L 417.4,118.9 L 417.1,123.8 L 413.0,127.6 L 416.9,130.2 L 421.2,130.2 L 424.6,131.1 L 426.0,136.1 L 426.6,141.0 L 426.1,143.4 L 424.1,142.6 L 421.6,141.0 L 419.8,141.4 L 419.1,143.0 L 420.3,145.2 L 422.5,146.0 L 427.9,145.3 L 429.9,145.8 L 431.2,148.0 L 430.5,150.0 L 429.3,151.8 L 428.7,153.8 L 430.0,159.3 L 432.7,159.8 L 440.3,154.9 L 437.6,154.0 L 436.4,153.8 L 437.7,152.0 L 440.1,151.3 L 442.7,151.7 L 444.8,153.0 L 447.1,153.9 L 449.9,152.8 L 454.5,149.7 L 457.9,148.7 L 460.6,148.5 L 463.0,149.4 L 465.5,151.6 L 467.6,151.9 L 470.1,150.7 L 472.1,150.5 L 472.5,153.7 L 471.5,156.2 L 469.5,156.9 L 464.2,156.3 L 463.3,157.2 L 459.7,162.8 L 457.2,164.1 L 452.4,165.7 L 450.1,167.3 L 447.1,170.7 L 444.3,174.7 L 446.6,176.2 L 446.4,177.5 L 445.7,178.9 L 446.2,180.4 L 448.3,182.1 L 450.6,183.3 L 452.1,183.2 L 451.9,181.1 L 454.9,179.2 L 453.4,173.2 L 455.8,170.6 L 460.0,172.4 L 467.6,171.0 L 472.0,173.9 L 472.7,176.0 L 472.4,180.9 L 473.3,182.9 L 476.2,186.0 L 477.0,187.5 L 477.8,190.1 L 479.0,199.2 L 478.4,205.2 L 478.4,206.3 L 478.8,208.2 L 477.6,210.2 L 476.1,212.3 L 475.3,214.3 L 476.2,215.6 L 478.2,214.6 L 480.4,212.5 L 481.6,211.0 L 485.0,214.5 L 484.3,219.3 L 481.6,224.3 L 478.5,228.6 L 478.3,230.2 L 480.1,230.9 L 482.6,231.2 L 484.3,231.9 L 484.9,234.2 L 484.6,239.8 L 485.5,242.3 L 483.7,241.3 L 482.3,239.8 L 481.3,237.9 L 480.5,235.8 L 479.0,235.8 L 479.9,240.6 L 481.3,244.7 L 481.6,248.0 L 479.1,250.2 L 485.4,252.6 L 487.6,254.4 L 489.4,257.9 L 491.2,265.3 L 491.9,273.0 L 492.7,276.0 L 496.1,281.9 L 496.9,284.7 L 497.5,286.1 L 500.1,287.7 L 500.9,289.3 L 500.8,291.8 L 499.9,291.5 L 498.5,290.4 L 496.9,290.6 L 495.4,293.6 L 497.2,294.8 L 504.7,295.8 L 507.8,296.9 L 511.1,298.6 L 514.2,300.7 L 516.8,302.9 L 518.7,305.4 L 521.6,311.1 L 523.2,313.4 L 528.5,317.5 L 530.7,319.8 L 531.4,323.1 L 524.8,318.9 L 522.6,317.9 L 519.7,317.7 L 516.9,318.1 L 514.1,317.7 L 511.0,315.3 L 512.9,314.5 L 518.8,312.7 L 512.3,309.0 L 509.2,306.7 L 506.6,304.2 L 503.0,302.3 L 498.1,302.1 L 489.4,303.5 L 490.5,304.6 L 492.2,306.7 L 493.1,307.5 L 492.5,308.6 L 491.9,310.0 L 491.7,311.4 L 492.0,312.7 L 493.2,314.1 L 494.3,314.3 L 495.2,314.1 L 495.8,314.0 L 496.8,314.6 L 498.7,315.0 L 499.5,315.3 L 499.8,316.4 L 499.4,317.5 L 498.6,318.5 L 498.3,319.2 L 499.2,323.5 L 499.5,324.4 L 500.4,325.3 L 501.4,325.7 L 504.7,325.8 L 506.1,325.4 L 507.1,324.5 L 507.8,323.5 L 508.5,323.1 L 511.8,324.5 L 513.3,326.8 L 514.4,329.5 L 516.2,332.3 L 519.1,330.7 L 520.9,331.8 L 522.5,333.9 L 524.4,335.0 L 527.1,333.9 L 528.0,332.0 L 529.2,330.4 L 532.8,330.9 L 535.3,332.2 L 536.3,333.9 L 536.6,336.3 L 536.5,339.5 L 537.4,341.2 L 539.8,341.1 L 542.7,340.4 L 545.5,340.2 L 543.0,331.0 L 538.8,325.3 L 537.8,322.6 L 540.3,321.9 L 543.9,324.5 L 550.5,334.1 L 555.0,336.3 L 560.1,337.3 L 571.3,341.8 L 576.6,342.9 L 578.7,343.7 L 583.2,347.3 L 585.5,348.1 L 591.0,348.1 L 591.9,348.9 L 592.7,350.1 L 594.0,350.7 L 596.2,349.4 L 633.1,371.6 L 640.6,374.6 L 652.2,376.3 L 663.3,379.9 L 675.9,381.5 L 686.0,386.8 L 703.2,388.9 L 710.1,392.1 L 699.2,392.0 L 697.2,392.5 L 698.3,393.7 L 706.8,398.7 L 709.1,399.7 L 711.8,400.1 L 714.2,399.1 L 714.7,396.8 L 713.9,394.1 L 712.6,392.1 L 715.7,391.5 L 717.5,392.4 L 719.0,393.8 L 721.4,394.8 L 733.5,395.0 L 734.0,395.4 L 735.9,398.2 L 737.0,398.9 L 737.9,398.6 L 738.7,397.9 L 739.8,397.6 L 740.5,397.0 L 740.4,395.7 L 740.5,394.3 L 741.7,393.8 L 743.8,393.6 L 749.4,392.5 L 766.0,391.8 L 770.4,389.5 L 773.8,387.1 L 788.3,380.1 L 794.0,376.2 L 796.0,374.2 L 796.8,372.5 L 796.9,367.6 L 800.1,363.0 L 800.7,361.2 L 801.8,360.0 L 809.6,356.7 L 812.6,353.4 L 814.8,346.5 L 817.0,343.2 L 819.9,340.6 L 821.1,338.9 L 821.6,336.7 L 823.0,335.3 L 841.6,331.3 L 845.4,331.2 L 848.8,330.4 L 851.3,328.3 L 855.8,322.9 L 858.7,321.7 L 867.0,321.1 L 870.5,319.9 L 873.0,317.8 L 873.7,315.9 L 872.9,313.8 L 870.7,310.8 L 878.1,312.2 L 923.8,314.9 L 928.1,316.1 L 930.4,317.7 L 927.8,319.7 L 927.8,321.0 L 930.0,321.9 L 933.3,324.9 L 935.3,326.3 L 938.4,327.4 L 941.5,327.8 L 948.0,327.9 L 950.3,328.5 L 953.8,331.3 L 956.2,332.0 L 961.9,332.0 L 964.2,332.4 L 967.0,333.5 L 969.9,335.5 L 973.8,339.0 L 976.5,343.0 L 976.1,346.2 L 974.5,347.9 L 970.8,352.6 L 963.6,358.4 L 959.5,367.1 L 956.8,371.8 L 950.0,375.4 L 947.2,379.6 L 941.7,391.4 L 939.5,394.4 L 936.4,397.5 L 934.9,399.4 L 934.2,401.4 L 935.5,405.9 L 938.1,409.9 L 939.9,414.1 L 938.7,419.1 L 935.7,421.5 L 931.9,423.8 L 930.0,426.7 L 934.4,434.8 L 933.6,438.6 L 931.3,442.3 L 928.4,445.6 L 927.2,449.5 L 929.7,453.3 L 933.1,456.7 L 935.0,459.3 L 934.3,461.4 L 932.6,463.2 L 929.6,465.8 L 928.7,468.2 L 928.1,472.4 L 926.8,474.9 L 929.0,475.5 L 930.9,477.0 L 931.9,479.0 L 931.7,481.7 L 930.4,483.2 L 923.4,486.1 L 922.5,487.7 L 922.3,500.0 L 921.2,501.5 L 900.0,519.9 L 880.9,533.0 L 877.7,534.4 L 870.6,528.8 L 865.9,527.8 L 861.3,528.7 L 857.4,531.0 L 855.8,531.6 L 854.6,531.1 L 853.9,531.3 L 853.7,533.5 L 853.7,534.5 L 854.2,536.5 L 854.6,537.4 L 857.9,540.4 L 859.4,542.6 L 859.0,544.8 L 855.6,549.4 L 854.4,553.7 L 853.9,563.7 L 851.7,574.8 L 849.0,580.4 L 848.4,587.8 L 847.0,591.0 L 848.5,594.7 L 846.9,597.5 L 844.5,600.2 L 843.0,604.0 L 855.6,605.4 L 861.5,608.0 L 864.0,612.8 L 853.8,621.0 L 849.3,630.5 L 847.5,636.6 L 845.2,638.7 L 842.3,640.5 L 839.5,643.0 L 834.8,631.2 L 833.6,625.1 L 833.8,619.5 L 834.9,616.4 L 836.3,613.3 L 838.0,610.6 L 839.8,608.5 L 840.0,606.2 L 837.4,604.7 L 834.0,604.8 L 831.5,607.7 L 829.6,606.9 L 824.1,603.7 L 821.4,602.8 L 792.6,601.3 L 763.1,600.3 L 760.9,599.5 L 759.3,598.2 L 757.6,597.7 L 752.8,601.2 L 718.8,614.3 L 693.7,623.8 L 691.5,626.1 L 690.7,630.2 L 688.7,634.4 L 686.2,638.1 L 681.7,643.0 L 675.1,648.7 L 670.8,651.4 L 670.2,652.0 L 668.1,657.2 L 665.8,659.6 L 664.5,661.8 L 663.9,664.2 L 663.7,667.6 L 664.3,670.8 L 665.8,672.5 L 667.9,673.8 L 669.9,676.0 L 671.1,679.9 L 672.0,697.6 L 672.5,701.3 L 673.7,704.5 Z M 104.8,3.4 L 97.6,6.7 L 96.9,9.8 L 107.0,20.8 L 108.4,22.7 L 112.4,24.6 L 114.1,29.0 L 115.1,34.0 L 116.7,37.5 L 118.1,39.2 L 120.5,43.3 L 122.1,45.3 L 123.9,46.4 L 126.3,47.2 L 128.5,48.4 L 130.3,52.1 L 132.0,53.3 L 133.9,54.5 L 135.4,55.6 L 146.1,68.4 L 148.6,69.5 L 151.4,69.1 L 154.2,69.2 L 155.9,71.6 L 152.1,73.1 L 154.0,75.3 L 157.9,78.5 L 160.1,82.6 L 158.6,86.6 L 154.9,89.3 L 146.2,92.5 L 137.1,92.9 L 132.4,86.3 L 125.9,68.0 L 100.5,41.1 L 93.4,30.0 L 64.6,0.0 L 105.7,0.0 L 104.8,3.4 Z" stroke="white" stroke-width="3" fill="none" opacity="0.8"/>
</svg>