<svg xmlns="http://www.w3.org/2000/svg" viewBox="0 0 1000 1000" preserveAspectRatio="none">
  <path d="M 998.2,619.4 L 993.2,625.5 L 990.4,628.4 L 988.6,631.7 L 981.4,634.4 L 978.0,637.1 L 961.0,655.4 L 954.2,659.4 L 948.7,657.2 L 944.7,660.0 L 941.3,662.5 L 939.0,666.8 L 938.1,670.6 L 923.0,698.5 L 921.9,702.9 L 921.9,725.1 L 920.4,732.3 L 916.7,738.1 L 908.6,747.7 L 908.0,751.2 L 907.9,755.6 L 907.0,759.4 L 903.8,761.0 L 901.5,761.7 L 893.5,766.6 L 899.6,774.3 L 901.1,787.7 L 901.1,817.0 L 904.3,835.8 L 904.7,842.5 L 903.2,849.8 L 899.9,852.8 L 896.2,854.9 L 893.5,859.6 L 901.4,861.0 L 904.2,870.5 L 903.9,883.2 L 901.6,906.4 L 898.7,914.3 L 895.4,919.9 L 893.1,925.1 L 890.4,931.0 L 889.3,936.9 L 870.5,972.3 L 843.7,1000.0 L 0.0,1000.0 L 0.0,710.2 L 3.3,707.3 L 13.3,700.3 L 20.3,691.4 L 18.9,678.7 L 43.9,678.7 L 46.5,677.2 L 49.9,670.5 L 50.0,664.6 L 49.1,663.3 L 46.6,660.0 L 39.8,657.2 L 39.8,654.6 L 52.8,650.2 L 58.0,646.9 L 68.2,634.9 L 85.5,623.2 L 96.5,612.3 L 105.6,600.5 L 106.0,598.2 L 106.2,594.1 L 107.0,589.3 L 109.3,584.7 L 112.2,581.6 L 115.3,579.0 L 118.5,576.9 L 121.8,575.5 L 119.9,574.5 L 114.2,570.0 L 119.6,567.2 L 125.1,565.7 L 142.3,564.6 L 152.7,562.1 L 162.0,557.3 L 167.7,553.2 L 170.4,550.4 L 174.2,548.1 L 181.4,548.9 L 183.8,547.8 L 190.6,541.3 L 195.4,543.9 L 199.7,550.8 L 205.5,556.9 L 218.7,558.9 L 234.5,553.9 L 249.7,544.4 L 266.4,527.5 L 279.3,518.7 L 284.7,513.4 L 289.5,509.7 L 307.3,500.1 L 311.7,496.0 L 313.1,492.7 L 313.3,488.9 L 314.3,485.7 L 316.4,483.6 L 324.0,478.8 L 326.8,477.9 L 331.9,475.0 L 342.5,462.2 L 347.5,459.3 L 353.0,457.2 L 373.2,443.6 L 387.2,438.9 L 394.8,434.8 L 398.0,429.2 L 399.3,426.2 L 402.3,423.1 L 405.8,420.7 L 408.5,419.8 L 416.0,419.0 L 418.4,419.6 L 420.8,420.0 L 423.2,419.5 L 426.5,417.2 L 430.6,413.1 L 441.8,409.9 L 451.3,402.5 L 462.5,405.0 L 468.6,404.3 L 483.0,392.9 L 488.7,391.3 L 493.1,388.3 L 502.5,373.9 L 506.6,369.0 L 508.3,364.8 L 508.5,360.0 L 514.1,353.4 L 521.3,352.0 L 524.4,348.4 L 524.8,343.3 L 526.6,335.0 L 532.4,327.8 L 538.4,322.9 L 575.5,304.3 L 579.1,298.3 L 581.4,288.2 L 587.5,286.1 L 591.7,282.3 L 594.2,276.3 L 596.3,270.9 L 599.1,268.5 L 605.8,265.6 L 612.9,260.4 L 616.7,258.6 L 621.1,257.8 L 624.3,258.7 L 630.3,262.4 L 633.5,263.3 L 651.5,234.5 L 642.6,232.8 L 635.7,240.6 L 629.5,250.5 L 622.9,255.2 L 628.2,238.7 L 637.6,227.5 L 644.8,222.1 L 647.6,216.3 L 647.6,213.5 L 668.1,212.1 L 674.2,209.1 L 676.4,206.7 L 674.2,203.2 L 679.1,199.3 L 683.0,193.8 L 687.3,190.5 L 693.3,193.0 L 694.2,186.6 L 697.2,185.3 L 699.0,182.5 L 710.1,175.5 L 735.0,166.6 L 745.8,157.9 L 754.6,156.6 L 759.0,156.4 L 761.9,155.8 L 764.3,153.0 L 767.9,148.8 L 771.0,146.3 L 781.1,141.1 L 786.0,135.6 L 796.0,120.9 L 801.1,117.8 L 805.8,113.7 L 829.5,72.4 L 833.1,68.7 L 835.8,67.7 L 841.5,65.2 L 846.4,61.8 L 848.6,57.0 L 852.7,49.8 L 855.3,46.6 L 858.2,45.2 L 862.7,42.3 L 867.3,35.3 L 874.3,22.1 L 879.3,19.1 L 888.6,0.0 L 1000.0,0.0 L 1000.0,618.8 L 998.2,619.4 Z" stroke="white" stroke-width="3" fill="none" opacity="0.8"/>
</svg>