<svg xmlns="http://www.w3.org/2000/svg" viewBox="0 0 1000 1000" preserveAspectRatio="none">
  <path d="M 75.6,978.0 L 76.8,976.4 L 76.9,974.4 L 75.9,972.1 L 73.9,974.1 L 73.3,974.9 L 72.2,972.5 L 71.8,970.0 L 72.2,967.5 L 73.3,965.2 L 76.2,967.4 L 78.5,969.8 L 81.1,971.7 L 85.1,972.1 L 85.1,970.8 L 82.8,969.2 L 80.7,967.2 L 79.1,964.5 L 78.6,961.2 L 79.0,958.2 L 81.5,950.5 L 82.5,948.8 L 83.6,949.0 L 83.8,950.7 L 84.4,952.3 L 86.5,952.8 L 87.2,950.0 L 88.2,948.1 L 89.8,947.3 L 92.6,948.5 L 92.7,951.4 L 92.2,955.1 L 93.1,958.4 L 94.6,956.5 L 100.7,954.9 L 103.7,952.8 L 97.1,952.8 L 101.4,949.8 L 103.2,948.1 L 105.0,945.9 L 107.1,940.1 L 108.0,938.9 L 108.9,941.8 L 108.9,944.7 L 108.2,947.6 L 106.3,952.8 L 107.5,954.8 L 107.8,956.2 L 107.0,956.8 L 105.9,957.3 L 103.1,960.1 L 102.2,961.2 L 101.6,963.3 L 100.9,968.5 L 99.7,970.8 L 98.9,971.0 L 95.1,970.8 L 93.9,971.4 L 91.7,973.9 L 90.5,974.9 L 85.8,976.2 L 84.4,976.8 L 83.6,978.2 L 83.1,979.6 L 82.5,980.5 L 80.1,981.9 L 77.3,982.9 L 74.5,983.0 L 72.0,981.9 L 72.7,981.2 L 73.0,980.5 L 73.0,979.8 L 73.3,979.0 L 75.6,978.0 Z M 56.8,997.8 L 58.4,996.7 L 62.9,994.9 L 64.7,993.7 L 66.8,992.9 L 76.6,991.6 L 77.6,990.7 L 81.9,985.4 L 86.6,982.8 L 85.9,992.1 L 90.5,993.0 L 91.2,992.2 L 97.1,987.5 L 97.6,986.4 L 98.1,983.8 L 98.3,983.2 L 99.4,982.6 L 102.2,981.9 L 111.7,977.8 L 113.3,977.6 L 115.6,977.6 L 117.9,978.0 L 119.5,979.0 L 121.5,984.4 L 118.2,985.1 L 108.9,983.2 L 110.2,985.8 L 109.0,987.3 L 107.2,988.8 L 106.3,991.6 L 104.1,990.9 L 102.1,990.8 L 100.1,991.5 L 98.3,993.0 L 99.5,994.2 L 99.9,995.0 L 100.5,995.5 L 102.2,995.8 L 99.0,998.2 L 92.8,999.9 L 88.3,1000.0 L 86.6,1000.0 L 83.9,997.8 L 81.0,997.5 L 75.5,998.1 L 72.8,1000.0 L 54.7,1000.0 L 56.8,997.8 Z M 110.1,997.4 L 109.9,995.4 L 111.2,994.6 L 114.2,995.8 L 114.5,991.5 L 117.9,992.7 L 124.8,998.5 L 127.6,1000.0 L 111.6,1000.0 L 110.1,997.4 Z M 139.5,997.1 L 142.8,999.7 L 146.0,998.6 L 147.9,995.4 L 147.2,991.6 L 150.1,992.4 L 153.1,994.7 L 155.5,997.8 L 156.3,1000.0 L 137.2,1000.0 L 139.5,997.1 Z M 173.5,998.0 L 176.2,997.1 L 177.7,999.7 L 177.6,1000.0 L 170.9,1000.0 L 173.5,998.0 Z M 344.1,158.2 L 345.2,158.8 L 347.2,160.8 L 348.9,163.5 L 347.4,164.4 L 344.6,165.1 L 342.5,166.7 L 342.3,168.5 L 343.8,172.4 L 344.0,174.3 L 343.5,175.7 L 342.6,176.2 L 340.1,175.9 L 338.6,176.0 L 334.7,177.1 L 330.7,177.5 L 326.5,177.0 L 318.7,174.6 L 320.2,173.2 L 315.9,170.0 L 313.9,169.7 L 311.5,171.3 L 309.7,171.9 L 308.9,169.6 L 309.3,166.4 L 310.9,164.0 L 312.4,164.2 L 322.1,164.0 L 324.2,165.1 L 325.8,167.0 L 327.8,167.9 L 331.4,166.1 L 339.9,160.1 L 344.1,158.2 Z M 469.4,138.4 L 468.2,138.7 L 467.0,138.8 L 465.7,138.7 L 464.9,138.6 L 463.4,138.3 L 461.0,137.4 L 460.5,136.7 L 460.8,136.0 L 461.3,135.1 L 461.6,134.6 L 461.8,134.0 L 461.7,133.4 L 461.3,132.7 L 460.1,131.9 L 458.5,131.6 L 457.0,130.8 L 456.1,128.8 L 461.3,127.4 L 462.6,129.0 L 464.7,134.0 L 466.8,134.2 L 468.5,134.8 L 469.7,136.1 L 470.7,138.0 L 469.4,138.4 Z M 281.7,92.2 L 284.7,93.2 L 287.3,95.4 L 288.4,98.0 L 289.7,102.6 L 289.3,104.5 L 286.4,105.3 L 279.5,105.1 L 277.6,104.4 L 280.5,102.7 L 280.6,100.5 L 278.7,95.9 L 279.2,93.6 L 281.7,92.2 Z M 334.1,53.8 L 335.8,55.4 L 337.3,57.3 L 337.3,59.7 L 335.5,61.3 L 332.6,62.2 L 329.4,62.5 L 326.7,62.4 L 323.0,58.2 L 325.8,54.6 L 330.7,52.5 L 333.3,52.6 L 334.1,53.8 Z M 414.8,77.0 L 416.4,78.0 L 412.6,84.4 L 410.8,85.8 L 408.1,86.0 L 406.6,84.6 L 406.0,82.3 L 405.9,79.9 L 404.8,77.9 L 402.2,78.6 L 399.4,79.9 L 397.3,79.9 L 396.3,78.0 L 395.9,73.2 L 395.2,71.5 L 393.7,70.6 L 392.1,70.6 L 387.4,71.5 L 388.1,69.8 L 388.0,68.7 L 387.4,67.6 L 386.0,66.2 L 381.5,67.4 L 376.1,65.5 L 371.7,61.7 L 370.4,57.1 L 375.4,61.9 L 376.8,62.4 L 378.6,60.9 L 378.6,58.5 L 378.2,56.0 L 378.8,53.9 L 380.4,50.6 L 377.8,49.0 L 373.9,47.4 L 371.7,44.2 L 377.4,44.3 L 379.9,43.5 L 382.1,41.6 L 378.3,38.5 L 377.5,34.7 L 379.7,31.8 L 384.7,31.2 L 386.6,31.8 L 388.3,32.9 L 389.6,34.7 L 390.1,37.1 L 390.9,38.2 L 396.7,41.6 L 392.9,43.1 L 393.3,45.3 L 396.1,47.5 L 401.1,50.0 L 406.0,51.7 L 407.9,52.0 L 409.6,52.7 L 408.7,54.4 L 406.9,56.3 L 405.9,57.8 L 405.2,60.7 L 404.1,62.8 L 404.1,65.0 L 406.5,68.3 L 407.3,69.0 L 408.4,69.5 L 409.4,69.9 L 410.5,70.1 L 411.2,70.4 L 411.2,71.2 L 410.9,72.1 L 411.1,72.8 L 414.8,77.0 Z M 685.0,721.7 L 686.3,721.6 L 687.4,722.8 L 690.6,724.1 L 695.6,727.2 L 697.0,728.2 L 699.5,729.5 L 702.8,729.6 L 709.4,728.9 L 715.5,730.2 L 714.8,732.9 L 711.4,736.8 L 709.4,741.7 L 708.5,743.3 L 706.4,744.8 L 704.0,746.0 L 699.6,747.4 L 698.1,749.6 L 693.7,762.9 L 693.7,763.6 L 694.0,764.6 L 694.1,765.7 L 693.7,767.1 L 693.0,767.5 L 690.0,768.5 L 689.0,769.1 L 686.4,773.0 L 680.0,790.5 L 675.9,798.6 L 673.2,802.0 L 672.4,803.8 L 672.2,806.5 L 672.6,811.5 L 672.4,812.9 L 672.1,813.8 L 669.6,816.9 L 669.0,817.8 L 666.0,824.7 L 661.2,832.1 L 653.5,841.1 L 645.1,847.3 L 643.5,847.9 L 641.7,847.2 L 640.0,845.6 L 638.3,844.7 L 636.2,845.9 L 631.3,851.5 L 629.6,854.8 L 628.9,858.9 L 630.2,857.1 L 631.8,855.7 L 633.5,854.9 L 635.5,854.6 L 623.1,874.8 L 621.0,889.2 L 617.7,893.7 L 613.0,893.9 L 608.2,893.0 L 604.5,894.0 L 593.3,908.5 L 581.8,917.7 L 580.2,920.3 L 579.8,922.3 L 579.0,924.7 L 578.0,926.9 L 574.2,932.7 L 572.9,933.4 L 569.7,933.8 L 568.3,934.6 L 567.0,936.4 L 559.7,951.5 L 555.2,957.4 L 548.5,970.8 L 545.4,980.4 L 542.4,984.3 L 532.9,987.5 L 528.8,991.2 L 525.5,995.8 L 523.4,1000.0 L 286.5,1000.0 L 288.6,999.5 L 291.0,998.1 L 293.3,996.2 L 294.9,994.4 L 296.4,991.9 L 296.9,989.9 L 297.6,984.8 L 301.6,975.6 L 303.4,972.5 L 314.8,962.6 L 325.6,948.1 L 334.6,932.0 L 339.9,918.2 L 341.9,914.7 L 343.5,910.6 L 344.2,899.3 L 345.3,894.7 L 345.4,893.6 L 345.2,892.3 L 345.2,891.1 L 345.8,890.7 L 347.3,890.6 L 349.1,890.4 L 350.3,889.8 L 349.1,886.6 L 348.5,883.6 L 348.3,880.6 L 348.6,878.9 L 350.2,875.3 L 352.6,863.8 L 353.4,855.9 L 353.1,853.8 L 352.0,852.0 L 348.9,847.3 L 346.4,834.2 L 342.8,823.4 L 340.3,818.1 L 337.3,813.6 L 322.6,801.4 L 318.7,795.8 L 301.1,779.8 L 287.7,773.1 L 277.0,769.1 L 272.0,768.3 L 263.6,768.4 L 256.4,768.5 L 240.9,763.8 L 229.1,762.9 L 224.1,761.9 L 219.5,759.5 L 199.0,744.0 L 195.3,740.4 L 184.1,726.2 L 176.3,719.6 L 166.6,715.2 L 156.2,712.5 L 123.4,708.4 L 112.2,705.3 L 86.2,689.8 L 79.1,683.7 L 73.3,675.8 L 69.6,666.6 L 68.5,657.6 L 69.4,648.5 L 72.0,639.1 L 77.7,630.3 L 86.5,624.6 L 106.3,617.5 L 155.6,592.9 L 159.8,591.9 L 185.4,593.3 L 194.8,590.9 L 203.2,585.8 L 226.3,566.5 L 229.2,562.5 L 230.8,555.3 L 232.6,550.6 L 233.0,548.1 L 233.0,542.0 L 233.8,540.6 L 234.1,540.0 L 237.1,539.3 L 235.8,535.8 L 236.4,532.8 L 237.6,529.9 L 238.2,526.5 L 238.8,492.7 L 240.4,485.4 L 247.1,473.1 L 249.6,466.2 L 251.1,458.7 L 252.0,447.2 L 253.9,440.3 L 254.2,436.2 L 253.2,432.7 L 251.6,429.2 L 250.6,425.8 L 251.5,422.9 L 254.6,424.2 L 258.2,424.5 L 261.8,423.9 L 264.8,422.9 L 265.1,425.1 L 266.1,427.0 L 267.4,428.5 L 268.6,429.6 L 269.8,429.6 L 269.8,426.8 L 272.8,428.6 L 275.2,431.1 L 277.9,432.4 L 281.8,430.9 L 280.3,430.0 L 276.4,426.8 L 281.5,425.3 L 287.4,425.9 L 292.9,425.6 L 296.4,421.5 L 292.7,421.5 L 291.2,421.9 L 289.8,422.9 L 288.4,421.5 L 288.9,417.6 L 285.1,414.7 L 279.7,413.4 L 275.8,414.2 L 274.4,416.5 L 273.6,418.4 L 272.3,419.7 L 269.2,420.3 L 267.4,419.0 L 267.1,416.2 L 267.8,413.1 L 268.6,411.0 L 270.4,408.9 L 272.0,408.3 L 273.9,408.0 L 276.4,407.1 L 282.4,401.7 L 285.6,399.9 L 285.8,396.1 L 283.6,392.8 L 279.2,392.4 L 276.0,395.8 L 274.3,400.3 L 271.9,402.8 L 266.6,399.7 L 265.9,396.1 L 267.3,377.7 L 272.5,368.6 L 281.6,365.9 L 292.6,365.8 L 302.9,364.5 L 302.2,362.8 L 301.0,361.6 L 299.5,360.8 L 297.6,360.5 L 300.2,358.9 L 302.3,356.7 L 303.0,354.1 L 301.6,351.1 L 293.6,355.1 L 292.7,356.0 L 292.0,358.2 L 291.0,359.1 L 290.2,358.9 L 289.1,358.3 L 287.8,357.9 L 281.9,360.1 L 278.6,357.0 L 266.3,319.0 L 255.1,297.6 L 253.1,288.8 L 253.1,286.7 L 254.8,284.4 L 257.0,283.3 L 262.6,282.2 L 264.8,281.1 L 266.9,277.4 L 268.6,273.1 L 271.1,269.3 L 275.8,267.8 L 276.2,267.1 L 275.2,265.7 L 273.2,264.9 L 270.6,265.9 L 268.7,267.2 L 265.0,269.1 L 263.4,270.4 L 257.9,278.3 L 255.1,279.4 L 250.9,276.5 L 248.0,272.9 L 240.2,258.1 L 238.2,252.0 L 233.7,245.1 L 233.0,243.5 L 231.9,239.4 L 223.7,227.0 L 222.3,221.7 L 225.5,221.4 L 230.9,222.5 L 238.6,220.6 L 241.4,221.4 L 243.3,223.0 L 242.9,225.0 L 241.1,227.1 L 240.8,228.2 L 250.5,243.4 L 251.2,249.6 L 254.0,254.4 L 257.3,256.6 L 259.4,252.0 L 257.0,247.1 L 256.5,244.1 L 258.7,242.8 L 264.5,243.6 L 267.0,243.4 L 269.8,241.5 L 266.0,241.7 L 256.3,240.2 L 252.8,238.9 L 255.7,237.8 L 266.2,230.5 L 267.5,230.9 L 267.3,235.1 L 275.3,227.4 L 279.7,224.7 L 284.4,224.3 L 291.7,231.1 L 294.3,232.3 L 297.0,231.3 L 297.5,229.2 L 296.5,226.5 L 294.9,224.3 L 295.3,222.2 L 285.5,219.1 L 281.8,216.5 L 278.8,217.4 L 277.0,214.9 L 275.6,211.3 L 273.9,208.5 L 268.9,213.2 L 266.2,211.3 L 265.8,207.0 L 268.0,204.6 L 270.2,204.1 L 272.6,202.7 L 274.4,200.8 L 275.2,198.7 L 262.8,196.9 L 249.8,197.5 L 243.3,198.9 L 238.2,202.0 L 236.6,204.4 L 235.4,209.0 L 234.4,211.2 L 232.6,213.2 L 231.0,213.2 L 226.4,209.9 L 223.7,213.2 L 219.6,216.2 L 215.1,217.5 L 211.2,215.8 L 209.0,212.4 L 201.2,190.6 L 196.9,172.6 L 193.3,164.0 L 183.3,149.5 L 156.8,122.8 L 151.1,114.0 L 149.9,105.3 L 150.5,103.1 L 151.3,101.4 L 152.7,100.3 L 155.2,100.1 L 153.1,105.2 L 152.9,107.8 L 153.9,110.6 L 157.0,105.5 L 158.9,103.5 L 161.7,102.7 L 164.3,104.1 L 167.2,110.3 L 171.1,113.2 L 175.4,119.5 L 178.2,121.0 L 181.4,121.7 L 183.3,123.4 L 183.1,125.6 L 180.2,127.4 L 188.0,129.8 L 190.0,130.1 L 190.2,130.5 L 188.3,131.5 L 185.4,132.4 L 182.8,132.7 L 184.6,133.8 L 185.4,135.4 L 185.2,137.2 L 184.1,139.2 L 186.4,139.3 L 188.2,139.8 L 192.1,141.9 L 192.0,140.6 L 192.2,137.9 L 192.1,136.6 L 194.0,139.2 L 196.0,143.6 L 197.9,145.7 L 199.9,141.9 L 201.9,142.1 L 202.7,139.9 L 203.1,136.8 L 204.0,134.0 L 205.2,132.7 L 208.3,130.6 L 209.3,128.8 L 206.3,129.6 L 205.3,130.1 L 203.6,126.3 L 205.4,117.8 L 204.0,115.6 L 202.2,118.5 L 201.5,117.1 L 201.4,107.2 L 201.3,106.5 L 202.1,105.6 L 205.3,102.7 L 203.8,100.6 L 201.5,98.5 L 199.8,96.4 L 200.6,94.2 L 204.9,91.2 L 204.6,90.1 L 198.5,87.0 L 197.2,87.1 L 194.0,90.4 L 191.6,92.2 L 189.9,93.0 L 178.6,93.7 L 172.5,92.6 L 168.3,89.4 L 167.0,83.3 L 169.6,84.5 L 171.1,79.9 L 173.2,79.5 L 175.9,80.9 L 178.9,81.9 L 187.0,81.4 L 190.9,80.5 L 194.0,78.6 L 197.1,76.2 L 199.5,74.9 L 205.3,72.8 L 210.5,68.9 L 212.4,68.2 L 214.1,68.2 L 215.3,67.5 L 215.9,65.0 L 214.8,64.2 L 214.3,64.0 L 214.0,63.7 L 213.3,62.4 L 211.2,64.1 L 208.7,65.3 L 206.0,66.0 L 205.3,66.1 L 203.3,66.2 L 201.4,66.9 L 196.9,70.4 L 194.8,71.5 L 193.2,69.3 L 190.1,70.9 L 186.3,73.8 L 182.8,75.4 L 178.0,74.7 L 175.2,73.8 L 173.6,72.8 L 172.6,69.4 L 174.5,68.6 L 180.2,70.1 L 183.4,72.5 L 184.8,72.7 L 185.9,67.9 L 188.8,61.8 L 193.3,57.1 L 194.5,55.1 L 194.9,53.7 L 195.1,52.1 L 196.0,49.3 L 199.2,50.5 L 201.6,50.2 L 202.2,48.5 L 199.9,45.5 L 198.0,44.5 L 190.7,42.8 L 191.6,48.6 L 189.1,55.0 L 184.4,60.2 L 178.9,62.4 L 181.8,59.3 L 182.8,58.6 L 180.6,57.9 L 178.5,58.2 L 176.9,58.2 L 176.2,56.5 L 175.7,53.5 L 174.5,53.0 L 172.8,53.4 L 171.1,53.3 L 169.0,52.6 L 167.8,52.7 L 167.2,52.0 L 167.0,49.4 L 167.2,47.3 L 167.9,45.3 L 169.6,41.6 L 166.6,41.8 L 164.5,43.0 L 160.5,46.8 L 161.3,41.5 L 158.4,41.4 L 149.9,46.8 L 152.0,48.3 L 152.0,52.4 L 154.6,53.3 L 158.0,53.3 L 160.5,53.6 L 162.4,54.7 L 164.4,57.1 L 163.2,59.8 L 163.2,61.7 L 165.0,62.4 L 166.4,62.1 L 167.4,61.1 L 168.9,59.2 L 170.7,59.2 L 172.8,60.9 L 176.2,65.0 L 169.3,66.5 L 168.2,66.9 L 167.8,68.7 L 166.6,69.7 L 165.0,70.1 L 163.1,70.1 L 161.6,69.4 L 159.0,66.8 L 157.2,66.2 L 155.0,66.0 L 153.8,65.3 L 149.2,59.8 L 147.5,57.1 L 145.4,54.4 L 142.0,52.0 L 138.5,51.4 L 129.3,51.1 L 127.5,50.0 L 126.2,48.2 L 123.4,45.8 L 120.0,43.7 L 117.5,42.8 L 114.4,41.3 L 113.1,37.9 L 113.0,30.5 L 111.7,27.6 L 106.2,23.0 L 104.0,17.4 L 101.6,15.2 L 95.7,11.7 L 102.7,6.4 L 104.6,3.5 L 103.9,0.0 L 208.3,0.0 L 206.6,1.3 L 209.8,4.1 L 210.5,8.7 L 210.2,13.5 L 210.5,16.9 L 212.9,19.3 L 221.5,24.4 L 225.1,26.0 L 227.5,26.3 L 232.3,26.3 L 234.4,27.3 L 236.3,29.7 L 236.1,31.5 L 235.0,33.1 L 234.4,35.1 L 235.4,39.6 L 237.4,41.9 L 240.3,43.7 L 243.7,46.8 L 254.4,60.1 L 260.6,65.7 L 268.6,70.1 L 273.6,71.8 L 273.7,72.8 L 272.6,75.4 L 272.7,75.9 L 273.3,76.2 L 273.7,76.5 L 273.2,77.3 L 272.6,77.6 L 271.9,77.4 L 271.5,77.0 L 271.4,76.7 L 270.4,77.3 L 269.6,77.0 L 269.0,77.2 L 268.6,79.3 L 270.1,82.8 L 274.4,84.2 L 279.8,84.7 L 284.4,85.9 L 278.6,86.7 L 262.7,86.0 L 259.4,86.5 L 259.9,89.1 L 262.6,97.0 L 265.7,102.0 L 266.1,105.3 L 265.6,108.7 L 264.8,111.7 L 260.9,102.7 L 257.9,98.9 L 252.8,97.3 L 256.3,105.7 L 255.9,108.9 L 251.5,109.1 L 251.5,110.6 L 253.4,111.0 L 255.1,111.9 L 256.6,112.9 L 258.1,114.3 L 256.7,116.3 L 252.7,118.3 L 251.5,119.7 L 251.5,122.2 L 253.6,125.5 L 254.2,128.1 L 254.0,132.0 L 255.0,132.5 L 257.4,134.6 L 259.4,135.7 L 262.0,136.3 L 267.3,136.6 L 275.5,134.0 L 277.8,134.0 L 279.9,135.3 L 279.0,136.3 L 270.1,140.4 L 265.3,141.9 L 262.2,141.6 L 254.2,139.2 L 258.1,142.5 L 261.0,147.2 L 272.6,175.9 L 268.4,174.9 L 265.9,173.2 L 263.2,172.4 L 258.1,174.6 L 256.5,173.6 L 255.8,172.5 L 255.9,171.0 L 256.8,169.4 L 253.1,168.7 L 250.3,163.5 L 247.5,163.5 L 240.7,166.2 L 237.7,167.9 L 234.4,170.7 L 234.4,172.0 L 236.1,172.1 L 242.9,171.3 L 246.3,172.0 L 244.5,173.4 L 241.7,174.8 L 239.9,176.3 L 240.9,177.9 L 244.0,179.4 L 244.9,180.1 L 244.7,181.2 L 245.0,189.3 L 245.8,191.9 L 248.2,193.0 L 249.8,192.0 L 250.0,189.7 L 249.9,187.0 L 250.2,185.0 L 251.5,186.5 L 253.2,184.3 L 254.9,182.5 L 257.0,181.0 L 259.4,180.0 L 262.4,179.5 L 271.4,181.1 L 283.5,181.1 L 287.7,183.3 L 287.0,189.1 L 285.1,191.4 L 283.2,192.7 L 282.2,194.3 L 283.1,198.0 L 284.2,200.5 L 285.2,201.8 L 286.5,201.6 L 288.4,199.4 L 293.6,178.5 L 294.9,178.5 L 299.1,187.5 L 300.6,191.9 L 300.3,196.9 L 304.7,196.0 L 309.6,195.8 L 312.0,194.4 L 308.9,189.7 L 308.1,186.6 L 312.6,185.6 L 318.7,186.2 L 322.8,187.5 L 325.1,191.9 L 322.9,200.7 L 325.4,204.0 L 328.4,204.6 L 330.7,203.9 L 332.9,202.7 L 336.1,201.8 L 340.7,199.3 L 341.8,199.7 L 342.9,200.4 L 343.8,200.7 L 350.1,198.3 L 351.8,198.0 L 353.8,198.6 L 358.0,201.4 L 360.4,202.0 L 362.0,202.8 L 368.8,209.6 L 370.2,211.5 L 371.2,213.7 L 371.7,216.5 L 371.5,221.0 L 369.1,234.3 L 369.9,238.7 L 372.2,242.9 L 375.2,246.5 L 378.1,249.4 L 385.1,252.6 L 393.7,252.8 L 402.5,251.0 L 409.9,248.1 L 411.4,246.9 L 412.1,245.6 L 413.1,244.6 L 415.8,244.2 L 417.4,245.1 L 418.0,247.1 L 417.8,251.4 L 418.8,255.2 L 421.4,257.5 L 424.8,257.9 L 428.3,256.1 L 425.3,255.4 L 423.3,253.4 L 422.1,250.6 L 421.3,244.5 L 419.6,239.3 L 419.1,236.9 L 415.8,231.1 L 415.2,228.3 L 415.4,218.2 L 414.5,215.8 L 413.6,214.3 L 409.1,202.5 L 407.7,200.2 L 405.9,198.0 L 403.5,196.1 L 398.7,193.3 L 396.7,191.6 L 395.5,189.5 L 394.9,187.5 L 393.9,185.6 L 391.4,183.7 L 395.5,182.6 L 400.1,183.2 L 404.3,183.2 L 407.2,180.0 L 400.9,180.1 L 397.9,179.7 L 395.2,178.5 L 397.6,177.8 L 400.0,177.4 L 402.0,176.5 L 403.2,174.6 L 401.6,174.6 L 400.3,174.1 L 399.2,173.6 L 398.0,173.2 L 407.7,171.0 L 410.9,168.7 L 409.9,164.0 L 406.8,165.7 L 405.9,166.7 L 404.6,164.8 L 403.6,162.8 L 403.5,160.9 L 404.7,159.0 L 400.3,153.2 L 401.7,148.1 L 404.2,143.5 L 403.2,139.2 L 401.6,138.5 L 399.4,138.2 L 397.5,137.6 L 396.7,135.9 L 396.1,135.4 L 392.6,131.5 L 389.2,130.0 L 382.0,127.8 L 378.8,125.4 L 377.1,122.9 L 376.2,119.8 L 375.6,112.4 L 377.2,109.8 L 381.1,109.8 L 385.8,110.4 L 392.2,109.4 L 393.5,110.3 L 394.3,111.8 L 395.5,113.5 L 396.2,115.1 L 396.7,115.6 L 397.4,116.2 L 399.0,116.9 L 402.9,120.0 L 404.9,120.2 L 409.9,115.6 L 413.4,119.2 L 415.6,124.0 L 415.3,128.9 L 411.1,132.7 L 415.1,135.3 L 419.5,135.3 L 423.0,136.2 L 424.4,141.3 L 424.9,146.1 L 424.4,148.6 L 422.4,147.7 L 419.8,146.1 L 418.0,146.5 L 417.3,148.2 L 418.5,150.4 L 420.7,151.1 L 426.2,150.5 L 428.3,151.0 L 429.6,153.1 L 428.9,155.1 L 427.6,157.0 L 427.0,159.0 L 428.4,164.5 L 431.1,165.0 L 438.8,160.1 L 436.1,159.2 L 434.9,159.0 L 436.3,157.2 L 438.7,156.6 L 441.4,156.9 L 443.5,158.2 L 445.9,159.1 L 448.7,158.0 L 453.4,154.9 L 456.9,153.9 L 459.7,153.7 L 462.1,154.6 L 464.7,156.9 L 466.8,157.2 L 469.4,156.0 L 471.4,155.8 L 471.8,159.0 L 470.8,161.5 L 468.8,162.1 L 463.4,161.6 L 462.4,162.5 L 458.7,168.1 L 456.2,169.4 L 451.2,171.0 L 448.8,172.6 L 445.8,176.0 L 442.9,180.0 L 445.2,181.5 L 445.1,182.8 L 444.4,184.2 L 444.8,185.8 L 447.0,187.5 L 449.3,188.7 L 450.9,188.6 L 450.7,186.5 L 453.7,184.5 L 452.2,178.5 L 454.7,175.9 L 459.0,177.7 L 466.8,176.3 L 471.3,179.2 L 472.0,181.3 L 471.7,186.3 L 472.6,188.3 L 475.6,191.5 L 476.4,193.0 L 477.2,195.5 L 478.4,204.6 L 477.8,210.7 L 477.8,211.8 L 478.2,213.7 L 477.0,215.8 L 475.4,217.9 L 474.6,219.9 L 475.6,221.2 L 477.6,220.2 L 479.8,218.1 L 481.1,216.5 L 484.5,220.1 L 483.9,224.9 L 481.1,230.0 L 477.8,234.3 L 477.6,236.0 L 479.6,236.6 L 482.1,236.9 L 483.8,237.6 L 484.5,240.0 L 484.2,245.6 L 485.1,248.1 L 483.3,247.1 L 481.8,245.6 L 480.8,243.6 L 479.9,241.5 L 478.4,241.5 L 479.3,246.4 L 480.7,250.6 L 481.0,253.9 L 478.4,256.1 L 485.0,258.6 L 487.2,260.3 L 489.0,263.9 L 490.9,271.4 L 491.7,279.1 L 492.5,282.1 L 496.0,288.2 L 496.8,291.0 L 497.4,292.4 L 500.1,294.0 L 500.9,295.6 L 500.8,298.2 L 499.9,297.8 L 498.4,296.7 L 496.8,297.0 L 495.3,300.0 L 497.1,301.2 L 504.8,302.2 L 508.0,303.3 L 511.5,305.1 L 514.7,307.2 L 517.4,309.4 L 519.3,312.0 L 522.4,317.7 L 524.0,320.0 L 529.5,324.2 L 531.8,326.6 L 532.6,329.9 L 525.7,325.6 L 523.4,324.6 L 520.4,324.4 L 517.5,324.8 L 514.6,324.4 L 511.4,322.0 L 513.4,321.1 L 519.4,319.4 L 512.7,315.6 L 509.5,313.2 L 506.8,310.7 L 503.1,308.8 L 498.1,308.6 L 489.0,310.0 L 490.2,311.2 L 492.0,313.3 L 492.9,314.1 L 492.2,315.2 L 491.6,316.6 L 491.4,318.0 L 491.7,319.4 L 492.9,320.8 L 494.1,321.0 L 495.1,320.7 L 495.6,320.7 L 496.6,321.3 L 498.7,321.6 L 499.5,322.0 L 499.8,323.1 L 499.3,324.2 L 498.6,325.3 L 498.3,325.9 L 499.2,330.3 L 499.5,331.2 L 500.4,332.1 L 501.4,332.5 L 504.8,332.7 L 506.3,332.2 L 507.4,331.3 L 508.1,330.3 L 508.8,329.9 L 512.2,331.3 L 513.8,333.6 L 514.9,336.4 L 516.8,339.3 L 519.8,337.6 L 521.7,338.7 L 523.3,340.8 L 525.3,341.9 L 528.1,340.9 L 529.0,338.9 L 530.3,337.3 L 534.0,337.8 L 536.6,339.1 L 537.7,340.9 L 537.9,343.3 L 537.8,346.5 L 538.8,348.3 L 541.2,348.2 L 544.3,347.5 L 547.2,347.2 L 544.5,337.8 L 540.2,332.1 L 539.2,329.3 L 541.8,328.6 L 545.5,331.2 L 552.3,341.0 L 557.0,343.2 L 562.3,344.3 L 573.9,348.8 L 579.5,349.9 L 581.7,350.6 L 586.3,354.3 L 588.7,355.1 L 594.5,355.1 L 595.4,355.9 L 596.3,357.1 L 597.6,357.7 L 599.9,356.4 L 638.3,378.8 L 646.1,381.8 L 658.3,383.4 L 669.9,387.0 L 683.0,388.5 L 693.5,393.9 L 711.4,395.8 L 718.7,399.0 L 707.4,399.0 L 705.3,399.6 L 706.4,400.8 L 715.4,405.8 L 717.8,406.8 L 720.6,407.1 L 723.1,406.1 L 723.6,403.7 L 722.7,401.1 L 721.3,399.0 L 724.6,398.4 L 726.4,399.3 L 728.0,400.7 L 730.5,401.7 L 743.1,401.7 L 743.6,402.1 L 745.7,405.0 L 746.9,405.6 L 747.7,405.3 L 748.6,404.7 L 749.7,404.3 L 750.5,403.7 L 750.4,402.4 L 750.4,401.0 L 751.7,400.4 L 753.8,400.2 L 759.6,399.0 L 776.9,398.0 L 781.5,395.7 L 784.9,393.2 L 799.8,385.8 L 805.7,381.8 L 807.7,379.7 L 808.5,378.0 L 808.5,373.0 L 811.7,368.3 L 812.3,366.4 L 813.5,365.2 L 821.5,361.7 L 824.5,358.3 L 826.7,351.2 L 828.9,347.8 L 831.8,345.2 L 833.0,343.4 L 833.5,341.2 L 834.9,339.8 L 854.1,335.4 L 858.0,335.2 L 861.4,334.3 L 864.0,332.2 L 868.5,326.6 L 871.5,325.3 L 880.1,324.6 L 883.6,323.3 L 886.2,321.1 L 886.8,319.2 L 885.9,317.1 L 883.6,314.1 L 891.2,315.3 L 938.7,317.2 L 943.2,318.3 L 945.6,319.9 L 943.0,322.0 L 943.0,323.3 L 945.3,324.2 L 948.8,327.2 L 950.9,328.6 L 954.1,329.6 L 957.4,329.9 L 964.2,329.9 L 966.6,330.5 L 970.3,333.2 L 972.8,333.9 L 978.7,333.8 L 981.1,334.1 L 984.0,335.2 L 987.0,337.1 L 991.2,340.7 L 994.2,344.6 L 993.9,347.8 L 992.2,349.6 L 988.6,354.5 L 981.3,360.5 L 977.4,369.5 L 974.8,374.3 L 967.8,378.2 L 965.1,382.5 L 959.7,394.6 L 957.5,397.7 L 954.3,401.0 L 952.9,402.9 L 952.3,405.0 L 953.7,409.6 L 956.6,413.6 L 958.6,417.9 L 957.5,422.9 L 954.4,425.5 L 950.5,427.9 L 948.7,430.9 L 953.5,439.1 L 952.8,443.0 L 950.5,446.9 L 947.6,450.2 L 946.5,454.3 L 949.2,458.1 L 952.9,461.5 L 954.9,464.2 L 954.3,466.4 L 952.6,468.2 L 949.5,470.9 L 948.7,473.4 L 948.2,477.7 L 946.9,480.3 L 949.3,480.9 L 951.2,482.3 L 952.4,484.4 L 952.3,487.2 L 950.9,488.8 L 943.7,491.8 L 942.8,493.5 L 943.0,506.2 L 941.9,507.8 L 920.2,527.1 L 900.6,540.9 L 897.2,542.4 L 889.6,536.8 L 884.7,535.9 L 879.8,536.9 L 875.8,539.3 L 874.1,539.9 L 872.9,539.5 L 872.2,539.6 L 872.0,542.0 L 872.0,543.0 L 872.6,545.1 L 873.0,546.0 L 876.6,549.0 L 878.3,551.2 L 877.8,553.5 L 874.4,558.4 L 873.2,562.7 L 873.0,573.1 L 871.0,584.6 L 868.3,590.4 L 867.8,598.1 L 866.4,601.4 L 868.1,605.3 L 866.6,608.2 L 864.0,611.0 L 862.6,615.0 L 875.9,616.1 L 882.3,618.7 L 885.0,623.7 L 874.5,632.3 L 869.9,642.3 L 868.2,648.6 L 865.8,650.9 L 862.8,652.8 L 859.9,655.4 L 854.6,643.3 L 853.1,637.0 L 853.3,631.1 L 854.3,627.9 L 855.8,624.7 L 857.5,621.8 L 859.3,619.6 L 859.4,617.3 L 856.7,615.7 L 853.1,615.9 L 850.5,619.0 L 848.5,618.2 L 842.6,615.0 L 839.7,614.1 L 809.3,613.0 L 778.1,612.3 L 775.7,611.5 L 774.0,610.2 L 772.2,609.8 L 767.2,613.4 L 731.5,627.3 L 705.1,637.5 L 702.8,639.9 L 702.0,644.2 L 699.9,648.6 L 697.3,652.4 L 692.6,657.5 L 685.7,663.5 L 681.2,666.3 L 680.6,667.0 L 678.4,672.4 L 676.0,674.9 L 674.7,677.2 L 674.0,679.8 L 673.9,683.2 L 674.5,686.6 L 676.2,688.3 L 678.4,689.7 L 680.6,691.9 L 681.9,696.0 L 683.1,714.5 L 683.7,718.3 L 685.0,721.7 Z M 100.0,0.4 L 101.0,1.3 L 99.9,5.5 L 92.5,8.6 L 91.7,11.7 L 101.6,22.7 L 102.9,24.7 L 107.0,26.6 L 108.6,31.1 L 109.5,36.1 L 111.0,39.6 L 112.3,41.2 L 114.7,45.4 L 116.2,47.4 L 118.0,48.5 L 120.5,49.4 L 122.7,50.6 L 124.4,54.3 L 126.1,55.6 L 128.0,56.7 L 129.5,57.8 L 140.1,70.8 L 142.5,72.0 L 145.4,71.6 L 148.2,71.7 L 149.9,74.1 L 146.0,75.5 L 147.9,77.8 L 151.7,81.0 L 153.9,85.2 L 152.3,89.2 L 148.5,91.7 L 139.5,94.9 L 130.2,95.0 L 125.6,88.4 L 119.5,70.1 L 94.4,42.8 L 87.5,31.7 L 58.0,0.0 L 99.4,0.0 L 100.0,0.4 Z" stroke="white" stroke-width="3" fill="none" opacity="0.8"/>
</svg>