<svg xmlns="http://www.w3.org/2000/svg" viewBox="0 0 1000 1000" preserveAspectRatio="none">
  <path d="M 97.6,955.8 L 94.9,956.5 L 92.6,955.8 L 91.5,953.1 L 92.2,950.4 L 94.3,949.1 L 96.8,948.8 L 99.2,949.3 L 101.4,950.8 L 99.6,954.3 L 97.6,955.8 Z M 256.3,948.3 L 254.2,952.5 L 250.5,955.8 L 248.9,957.8 L 249.7,955.6 L 248.5,953.8 L 246.6,951.9 L 245.2,949.3 L 247.9,949.1 L 250.4,948.2 L 252.5,946.5 L 253.5,943.8 L 256.3,948.3 Z M 105.0,998.9 L 103.6,993.5 L 104.5,989.1 L 106.6,988.0 L 111.8,988.0 L 114.1,986.4 L 117.0,982.3 L 117.9,980.1 L 118.4,977.3 L 117.4,972.7 L 115.1,968.4 L 109.2,961.2 L 108.2,959.0 L 108.9,957.2 L 110.3,955.7 L 111.0,954.2 L 110.9,952.9 L 110.6,951.9 L 110.1,951.1 L 109.2,950.1 L 108.5,948.6 L 108.8,947.4 L 109.5,946.4 L 109.9,945.3 L 110.8,939.6 L 113.3,936.6 L 117.2,935.6 L 122.5,935.5 L 127.2,936.8 L 129.9,937.2 L 132.1,936.2 L 134.5,934.1 L 136.5,933.8 L 144.7,937.2 L 148.1,939.5 L 151.1,942.2 L 166.7,959.8 L 169.2,961.9 L 172.1,963.5 L 174.6,965.4 L 175.6,968.2 L 177.8,968.7 L 181.7,970.6 L 183.8,973.2 L 180.4,975.8 L 184.0,977.3 L 184.0,978.6 L 179.7,979.8 L 163.8,978.6 L 165.0,975.8 L 155.1,975.5 L 151.8,976.8 L 153.6,980.8 L 153.1,983.0 L 144.6,992.6 L 149.0,992.2 L 155.1,985.9 L 158.9,984.3 L 160.7,984.9 L 165.5,987.8 L 170.0,988.8 L 176.8,991.2 L 176.2,992.7 L 175.6,993.7 L 174.7,994.6 L 173.3,995.3 L 173.3,996.7 L 175.3,996.7 L 184.8,994.0 L 187.0,993.9 L 189.3,992.8 L 190.7,992.4 L 191.3,993.3 L 191.8,994.9 L 193.1,996.3 L 194.7,997.4 L 196.0,998.0 L 195.2,1000.0 L 195.2,1000.0 L 105.1,1000.0 L 105.0,998.9 Z M 981.7,267.1 L 980.4,271.7 L 979.8,276.5 L 979.4,286.7 L 978.3,287.8 L 977.1,290.5 L 977.6,294.6 L 980.7,306.5 L 985.7,317.8 L 985.4,320.9 L 983.2,318.7 L 981.1,318.4 L 980.3,319.6 L 981.7,322.3 L 984.4,323.9 L 995.1,326.3 L 990.1,328.1 L 978.6,328.7 L 973.4,330.1 L 968.7,333.5 L 970.7,335.0 L 975.6,335.6 L 979.4,336.6 L 983.1,332.8 L 989.6,331.5 L 995.8,331.6 L 998.6,332.0 L 999.4,334.9 L 1000.0,335.9 L 1000.0,382.5 L 996.4,379.1 L 992.4,380.1 L 990.3,378.8 L 986.6,374.8 L 979.8,369.2 L 979.7,366.6 L 983.0,363.0 L 980.0,363.2 L 975.2,365.0 L 960.9,366.7 L 956.0,368.8 L 945.9,369.6 L 930.5,374.0 L 923.5,374.9 L 922.0,374.2 L 922.6,372.1 L 924.4,370.7 L 926.5,369.8 L 931.2,369.2 L 957.5,362.0 L 960.2,361.7 L 962.8,361.1 L 961.5,359.6 L 956.6,357.0 L 954.5,356.6 L 948.9,357.3 L 945.9,356.3 L 944.7,355.2 L 942.6,352.5 L 941.2,351.2 L 936.5,349.4 L 932.0,350.0 L 927.4,351.5 L 922.5,352.4 L 919.6,354.4 L 917.9,359.2 L 917.2,364.8 L 917.1,369.6 L 917.6,372.4 L 917.9,373.5 L 917.5,374.5 L 915.4,376.8 L 913.5,377.6 L 898.9,379.4 L 896.9,379.1 L 893.3,380.1 L 890.1,382.9 L 882.1,385.2 L 878.5,387.7 L 860.3,394.6 L 826.6,414.3 L 821.3,415.0 L 818.5,414.5 L 815.8,414.8 L 813.6,415.9 L 800.6,423.2 L 794.1,424.4 L 791.4,425.2 L 789.3,426.8 L 787.4,428.6 L 785.5,430.0 L 780.5,431.2 L 775.9,433.9 L 774.0,434.6 L 771.0,435.3 L 767.9,438.4 L 766.1,439.9 L 765.0,441.5 L 760.4,442.8 L 758.3,444.2 L 747.6,453.4 L 743.4,455.4 L 739.9,454.3 L 737.4,455.7 L 735.3,456.9 L 733.8,459.1 L 733.2,461.0 L 723.7,475.0 L 723.1,477.2 L 723.1,488.3 L 722.1,492.0 L 719.8,494.8 L 714.7,499.7 L 714.3,501.5 L 714.3,503.7 L 713.7,505.6 L 711.7,506.4 L 710.2,506.7 L 705.2,509.2 L 709.0,513.0 L 710.0,519.7 L 710.0,534.5 L 712.0,543.9 L 712.2,547.2 L 711.3,550.9 L 709.2,552.4 L 706.9,553.5 L 705.2,555.8 L 710.2,556.5 L 711.9,561.3 L 711.7,567.7 L 710.3,579.3 L 708.5,583.3 L 706.4,586.1 L 704.9,588.7 L 703.3,591.6 L 702.5,594.6 L 690.7,612.4 L 671.4,628.4 L 661.9,644.8 L 657.7,658.9 L 655.4,663.0 L 653.3,668.1 L 655.7,670.5 L 658.7,672.8 L 658.4,677.3 L 651.9,683.5 L 650.3,686.2 L 650.3,688.3 L 650.9,690.5 L 651.4,693.0 L 648.9,696.6 L 644.1,699.3 L 640.5,702.4 L 641.7,707.2 L 639.6,709.6 L 637.5,710.8 L 635.1,710.6 L 632.2,708.7 L 632.4,710.9 L 633.0,712.9 L 634.6,716.7 L 631.6,718.9 L 629.4,719.7 L 623.1,719.6 L 619.6,720.6 L 619.7,722.6 L 622.2,724.5 L 626.2,725.0 L 622.1,732.2 L 620.7,733.3 L 618.7,733.7 L 616.5,734.9 L 613.0,737.4 L 611.5,737.8 L 610.4,737.5 L 609.5,737.6 L 609.3,739.3 L 609.3,741.2 L 609.4,742.3 L 610.2,742.7 L 611.8,742.8 L 614.4,743.6 L 616.7,744.8 L 619.0,745.1 L 621.3,742.8 L 624.5,745.0 L 629.1,746.9 L 632.6,749.0 L 632.7,751.6 L 629.6,753.5 L 621.1,754.9 L 617.6,756.4 L 614.3,760.7 L 613.0,762.0 L 611.4,762.4 L 609.4,762.8 L 607.7,763.5 L 605.5,768.6 L 599.0,772.1 L 597.3,775.5 L 600.6,774.1 L 606.9,772.7 L 612.2,769.0 L 620.1,766.6 L 622.5,764.7 L 625.2,760.1 L 627.3,757.8 L 629.7,756.5 L 631.9,756.0 L 633.9,755.1 L 635.7,752.3 L 637.5,754.8 L 638.2,757.9 L 637.6,768.8 L 636.1,771.5 L 633.5,772.5 L 629.8,772.7 L 626.2,772.5 L 625.5,772.8 L 623.7,774.0 L 622.8,775.3 L 622.8,776.7 L 622.4,777.8 L 586.2,780.8 L 571.3,784.9 L 558.3,792.5 L 548.2,804.3 L 545.4,809.0 L 544.8,811.3 L 544.3,817.3 L 542.7,821.0 L 542.3,822.8 L 541.1,827.1 L 537.9,830.9 L 534.0,833.9 L 530.3,835.9 L 521.1,839.0 L 516.7,841.2 L 512.9,844.9 L 509.9,848.5 L 506.6,851.6 L 482.4,865.5 L 476.4,872.2 L 474.0,882.8 L 474.4,888.1 L 473.6,890.2 L 468.7,891.7 L 464.6,894.5 L 463.2,895.2 L 460.2,894.7 L 454.3,892.8 L 451.3,892.4 L 448.3,892.7 L 443.3,894.5 L 440.5,895.2 L 443.2,896.1 L 457.3,896.7 L 453.8,903.6 L 448.3,906.6 L 442.0,908.6 L 436.2,912.6 L 433.7,912.4 L 429.2,910.9 L 424.3,909.9 L 420.7,911.2 L 418.4,912.9 L 409.2,917.4 L 410.2,918.3 L 411.9,920.7 L 412.9,921.6 L 408.2,922.8 L 402.3,921.4 L 396.9,921.1 L 393.7,925.8 L 390.0,923.5 L 388.9,923.0 L 382.9,922.2 L 379.8,922.4 L 377.5,923.6 L 373.9,926.8 L 371.8,928.0 L 369.7,928.6 L 363.6,929.3 L 361.3,928.9 L 359.0,927.1 L 359.6,923.0 L 359.2,920.7 L 358.9,920.6 L 356.7,920.1 L 355.1,921.6 L 355.3,926.1 L 353.1,927.5 L 352.7,928.5 L 352.3,929.5 L 351.2,930.0 L 345.9,930.0 L 342.8,929.1 L 341.0,927.2 L 339.8,925.3 L 338.6,924.3 L 336.3,924.5 L 336.3,926.3 L 336.8,928.8 L 336.2,931.3 L 331.5,933.5 L 325.6,932.3 L 319.6,929.9 L 314.7,928.6 L 309.0,928.7 L 305.8,928.3 L 303.8,925.9 L 299.4,913.2 L 299.1,911.2 L 298.1,908.9 L 295.7,908.9 L 290.6,910.4 L 272.6,913.3 L 266.7,913.2 L 268.1,911.1 L 270.2,910.4 L 272.6,910.1 L 275.0,909.1 L 271.5,907.4 L 267.1,906.6 L 258.4,906.3 L 259.8,909.2 L 262.1,911.0 L 263.1,912.5 L 260.8,914.6 L 261.5,915.2 L 262.6,916.7 L 263.2,917.4 L 253.8,919.9 L 223.7,917.4 L 225.9,913.9 L 226.9,912.9 L 228.3,912.0 L 230.8,911.3 L 237.1,911.4 L 239.2,912.0 L 241.0,914.3 L 246.1,915.1 L 249.2,913.9 L 245.2,910.4 L 240.1,908.8 L 224.9,909.1 L 217.8,905.5 L 214.3,904.9 L 212.8,908.4 L 213.9,912.5 L 219.3,918.0 L 221.3,921.6 L 216.5,921.0 L 210.2,914.7 L 206.2,913.2 L 205.6,912.4 L 205.3,910.4 L 204.2,908.5 L 199.6,907.3 L 198.3,906.2 L 197.6,904.4 L 197.2,902.1 L 202.6,900.7 L 204.5,900.8 L 206.3,901.3 L 206.6,901.9 L 206.6,902.7 L 207.5,904.2 L 208.6,902.8 L 217.7,896.7 L 219.4,891.3 L 218.1,884.7 L 214.9,880.0 L 210.5,880.0 L 211.9,885.1 L 210.1,889.8 L 206.7,892.7 L 203.2,892.4 L 201.1,889.6 L 197.5,881.3 L 188.2,867.4 L 185.3,864.9 L 180.3,863.8 L 163.2,866.2 L 160.7,867.3 L 160.6,869.7 L 161.2,872.0 L 160.8,873.1 L 158.2,872.5 L 155.1,871.3 L 152.2,870.5 L 150.0,871.2 L 144.7,870.5 L 141.3,870.6 L 139.8,872.5 L 138.9,874.6 L 136.8,875.2 L 134.7,874.9 L 132.9,874.4 L 130.4,873.3 L 129.1,873.1 L 127.9,873.6 L 125.2,875.5 L 124.2,875.9 L 122.2,875.2 L 120.5,873.8 L 118.9,871.9 L 116.9,871.1 L 115.4,869.3 L 112.9,865.6 L 111.2,864.2 L 107.1,862.3 L 105.0,860.9 L 107.4,859.7 L 109.8,858.9 L 111.9,857.7 L 113.6,855.2 L 104.6,845.7 L 100.3,839.9 L 100.2,835.9 L 97.6,834.1 L 90.5,833.5 L 87.0,832.6 L 78.8,828.2 L 76.2,827.7 L 56.2,825.9 L 54.8,826.3 L 53.7,827.7 L 53.6,831.0 L 52.9,832.6 L 50.9,835.7 L 50.2,838.5 L 49.8,841.1 L 48.8,844.1 L 46.6,846.6 L 43.9,847.2 L 38.0,846.9 L 35.1,847.6 L 29.8,850.3 L 27.2,851.1 L 23.7,850.8 L 16.6,848.6 L 12.8,848.4 L 9.9,849.0 L 8.5,849.6 L 7.4,850.4 L 6.2,851.0 L 5.2,850.2 L 4.4,849.0 L 3.8,848.4 L 1.8,848.0 L 0.0,847.3 L 0.0,678.3 L 1.3,679.5 L 2.5,684.2 L 5.6,690.9 L 6.4,690.4 L 6.8,689.6 L 8.1,690.4 L 10.4,691.4 L 11.6,692.4 L 10.6,685.9 L 1.6,676.4 L 0.0,675.2 L 0.0,655.7 L 7.2,654.0 L 10.4,654.2 L 12.2,655.8 L 15.2,660.6 L 17.7,662.4 L 20.9,663.3 L 24.5,663.4 L 27.7,662.3 L 29.6,659.7 L 26.8,658.9 L 20.7,659.2 L 18.2,657.8 L 16.5,655.7 L 16.0,654.8 L 16.4,651.0 L 17.4,648.9 L 18.9,648.0 L 18.8,647.7 L 12.3,647.8 L 5.6,650.3 L 1.2,651.3 L 0.0,651.4 L 0.0,633.4 L 2.8,634.2 L 5.5,634.2 L 6.8,632.8 L 5.9,631.6 L 0.0,627.6 L 0.0,606.3 L 0.2,606.4 L 6.8,615.2 L 7.2,618.1 L 6.9,620.7 L 7.2,622.9 L 9.2,624.6 L 10.1,621.9 L 9.6,618.0 L 10.4,616.4 L 13.0,615.5 L 23.6,616.4 L 21.0,614.0 L 11.1,611.0 L 7.4,609.1 L 4.4,605.9 L 2.4,602.6 L 2.1,599.4 L 4.4,596.3 L 8.7,595.0 L 13.2,596.1 L 17.8,598.0 L 22.4,599.0 L 26.1,600.5 L 30.4,603.5 L 34.3,605.2 L 36.8,603.0 L 33.5,602.2 L 12.4,592.5 L 10.4,590.8 L 11.2,588.0 L 14.1,585.3 L 22.9,579.3 L 25.7,578.1 L 29.0,577.6 L 33.2,577.4 L 32.2,576.5 L 30.5,574.3 L 29.6,573.4 L 43.1,566.9 L 48.8,566.6 L 51.2,572.7 L 51.8,573.6 L 53.0,574.7 L 54.2,576.1 L 54.8,578.0 L 54.3,579.9 L 52.6,583.7 L 52.4,585.5 L 53.8,588.2 L 55.9,590.2 L 57.2,592.6 L 56.0,596.3 L 62.5,596.8 L 65.5,596.4 L 65.0,594.3 L 64.2,593.2 L 63.6,591.8 L 63.3,590.3 L 63.1,588.8 L 62.6,587.7 L 59.0,584.8 L 58.5,582.8 L 58.9,580.0 L 59.0,576.9 L 57.8,574.0 L 56.5,572.0 L 54.0,565.6 L 53.5,563.3 L 55.6,556.5 L 60.8,552.2 L 67.1,551.5 L 72.7,555.8 L 73.9,558.5 L 73.4,559.8 L 72.0,561.2 L 70.4,564.0 L 69.5,567.6 L 70.0,570.5 L 71.8,572.8 L 74.9,574.7 L 75.3,570.3 L 76.8,567.4 L 78.6,564.8 L 80.0,561.3 L 79.6,557.3 L 75.0,553.2 L 73.9,549.8 L 72.0,547.3 L 71.6,545.8 L 74.9,544.4 L 76.7,543.0 L 78.5,542.2 L 80.5,543.3 L 83.8,547.0 L 86.6,549.3 L 89.9,550.8 L 94.4,551.8 L 91.4,550.5 L 84.8,543.9 L 80.4,540.6 L 79.6,538.6 L 81.0,535.8 L 83.8,534.0 L 93.1,531.8 L 94.3,530.6 L 95.7,527.9 L 96.7,526.6 L 97.8,526.0 L 100.8,525.3 L 102.0,524.5 L 107.1,520.1 L 112.2,518.4 L 117.3,519.4 L 125.1,525.0 L 131.0,527.8 L 133.3,529.8 L 138.6,538.5 L 139.9,536.2 L 140.3,533.3 L 139.8,530.3 L 138.6,527.8 L 137.7,527.0 L 133.7,525.1 L 129.1,521.1 L 128.0,520.4 L 127.2,520.3 L 126.3,519.9 L 125.4,518.5 L 125.1,517.0 L 125.4,511.8 L 124.3,506.1 L 123.2,503.3 L 121.8,501.0 L 126.0,496.2 L 140.4,483.0 L 145.5,479.4 L 151.8,475.9 L 156.2,471.4 L 155.3,465.1 L 171.1,465.1 L 172.7,464.3 L 174.8,460.9 L 174.9,458.0 L 174.3,457.4 L 172.8,455.7 L 168.5,454.3 L 168.5,453.0 L 176.7,450.8 L 180.0,449.1 L 186.3,443.1 L 197.2,437.2 L 204.1,431.8 L 209.9,425.9 L 210.1,424.7 L 210.2,422.6 L 210.8,420.2 L 212.2,417.9 L 214.0,416.4 L 215.9,415.0 L 218.0,414.0 L 220.0,413.3 L 218.8,412.8 L 215.2,410.5 L 218.7,409.1 L 222.1,408.4 L 233.0,407.8 L 239.4,406.6 L 245.3,404.2 L 248.9,402.1 L 250.6,400.7 L 253.0,399.6 L 257.5,400.0 L 259.0,399.4 L 263.3,396.1 L 266.3,397.4 L 269.0,400.9 L 272.6,404.0 L 280.9,405.0 L 290.9,402.4 L 300.4,397.7 L 311.0,389.2 L 319.1,384.8 L 322.4,382.1 L 325.5,380.3 L 336.6,375.5 L 339.4,373.4 L 340.3,371.7 L 340.4,369.8 L 341.1,368.3 L 342.4,367.2 L 347.2,364.8 L 348.9,364.3 L 352.2,362.9 L 358.8,356.4 L 362.0,355.0 L 365.4,354.0 L 378.1,347.1 L 386.9,344.8 L 391.7,342.7 L 393.7,339.9 L 394.5,338.4 L 396.4,336.9 L 398.6,335.7 L 400.3,335.2 L 405.0,334.8 L 406.5,335.1 L 408.0,335.3 L 409.5,335.0 L 411.6,333.9 L 414.2,331.8 L 421.2,330.2 L 427.2,326.5 L 434.2,327.8 L 438.1,327.4 L 447.1,321.7 L 450.7,320.9 L 453.4,319.4 L 459.4,312.2 L 462.0,309.7 L 463.0,307.6 L 463.1,305.2 L 466.7,301.9 L 471.2,301.2 L 473.1,299.4 L 473.4,296.8 L 474.5,292.6 L 478.2,289.1 L 482.0,286.6 L 505.3,277.3 L 507.5,274.2 L 509.0,269.2 L 512.8,268.1 L 515.4,266.2 L 517.0,263.2 L 518.4,260.5 L 520.1,259.3 L 524.3,257.8 L 528.8,255.2 L 531.2,254.3 L 533.9,253.9 L 535.9,254.4 L 539.7,256.2 L 541.7,256.7 L 553.1,242.2 L 547.5,241.4 L 543.1,245.3 L 539.2,250.2 L 535.1,252.6 L 538.4,244.3 L 544.3,238.7 L 548.9,236.0 L 550.6,233.1 L 550.6,231.7 L 563.5,231.0 L 567.3,229.5 L 568.7,228.3 L 567.3,226.5 L 570.4,224.6 L 572.8,221.8 L 575.5,220.1 L 579.3,221.4 L 579.9,218.2 L 581.8,217.5 L 582.9,216.1 L 589.9,212.6 L 605.5,208.1 L 612.3,203.8 L 617.9,203.1 L 620.6,203.0 L 622.5,202.7 L 624.0,201.3 L 626.2,199.2 L 628.2,198.0 L 634.6,195.4 L 637.6,192.6 L 643.9,185.2 L 647.1,183.7 L 650.0,181.6 L 665.0,160.9 L 667.2,159.0 L 668.9,158.5 L 672.5,157.3 L 675.6,155.6 L 677.0,153.2 L 679.5,149.6 L 681.2,148.0 L 683.0,147.3 L 685.8,145.8 L 688.7,142.3 L 693.1,135.7 L 696.3,134.2 L 708.8,113.7 L 712.4,110.2 L 714.2,107.4 L 714.7,101.5 L 715.8,97.1 L 724.4,86.6 L 728.1,78.1 L 732.7,50.4 L 735.9,43.5 L 736.6,39.3 L 738.4,34.7 L 739.3,33.2 L 745.3,27.4 L 747.8,24.0 L 749.6,19.8 L 752.5,8.0 L 755.0,4.4 L 756.2,0.0 L 1000.0,0.0 L 1000.0,238.5 L 991.4,243.5 L 988.9,247.3 L 984.9,255.2 L 980.8,260.4 L 979.9,261.9 L 980.4,264.6 L 981.7,267.1 Z" stroke="white" stroke-width="3" fill="none" opacity="0.8"/>
</svg>