<svg xmlns="http://www.w3.org/2000/svg" viewBox="0 0 1000 1000" preserveAspectRatio="none">
  <path d="M 216.2,988.8 L 216.7,990.2 L 216.4,992.3 L 217.1,994.8 L 215.8,997.2 L 215.3,1000.0 L 209.7,1000.0 L 211.2,998.3 L 211.0,994.9 L 208.8,995.9 L 206.6,995.7 L 204.8,994.5 L 203.6,992.4 L 206.8,992.2 L 209.1,990.8 L 211.0,989.3 L 213.3,988.5 L 216.2,988.8 Z M 108.7,952.0 L 109.7,950.6 L 109.8,948.7 L 108.8,946.6 L 107.0,948.5 L 106.5,949.2 L 105.4,947.1 L 105.0,944.7 L 105.3,942.4 L 106.2,940.3 L 109.0,942.3 L 111.1,944.4 L 113.6,946.1 L 117.3,946.5 L 117.3,945.3 L 115.1,943.8 L 113.1,941.9 L 111.6,939.5 L 111.0,936.5 L 111.3,933.7 L 113.4,926.6 L 114.3,924.9 L 115.3,925.2 L 115.5,926.7 L 116.1,928.2 L 118.0,928.6 L 118.6,926.0 L 119.5,924.2 L 121.0,923.4 L 123.6,924.5 L 123.8,927.2 L 123.4,930.6 L 124.4,933.7 L 125.7,931.9 L 131.2,930.3 L 133.9,928.3 L 127.9,928.4 L 131.8,925.5 L 133.4,924.0 L 135.0,921.9 L 136.7,916.5 L 137.6,915.4 L 138.5,918.1 L 138.5,920.8 L 138.0,923.4 L 136.4,928.2 L 137.5,930.1 L 137.9,931.4 L 137.1,931.9 L 136.1,932.4 L 133.6,935.0 L 132.8,936.1 L 132.3,938.0 L 131.8,942.8 L 130.8,945.0 L 130.0,945.2 L 126.5,945.1 L 125.4,945.6 L 123.4,948.0 L 122.4,948.9 L 118.1,950.2 L 116.8,950.8 L 116.1,952.1 L 115.6,953.4 L 115.1,954.2 L 112.9,955.6 L 110.4,956.5 L 107.8,956.7 L 105.5,955.7 L 106.2,955.1 L 106.4,954.4 L 106.4,953.8 L 106.6,953.0 L 108.7,952.0 Z M 44.8,1000.0 L 46.7,997.2 L 48.5,996.5 L 49.6,997.1 L 49.7,998.6 L 49.4,1000.0 L 44.7,1000.0 L 44.8,1000.0 Z M 54.7,999.5 L 57.6,997.8 L 60.0,995.7 L 62.7,991.1 L 64.1,989.9 L 65.6,989.7 L 67.2,990.5 L 68.7,990.5 L 70.1,988.4 L 68.2,986.4 L 69.7,983.8 L 72.8,981.6 L 75.3,980.6 L 78.5,981.4 L 81.3,983.8 L 83.2,987.1 L 83.6,990.7 L 84.8,990.7 L 85.6,988.9 L 86.5,988.3 L 87.4,988.8 L 88.3,990.6 L 90.8,989.3 L 88.2,984.9 L 90.6,982.8 L 95.3,981.4 L 99.5,979.5 L 100.8,977.4 L 100.6,975.5 L 99.1,974.2 L 96.9,973.7 L 90.2,977.7 L 89.1,977.1 L 89.0,974.6 L 89.1,973.6 L 91.9,970.6 L 93.4,969.5 L 97.4,967.8 L 99.1,966.7 L 101.0,965.9 L 110.0,964.5 L 110.9,963.7 L 114.7,958.7 L 119.0,956.3 L 118.6,964.9 L 122.8,965.6 L 123.5,964.9 L 128.8,960.4 L 129.2,959.4 L 129.6,957.0 L 129.8,956.4 L 130.7,955.9 L 133.3,955.2 L 141.9,951.2 L 143.4,951.0 L 145.5,951.0 L 147.7,951.3 L 149.2,952.2 L 151.2,957.1 L 148.2,957.9 L 139.6,956.2 L 140.8,958.7 L 139.8,960.0 L 138.1,961.4 L 137.3,964.0 L 135.3,963.5 L 133.4,963.4 L 131.7,964.1 L 130.0,965.4 L 131.1,966.5 L 131.5,967.3 L 132.1,967.7 L 133.7,968.0 L 130.8,970.3 L 125.1,971.9 L 119.5,972.1 L 116.9,970.2 L 114.2,969.9 L 109.1,970.6 L 106.5,972.5 L 110.9,976.1 L 108.5,977.5 L 106.8,979.1 L 106.9,980.4 L 109.9,981.3 L 109.4,983.7 L 108.3,985.8 L 106.8,987.6 L 105.2,989.0 L 106.7,990.5 L 108.8,990.9 L 110.6,989.9 L 111.3,986.9 L 115.2,982.0 L 115.3,981.2 L 127.0,979.2 L 133.2,978.9 L 137.8,980.7 L 135.9,980.5 L 134.3,981.0 L 133.4,982.1 L 133.1,983.9 L 132.5,985.7 L 131.1,985.6 L 129.4,984.9 L 128.1,984.7 L 127.2,984.5 L 126.0,983.9 L 124.9,983.8 L 124.5,985.4 L 124.8,986.1 L 125.7,987.2 L 125.9,988.0 L 125.7,989.8 L 124.9,990.6 L 123.7,990.6 L 122.3,989.9 L 121.1,994.3 L 118.6,995.6 L 115.8,996.4 L 114.1,999.2 L 116.8,999.1 L 119.6,1000.0 L 53.2,1000.0 L 54.7,999.5 Z M 127.1,997.1 L 128.9,995.3 L 131.1,994.0 L 133.3,992.4 L 133.6,991.2 L 133.2,989.9 L 133.1,988.9 L 134.4,988.5 L 136.0,988.3 L 136.8,987.7 L 137.0,986.5 L 136.7,984.6 L 142.9,985.6 L 141.1,988.6 L 140.7,991.5 L 141.9,997.2 L 144.9,992.7 L 146.3,989.1 L 148.6,987.0 L 153.9,986.9 L 150.8,983.2 L 150.0,981.4 L 152.9,977.6 L 152.9,974.8 L 151.4,972.8 L 148.5,972.8 L 147.4,974.6 L 146.7,977.5 L 145.7,979.5 L 143.3,978.7 L 137.7,974.0 L 136.4,971.8 L 142.5,971.7 L 141.0,969.3 L 140.7,967.5 L 141.9,966.7 L 144.7,967.8 L 144.9,963.8 L 148.0,964.8 L 154.6,970.1 L 158.4,972.1 L 162.2,972.9 L 165.5,972.0 L 168.1,968.6 L 171.2,971.0 L 174.1,969.9 L 175.7,966.9 L 175.0,963.4 L 177.7,964.1 L 180.5,966.2 L 182.8,969.0 L 183.8,971.6 L 183.9,973.8 L 183.7,975.2 L 182.8,975.9 L 179.0,976.4 L 178.2,977.2 L 178.3,978.4 L 179.2,980.1 L 182.4,982.2 L 185.8,981.2 L 188.7,978.7 L 192.4,974.8 L 199.4,968.9 L 201.9,968.1 L 203.3,970.5 L 202.0,973.7 L 193.1,985.5 L 192.2,987.4 L 192.1,991.0 L 191.5,992.6 L 191.0,992.2 L 188.5,993.3 L 186.4,994.8 L 186.8,995.2 L 186.1,995.7 L 184.5,996.5 L 182.8,996.5 L 181.9,994.7 L 181.8,987.0 L 181.2,986.2 L 180.0,987.5 L 178.8,989.8 L 178.2,991.7 L 175.6,990.8 L 175.5,992.4 L 176.9,994.8 L 178.4,996.6 L 182.2,999.8 L 182.3,1000.0 L 126.3,1000.0 L 127.1,997.1 Z M 347.7,170.6 L 348.7,171.1 L 350.7,173.1 L 352.4,175.6 L 350.9,176.6 L 348.2,177.2 L 346.2,178.8 L 346.0,180.7 L 347.5,184.4 L 347.7,186.2 L 347.2,187.6 L 346.4,188.1 L 343.9,187.9 L 342.5,187.9 L 338.7,189.0 L 334.8,189.5 L 330.7,189.0 L 323.1,186.8 L 324.5,185.3 L 320.3,182.3 L 318.3,182.0 L 316.0,183.6 L 314.2,184.2 L 313.4,182.0 L 313.8,178.8 L 315.3,176.5 L 316.8,176.7 L 326.3,176.4 L 328.3,177.4 L 329.9,179.3 L 331.9,180.2 L 335.3,178.3 L 343.6,172.5 L 347.7,170.6 Z M 470.1,150.7 L 468.9,150.9 L 467.7,151.0 L 466.5,151.0 L 465.7,150.9 L 464.1,150.6 L 461.8,149.7 L 461.3,149.0 L 461.6,148.3 L 462.1,147.5 L 462.4,147.0 L 462.6,146.4 L 462.5,145.8 L 462.1,145.1 L 460.9,144.3 L 459.4,144.0 L 457.9,143.3 L 457.0,141.3 L 462.1,140.0 L 463.4,141.5 L 465.4,146.3 L 467.5,146.6 L 469.1,147.2 L 470.4,148.4 L 471.3,150.3 L 470.1,150.7 Z M 285.7,106.5 L 288.7,107.4 L 291.2,109.6 L 292.3,112.1 L 293.7,116.6 L 293.3,118.4 L 290.5,119.2 L 283.8,119.1 L 281.9,118.4 L 284.6,116.7 L 284.7,114.6 L 282.8,110.0 L 283.2,107.8 L 285.7,106.5 Z M 336.7,68.3 L 338.4,69.8 L 339.8,71.7 L 339.9,74.1 L 338.2,75.6 L 335.3,76.5 L 332.1,76.9 L 329.5,76.8 L 325.8,72.7 L 328.5,69.1 L 333.3,67.0 L 335.9,67.1 L 336.7,68.3 Z M 416.3,90.6 L 417.8,91.6 L 414.2,97.9 L 412.4,99.3 L 409.7,99.5 L 408.3,98.1 L 407.6,95.9 L 407.5,93.5 L 406.4,91.5 L 403.9,92.2 L 401.1,93.5 L 399.1,93.6 L 398.1,91.6 L 397.6,86.9 L 397.0,85.3 L 395.5,84.4 L 393.9,84.4 L 389.3,85.3 L 390.0,83.7 L 389.9,82.5 L 389.2,81.5 L 387.9,80.1 L 383.5,81.3 L 378.1,79.5 L 373.8,75.7 L 372.4,71.3 L 377.4,76.0 L 378.8,76.5 L 380.6,74.9 L 380.5,72.6 L 380.1,70.1 L 380.7,68.1 L 382.3,64.8 L 379.7,63.2 L 375.8,61.7 L 373.6,58.5 L 379.3,58.6 L 381.7,57.8 L 383.8,55.9 L 380.0,52.9 L 379.3,49.1 L 381.4,46.2 L 386.3,45.6 L 388.2,46.2 L 389.9,47.3 L 391.2,49.0 L 391.7,51.4 L 392.5,52.5 L 398.2,55.9 L 394.5,57.3 L 394.9,59.5 L 397.6,61.7 L 402.6,64.1 L 407.5,65.7 L 409.3,66.0 L 411.0,66.7 L 410.1,68.4 L 408.3,70.3 L 407.4,71.8 L 406.7,74.6 L 405.7,76.7 L 405.6,78.9 L 408.1,82.0 L 408.9,82.7 L 409.9,83.3 L 411.0,83.7 L 412.0,83.8 L 412.7,84.1 L 412.7,84.9 L 412.5,85.8 L 412.6,86.5 L 416.3,90.6 Z M 673.7,710.5 L 674.9,710.5 L 676.0,711.6 L 678.9,712.8 L 683.6,715.7 L 684.8,716.7 L 687.2,718.0 L 690.3,718.1 L 696.5,717.5 L 702.2,718.7 L 701.5,721.3 L 698.3,725.0 L 696.3,729.5 L 695.5,731.0 L 693.5,732.4 L 691.2,733.5 L 687.1,734.7 L 685.6,736.8 L 681.4,749.2 L 681.4,749.9 L 681.6,750.8 L 681.6,751.9 L 681.3,753.2 L 680.6,753.5 L 677.8,754.5 L 676.8,755.0 L 674.4,758.6 L 668.2,775.0 L 664.2,782.5 L 661.7,785.6 L 660.9,787.3 L 660.7,789.8 L 661.0,794.5 L 660.9,795.8 L 660.5,796.6 L 658.2,799.5 L 657.6,800.3 L 654.7,806.7 L 650.2,813.6 L 642.9,822.0 L 635.0,827.7 L 633.5,828.2 L 631.8,827.5 L 630.3,826.1 L 628.7,825.2 L 626.7,826.3 L 622.2,831.5 L 620.6,834.6 L 619.9,838.3 L 621.1,836.7 L 622.5,835.4 L 624.2,834.6 L 626.0,834.4 L 614.4,853.1 L 612.3,866.4 L 609.2,870.6 L 604.9,870.8 L 600.4,869.9 L 596.9,870.8 L 586.4,884.3 L 575.8,892.7 L 574.2,895.1 L 573.9,897.0 L 573.2,899.2 L 572.2,901.2 L 568.6,906.6 L 567.4,907.2 L 564.5,907.5 L 563.2,908.3 L 562.0,910.0 L 555.1,924.0 L 551.0,929.3 L 544.7,941.7 L 541.8,950.6 L 539.1,954.1 L 530.3,957.1 L 526.6,960.4 L 523.5,964.7 L 521.5,968.6 L 515.8,985.6 L 512.1,992.7 L 505.5,1000.0 L 276.4,1000.0 L 279.8,997.4 L 284.0,989.4 L 286.7,987.6 L 290.5,986.2 L 292.8,984.0 L 294.6,983.9 L 297.0,988.7 L 299.2,987.0 L 300.1,985.4 L 300.0,983.4 L 299.3,981.0 L 298.3,980.5 L 296.1,978.2 L 294.8,975.8 L 296.2,974.6 L 298.2,973.8 L 301.2,970.4 L 303.3,969.5 L 305.4,969.0 L 307.6,967.7 L 309.6,966.0 L 311.1,964.3 L 312.4,961.9 L 312.9,960.1 L 313.4,955.4 L 317.1,946.9 L 318.6,944.0 L 329.0,934.8 L 338.8,921.3 L 347.0,906.3 L 351.7,893.6 L 353.6,890.3 L 355.0,886.6 L 355.6,876.0 L 356.5,871.7 L 356.6,870.8 L 356.4,869.5 L 356.4,868.5 L 357.0,868.0 L 358.3,868.0 L 360.0,867.7 L 361.1,867.1 L 359.9,864.2 L 359.3,861.4 L 359.1,858.6 L 359.4,857.0 L 360.9,853.8 L 363.0,843.0 L 363.6,835.6 L 363.3,833.7 L 362.3,832.1 L 359.4,827.7 L 357.0,815.5 L 353.5,805.5 L 351.0,800.6 L 348.2,796.4 L 334.4,785.1 L 330.7,779.9 L 314.0,765.1 L 301.4,758.9 L 291.3,755.2 L 286.6,754.6 L 278.7,754.8 L 272.0,754.9 L 257.4,750.7 L 246.4,750.0 L 241.7,749.1 L 237.4,746.9 L 217.9,732.7 L 214.3,729.3 L 203.5,716.1 L 196.0,710.0 L 186.9,706.1 L 177.0,703.7 L 146.1,700.3 L 135.5,697.6 L 110.6,683.5 L 103.8,677.9 L 98.1,670.5 L 94.4,661.9 L 93.0,653.5 L 93.7,644.9 L 95.8,635.9 L 100.9,627.5 L 109.1,622.0 L 127.6,614.9 L 173.7,590.8 L 177.6,589.8 L 202.0,590.8 L 210.7,588.4 L 218.7,583.4 L 240.2,564.9 L 242.9,561.0 L 244.2,554.2 L 245.9,549.7 L 246.2,547.3 L 246.1,541.5 L 246.8,540.2 L 247.1,539.6 L 249.9,538.9 L 248.7,535.6 L 249.1,532.8 L 250.2,530.0 L 250.8,526.7 L 250.7,494.5 L 252.1,487.5 L 258.4,475.7 L 260.6,469.1 L 261.9,461.9 L 262.6,450.9 L 264.3,444.2 L 264.5,440.3 L 263.5,437.0 L 261.9,433.6 L 260.9,430.4 L 261.7,427.6 L 264.6,428.8 L 268.1,429.1 L 271.5,428.5 L 274.5,427.5 L 274.7,429.6 L 275.7,431.3 L 277.0,432.8 L 278.2,433.8 L 279.4,433.8 L 279.3,431.1 L 282.2,432.8 L 284.5,435.2 L 287.1,436.5 L 290.8,434.9 L 289.4,434.1 L 285.6,431.1 L 290.5,429.6 L 296.2,430.1 L 301.4,429.8 L 304.7,425.8 L 301.2,425.8 L 299.8,426.2 L 298.4,427.2 L 297.0,425.9 L 297.5,422.2 L 293.8,419.4 L 288.6,418.2 L 284.8,419.0 L 283.5,421.2 L 282.8,423.0 L 281.6,424.4 L 278.7,424.9 L 276.8,423.7 L 276.6,421.0 L 277.1,418.0 L 277.9,416.0 L 279.6,414.0 L 281.1,413.3 L 283.0,413.1 L 285.3,412.2 L 291.1,406.9 L 294.1,405.2 L 294.2,401.6 L 292.0,398.4 L 287.8,398.1 L 284.7,401.3 L 283.2,405.7 L 281.0,408.1 L 275.8,405.2 L 275.1,401.7 L 276.1,384.0 L 281.0,375.2 L 289.8,372.5 L 300.3,372.4 L 310.2,371.0 L 309.5,369.4 L 308.3,368.2 L 306.8,367.5 L 305.0,367.2 L 307.6,365.6 L 309.5,363.5 L 310.1,360.9 L 308.8,358.1 L 301.1,362.0 L 300.3,362.9 L 299.6,365.0 L 298.7,365.9 L 297.9,365.7 L 296.8,365.1 L 295.5,364.8 L 289.9,366.9 L 286.7,364.0 L 274.2,327.4 L 263.1,306.9 L 260.9,298.4 L 260.9,296.4 L 262.6,294.1 L 264.7,293.0 L 270.1,291.9 L 272.2,290.8 L 274.2,287.2 L 275.7,283.0 L 278.1,279.3 L 282.6,277.8 L 283.0,277.1 L 282.1,275.7 L 280.1,275.0 L 277.5,276.1 L 275.7,277.3 L 272.1,279.2 L 270.6,280.5 L 265.4,288.1 L 262.8,289.2 L 258.6,286.4 L 255.8,283.0 L 248.0,268.8 L 245.9,262.9 L 241.4,256.3 L 240.7,254.6 L 239.5,250.7 L 231.3,238.8 L 229.9,233.6 L 233.0,233.3 L 238.3,234.3 L 245.7,232.3 L 248.5,233.1 L 250.4,234.6 L 250.0,236.6 L 248.2,238.6 L 248.0,239.7 L 257.6,254.4 L 258.5,260.4 L 261.3,265.1 L 264.5,267.1 L 266.5,262.7 L 264.1,257.9 L 263.5,255.0 L 265.7,253.7 L 271.2,254.4 L 273.7,254.2 L 276.4,252.4 L 272.7,252.5 L 263.2,251.2 L 259.9,250.0 L 262.7,248.9 L 272.7,241.7 L 274.0,242.1 L 273.9,246.2 L 281.5,238.6 L 285.7,235.9 L 290.3,235.5 L 297.5,242.0 L 300.0,243.1 L 302.6,242.2 L 303.1,240.1 L 302.2,237.5 L 300.6,235.4 L 300.9,233.3 L 291.3,230.4 L 287.6,227.9 L 284.7,228.8 L 283.0,226.4 L 281.6,222.9 L 279.8,220.2 L 275.1,224.8 L 272.4,223.0 L 271.9,218.8 L 274.0,216.5 L 276.2,216.0 L 278.5,214.6 L 280.3,212.7 L 281.0,210.6 L 268.9,209.0 L 256.2,209.7 L 249.9,211.2 L 245.0,214.3 L 243.5,216.6 L 242.4,221.1 L 241.5,223.2 L 239.7,225.2 L 238.2,225.3 L 233.7,222.1 L 231.1,225.4 L 227.2,228.3 L 222.8,229.6 L 218.9,228.0 L 216.7,224.8 L 208.7,203.6 L 204.2,186.1 L 200.5,177.8 L 190.4,163.7 L 163.8,137.9 L 158.0,129.4 L 156.7,120.9 L 157.1,118.7 L 157.9,117.1 L 159.3,116.0 L 161.7,115.7 L 159.8,120.8 L 159.6,123.4 L 160.7,126.0 L 163.6,121.0 L 165.4,119.0 L 168.1,118.2 L 170.8,119.5 L 173.8,125.6 L 177.6,128.4 L 182.0,134.5 L 184.7,135.9 L 187.9,136.5 L 189.8,138.2 L 189.7,140.3 L 186.8,142.2 L 194.5,144.4 L 196.5,144.6 L 196.7,145.0 L 194.9,146.0 L 192.1,146.9 L 189.5,147.3 L 191.3,148.4 L 192.1,149.9 L 191.9,151.6 L 190.9,153.6 L 193.2,153.7 L 195.0,154.2 L 198.8,156.2 L 198.7,154.9 L 198.8,152.2 L 198.7,151.0 L 200.6,153.5 L 202.6,157.8 L 204.6,159.8 L 206.4,156.1 L 208.4,156.2 L 209.2,154.1 L 209.5,151.0 L 210.3,148.2 L 211.5,147.0 L 214.4,144.9 L 215.4,143.1 L 212.5,144.0 L 211.5,144.4 L 209.8,140.8 L 211.4,132.4 L 209.9,130.3 L 208.2,133.1 L 207.4,131.7 L 207.2,122.0 L 207.1,121.4 L 207.8,120.4 L 210.9,117.6 L 209.4,115.5 L 207.1,113.5 L 205.4,111.5 L 206.2,109.3 L 210.3,106.3 L 209.9,105.2 L 203.9,102.3 L 202.7,102.4 L 199.6,105.7 L 197.3,107.5 L 195.6,108.3 L 184.5,109.1 L 178.5,108.1 L 174.3,105.0 L 172.9,99.1 L 175.5,100.2 L 176.9,95.7 L 178.9,95.3 L 181.5,96.6 L 184.5,97.5 L 192.5,97.0 L 196.3,96.0 L 199.4,94.1 L 202.3,91.6 L 204.7,90.3 L 210.3,88.2 L 215.4,84.3 L 217.2,83.7 L 218.8,83.6 L 220.0,82.9 L 220.6,80.5 L 219.5,79.6 L 219.0,79.5 L 218.7,79.2 L 217.9,78.0 L 216.0,79.6 L 213.5,80.8 L 210.9,81.5 L 210.2,81.6 L 208.2,81.8 L 206.4,82.5 L 202.0,86.0 L 199.9,87.1 L 198.4,85.0 L 195.3,86.6 L 191.7,89.5 L 188.3,91.1 L 183.5,90.4 L 180.7,89.7 L 179.1,88.7 L 178.1,85.4 L 180.0,84.6 L 185.5,85.9 L 188.8,88.3 L 190.2,88.4 L 191.1,83.7 L 193.9,77.6 L 198.2,73.0 L 199.3,70.9 L 199.7,69.6 L 199.8,68.0 L 200.6,65.2 L 203.8,66.4 L 206.2,66.1 L 206.7,64.4 L 204.4,61.4 L 202.5,60.5 L 195.3,58.9 L 196.3,64.6 L 194.0,71.0 L 189.5,76.2 L 184.1,78.4 L 186.9,75.3 L 187.9,74.5 L 185.7,74.0 L 183.7,74.3 L 182.0,74.2 L 181.4,72.6 L 180.8,69.7 L 179.6,69.2 L 177.9,69.6 L 176.2,69.5 L 174.1,68.9 L 172.9,69.0 L 172.3,68.4 L 172.1,65.7 L 172.3,63.6 L 172.9,61.7 L 174.5,58.1 L 171.5,58.2 L 169.5,59.5 L 165.6,63.3 L 166.3,58.1 L 163.4,58.0 L 155.2,63.4 L 157.3,64.9 L 157.4,69.0 L 160.0,69.7 L 163.4,69.7 L 165.8,70.0 L 167.7,71.1 L 169.7,73.4 L 168.6,76.1 L 168.7,77.9 L 170.4,78.6 L 171.8,78.2 L 172.8,77.3 L 174.3,75.3 L 176.0,75.3 L 178.1,76.9 L 181.6,81.0 L 174.8,82.6 L 173.7,83.0 L 173.3,84.8 L 172.2,85.8 L 170.6,86.2 L 168.8,86.2 L 167.2,85.5 L 164.7,83.0 L 162.8,82.4 L 160.7,82.2 L 159.5,81.6 L 154.8,76.3 L 153.1,73.6 L 150.9,71.0 L 147.6,68.7 L 144.1,68.1 L 135.0,68.0 L 133.2,66.9 L 132.0,65.2 L 129.1,62.9 L 125.7,60.9 L 123.2,60.0 L 120.2,58.6 L 118.8,55.2 L 118.4,48.0 L 117.1,45.2 L 111.6,40.7 L 109.2,35.2 L 106.8,33.1 L 100.8,29.7 L 107.7,24.4 L 109.4,21.5 L 108.4,16.8 L 107.2,15.6 L 105.2,14.0 L 103.1,12.9 L 101.8,13.0 L 101.4,15.5 L 102.9,17.3 L 104.8,18.5 L 105.8,19.4 L 104.8,23.5 L 97.6,26.8 L 96.9,29.8 L 107.0,40.5 L 108.4,42.4 L 112.4,44.3 L 114.1,48.6 L 115.1,53.5 L 116.7,57.0 L 118.1,58.6 L 120.5,62.7 L 122.1,64.6 L 123.9,65.6 L 126.3,66.5 L 128.5,67.6 L 130.3,71.2 L 132.0,72.5 L 133.9,73.6 L 135.4,74.6 L 146.1,87.2 L 148.6,88.3 L 151.4,87.9 L 154.2,88.0 L 155.9,90.3 L 152.1,91.8 L 154.0,94.0 L 157.9,97.1 L 160.1,101.1 L 158.6,105.1 L 154.9,107.7 L 146.2,110.9 L 137.1,111.2 L 132.4,104.7 L 125.9,86.9 L 100.5,60.4 L 93.4,49.6 L 49.1,4.4 L 44.8,0.0 L 186.7,0.0 L 185.9,1.6 L 185.7,4.1 L 186.3,6.4 L 187.7,7.8 L 190.6,8.1 L 192.3,6.6 L 193.4,4.1 L 194.8,2.0 L 198.2,1.5 L 210.9,2.6 L 215.0,3.7 L 218.2,7.0 L 217.5,10.6 L 214.3,14.4 L 210.1,17.8 L 213.3,20.4 L 214.1,25.0 L 213.9,29.8 L 214.3,33.2 L 216.7,35.5 L 225.3,40.4 L 228.9,41.9 L 231.2,42.2 L 236.0,42.2 L 238.1,43.1 L 240.0,45.4 L 239.8,47.2 L 238.8,48.8 L 238.2,50.8 L 239.3,55.2 L 241.3,57.5 L 244.2,59.2 L 247.5,62.2 L 258.4,75.2 L 264.6,80.6 L 272.5,84.8 L 277.4,86.5 L 277.6,87.5 L 276.5,90.0 L 276.6,90.5 L 277.2,90.8 L 277.6,91.1 L 277.1,91.9 L 276.5,92.2 L 275.9,92.0 L 275.4,91.6 L 275.3,91.3 L 274.3,91.9 L 273.6,91.6 L 273.0,91.8 L 272.6,93.9 L 274.2,97.3 L 278.4,98.6 L 283.7,99.1 L 288.3,100.2 L 282.6,101.1 L 266.9,100.5 L 263.7,101.0 L 264.2,103.6 L 267.0,111.3 L 270.1,116.2 L 270.6,119.4 L 270.2,122.8 L 269.4,125.8 L 265.4,117.0 L 262.4,113.3 L 257.5,111.8 L 261.0,120.0 L 260.7,123.1 L 256.4,123.4 L 256.4,124.8 L 258.2,125.2 L 259.9,126.0 L 261.4,127.0 L 262.9,128.4 L 261.6,130.3 L 257.7,132.4 L 256.5,133.7 L 256.6,136.1 L 258.7,139.4 L 259.3,141.9 L 259.2,145.7 L 260.1,146.2 L 262.6,148.2 L 264.5,149.3 L 267.1,149.8 L 272.3,150.1 L 280.3,147.5 L 282.5,147.4 L 284.5,148.7 L 283.7,149.7 L 275.1,153.8 L 270.4,155.3 L 267.4,155.1 L 259.5,152.7 L 263.4,155.9 L 266.3,160.5 L 278.1,188.4 L 274.0,187.5 L 271.5,185.8 L 268.8,185.1 L 263.9,187.3 L 262.3,186.4 L 261.6,185.2 L 261.7,183.9 L 262.5,182.2 L 258.9,181.6 L 256.1,176.5 L 253.4,176.5 L 246.8,179.3 L 243.8,181.0 L 240.7,183.8 L 240.8,185.0 L 242.4,185.2 L 249.0,184.3 L 252.3,184.9 L 250.6,186.3 L 247.9,187.7 L 246.2,189.2 L 247.2,190.7 L 250.2,192.1 L 251.1,192.8 L 251.0,193.9 L 251.4,201.8 L 252.2,204.3 L 254.6,205.4 L 256.1,204.4 L 256.3,202.1 L 256.1,199.6 L 256.4,197.6 L 257.7,199.0 L 259.2,196.8 L 260.9,195.0 L 262.9,193.6 L 265.3,192.5 L 268.2,192.1 L 277.0,193.6 L 288.8,193.4 L 292.9,195.5 L 292.4,201.2 L 290.5,203.4 L 288.7,204.7 L 287.7,206.3 L 288.7,209.9 L 289.8,212.3 L 290.8,213.6 L 292.0,213.3 L 293.8,211.2 L 298.6,190.8 L 299.9,190.8 L 304.1,199.6 L 305.7,203.8 L 305.4,208.7 L 309.7,207.7 L 314.5,207.5 L 316.8,206.1 L 313.7,201.6 L 312.9,198.5 L 317.3,197.6 L 323.2,198.1 L 327.2,199.4 L 329.5,203.6 L 327.5,212.1 L 329.9,215.4 L 332.9,216.0 L 335.1,215.2 L 337.2,214.0 L 340.4,213.2 L 344.7,210.7 L 345.9,211.0 L 346.9,211.8 L 347.8,212.0 L 353.9,209.7 L 355.6,209.3 L 357.6,209.9 L 361.6,212.6 L 364.1,213.2 L 365.6,213.9 L 372.3,220.5 L 373.6,222.3 L 374.6,224.5 L 375.1,227.3 L 375.0,231.6 L 372.7,244.6 L 373.6,248.9 L 375.8,252.9 L 378.8,256.4 L 381.7,259.2 L 388.5,262.2 L 396.8,262.4 L 405.3,260.6 L 412.5,257.8 L 414.0,256.6 L 414.6,255.3 L 415.6,254.3 L 418.2,253.9 L 419.8,254.8 L 420.3,256.7 L 420.2,260.9 L 421.2,264.6 L 423.7,266.8 L 427.0,267.3 L 430.5,265.5 L 427.5,264.8 L 425.6,262.9 L 424.4,260.1 L 423.6,254.2 L 421.8,249.2 L 421.4,246.8 L 418.1,241.2 L 417.5,238.5 L 417.7,228.7 L 416.8,226.4 L 415.9,224.9 L 411.4,213.4 L 410.1,211.2 L 408.3,209.0 L 406.0,207.2 L 401.2,204.5 L 399.3,202.8 L 398.1,200.8 L 397.5,198.8 L 396.5,197.0 L 394.1,195.2 L 398.0,194.0 L 402.6,194.7 L 406.7,194.6 L 409.4,191.4 L 403.3,191.6 L 400.4,191.2 L 397.8,190.1 L 400.1,189.4 L 402.4,188.9 L 404.4,188.1 L 405.6,186.2 L 403.9,186.2 L 402.7,185.8 L 401.6,185.3 L 400.4,184.9 L 409.8,182.7 L 413.0,180.5 L 412.0,175.9 L 409.0,177.6 L 408.1,178.5 L 406.8,176.7 L 405.8,174.8 L 405.7,172.8 L 406.9,171.0 L 402.6,165.3 L 403.9,160.4 L 406.3,155.8 L 405.3,151.6 L 403.7,151.0 L 401.6,150.7 L 399.7,150.1 L 398.9,148.5 L 398.3,148.0 L 394.9,144.1 L 391.5,142.7 L 384.4,140.6 L 381.3,138.3 L 379.6,135.8 L 378.7,132.8 L 378.1,125.6 L 379.6,122.9 L 383.4,122.9 L 388.1,123.6 L 394.3,122.5 L 395.6,123.4 L 396.4,124.9 L 397.5,126.6 L 398.3,128.0 L 398.7,128.6 L 399.5,129.2 L 401.0,129.9 L 404.9,132.8 L 406.8,133.0 L 411.7,128.5 L 415.2,132.0 L 417.4,136.7 L 417.1,141.5 L 413.0,145.2 L 416.9,147.7 L 421.2,147.8 L 424.6,148.7 L 426.0,153.6 L 426.6,158.3 L 426.1,160.7 L 424.1,159.9 L 421.6,158.4 L 419.8,158.8 L 419.1,160.4 L 420.3,162.5 L 422.5,163.3 L 427.9,162.6 L 429.9,163.1 L 431.2,165.2 L 430.5,167.1 L 429.3,169.0 L 428.7,170.9 L 430.0,176.3 L 432.7,176.8 L 440.3,172.0 L 437.6,171.0 L 436.4,170.9 L 437.7,169.1 L 440.1,168.5 L 442.7,168.8 L 444.8,170.1 L 447.1,171.0 L 449.9,169.9 L 454.5,166.9 L 457.9,165.9 L 460.6,165.7 L 463.0,166.5 L 465.5,168.8 L 467.6,169.1 L 470.1,167.9 L 472.1,167.7 L 472.5,170.8 L 471.5,173.2 L 469.5,173.9 L 464.2,173.3 L 463.3,174.3 L 459.7,179.7 L 457.2,181.0 L 452.4,182.6 L 450.1,184.1 L 447.1,187.4 L 444.3,191.3 L 446.6,192.8 L 446.4,194.1 L 445.7,195.5 L 446.2,197.0 L 448.3,198.7 L 450.6,199.8 L 452.1,199.7 L 451.9,197.7 L 454.9,195.7 L 453.4,189.9 L 455.8,187.4 L 460.0,189.1 L 467.6,187.7 L 472.0,190.6 L 472.7,192.6 L 472.4,197.4 L 473.3,199.4 L 476.2,202.5 L 477.0,204.0 L 477.8,206.4 L 479.0,215.3 L 478.4,221.3 L 478.4,222.3 L 478.8,224.2 L 477.6,226.2 L 476.1,228.3 L 475.3,230.2 L 476.2,231.5 L 478.2,230.4 L 480.4,228.4 L 481.6,226.9 L 485.0,230.4 L 484.3,235.1 L 481.6,240.0 L 478.5,244.2 L 478.3,245.8 L 480.1,246.4 L 482.6,246.8 L 484.3,247.4 L 484.9,249.7 L 484.6,255.1 L 485.5,257.6 L 483.7,256.6 L 482.3,255.1 L 481.3,253.3 L 480.5,251.2 L 479.0,251.2 L 479.9,255.9 L 481.3,260.0 L 481.6,263.2 L 479.1,265.4 L 485.4,267.7 L 487.6,269.5 L 489.4,272.9 L 491.2,280.2 L 491.9,287.6 L 492.7,290.6 L 496.1,296.4 L 496.9,299.2 L 497.5,300.5 L 500.1,302.1 L 500.9,303.7 L 500.8,306.1 L 499.9,305.8 L 498.5,304.7 L 496.9,304.9 L 495.4,307.9 L 497.2,309.1 L 504.7,310.0 L 507.8,311.1 L 511.1,312.8 L 514.2,314.8 L 516.8,317.0 L 518.7,319.5 L 521.6,325.0 L 523.2,327.3 L 528.5,331.3 L 530.7,333.6 L 531.4,336.8 L 524.8,332.6 L 522.6,331.7 L 519.7,331.5 L 516.9,331.9 L 514.1,331.5 L 511.0,329.2 L 512.9,328.3 L 518.8,326.6 L 512.3,323.0 L 509.2,320.7 L 506.6,318.3 L 503.0,316.4 L 498.1,316.2 L 489.4,317.6 L 490.5,318.7 L 492.2,320.7 L 493.1,321.5 L 492.5,322.6 L 491.9,323.9 L 491.7,325.3 L 492.0,326.6 L 493.2,328.0 L 494.3,328.2 L 495.2,327.9 L 495.8,327.9 L 496.8,328.5 L 498.7,328.8 L 499.5,329.2 L 499.8,330.2 L 499.4,331.3 L 498.6,332.3 L 498.3,333.0 L 499.2,337.1 L 499.5,338.1 L 500.4,338.9 L 501.4,339.3 L 504.7,339.4 L 506.1,339.0 L 507.1,338.1 L 507.8,337.2 L 508.5,336.8 L 511.8,338.1 L 513.3,340.4 L 514.4,343.1 L 516.2,345.8 L 519.1,344.2 L 520.9,345.3 L 522.5,347.3 L 524.4,348.4 L 527.1,347.4 L 528.0,345.5 L 529.2,344.0 L 532.8,344.5 L 535.3,345.7 L 536.3,347.4 L 536.6,349.7 L 536.5,352.8 L 537.4,354.5 L 539.8,354.5 L 542.7,353.8 L 545.5,353.5 L 543.0,344.5 L 538.8,338.9 L 537.8,336.3 L 540.3,335.6 L 543.9,338.1 L 550.5,347.6 L 555.0,349.7 L 560.1,350.7 L 571.3,355.1 L 576.6,356.2 L 578.7,356.9 L 583.2,360.5 L 585.5,361.3 L 591.0,361.3 L 591.9,362.1 L 592.7,363.3 L 594.0,363.8 L 596.2,362.6 L 633.1,384.3 L 640.6,387.3 L 652.2,388.9 L 663.3,392.4 L 675.9,394.0 L 686.0,399.2 L 703.2,401.2 L 710.1,404.4 L 699.2,404.3 L 697.2,404.8 L 698.3,406.0 L 706.8,410.9 L 709.1,411.8 L 711.8,412.2 L 714.2,411.2 L 714.7,409.0 L 713.9,406.4 L 712.6,404.4 L 715.7,403.8 L 717.5,404.7 L 719.0,406.1 L 721.4,407.1 L 733.5,407.2 L 734.0,407.6 L 735.9,410.4 L 737.0,411.0 L 737.9,410.7 L 738.7,410.1 L 739.8,409.8 L 740.5,409.2 L 740.4,407.9 L 740.5,406.6 L 741.7,406.0 L 743.8,405.9 L 749.4,404.8 L 766.0,404.1 L 770.4,401.9 L 773.8,399.5 L 788.3,392.6 L 794.0,388.8 L 796.0,386.9 L 796.8,385.2 L 796.9,380.4 L 800.1,375.9 L 800.7,374.1 L 801.8,373.0 L 809.6,369.7 L 812.6,366.5 L 814.8,359.7 L 817.0,356.4 L 819.9,353.9 L 821.1,352.3 L 821.6,350.1 L 823.0,348.8 L 841.6,344.8 L 845.4,344.7 L 848.8,343.9 L 851.3,341.9 L 855.8,336.5 L 858.7,335.4 L 867.0,334.8 L 870.5,333.6 L 873.0,331.6 L 873.7,329.7 L 872.9,327.7 L 870.7,324.7 L 878.1,326.1 L 923.8,328.7 L 928.1,329.9 L 930.4,331.5 L 927.8,333.4 L 927.8,334.7 L 930.0,335.6 L 933.3,338.6 L 935.3,340.0 L 938.4,340.9 L 941.5,341.4 L 948.0,341.5 L 950.3,342.1 L 953.8,344.8 L 956.2,345.5 L 961.9,345.5 L 964.2,345.9 L 967.0,347.0 L 969.9,348.9 L 973.8,352.4 L 976.5,356.2 L 976.1,359.4 L 974.5,361.0 L 970.8,365.6 L 963.6,371.3 L 959.5,379.9 L 956.8,384.5 L 950.0,388.1 L 947.2,392.1 L 941.7,403.7 L 939.5,406.6 L 936.4,409.7 L 934.9,411.5 L 934.2,413.5 L 935.5,417.9 L 938.1,421.9 L 939.9,426.0 L 938.7,430.8 L 935.7,433.2 L 931.9,435.4 L 930.0,438.3 L 934.4,446.3 L 933.6,450.0 L 931.3,453.6 L 928.4,456.8 L 927.2,460.6 L 929.7,464.4 L 933.1,467.7 L 935.0,470.2 L 934.3,472.3 L 932.6,474.1 L 929.6,476.6 L 928.7,479.0 L 928.1,483.0 L 926.8,485.5 L 929.0,486.1 L 930.9,487.5 L 931.9,489.5 L 931.7,492.2 L 930.4,493.7 L 923.4,496.4 L 922.5,498.1 L 922.3,510.1 L 921.2,511.6 L 900.0,529.6 L 880.9,542.4 L 877.7,543.8 L 870.6,538.3 L 865.9,537.4 L 861.3,538.2 L 857.4,540.4 L 855.8,541.0 L 854.6,540.6 L 853.9,540.7 L 853.7,542.9 L 853.7,543.9 L 854.2,545.9 L 854.6,546.8 L 857.9,549.7 L 859.4,551.8 L 859.0,554.0 L 855.6,558.5 L 854.4,562.7 L 853.9,572.5 L 851.7,583.4 L 849.0,588.8 L 848.4,596.1 L 847.0,599.2 L 848.5,602.9 L 846.9,605.6 L 844.5,608.3 L 843.0,612.0 L 855.6,613.3 L 861.5,615.9 L 864.0,620.6 L 853.8,628.6 L 849.3,637.9 L 847.5,643.9 L 845.2,646.0 L 842.3,647.8 L 839.5,650.2 L 834.8,638.7 L 833.6,632.7 L 833.8,627.2 L 834.9,624.1 L 836.3,621.1 L 838.0,618.4 L 839.8,616.4 L 840.0,614.2 L 837.4,612.6 L 834.0,612.8 L 831.5,615.6 L 829.6,614.9 L 824.1,611.7 L 821.4,610.8 L 792.6,609.4 L 763.1,608.3 L 760.9,607.6 L 759.3,606.3 L 757.6,605.9 L 752.8,609.2 L 718.8,622.0 L 693.7,631.4 L 691.5,633.6 L 690.7,637.7 L 688.7,641.8 L 686.2,645.4 L 681.7,650.2 L 675.1,655.8 L 670.8,658.4 L 670.2,659.0 L 668.1,664.1 L 665.8,666.5 L 664.5,668.6 L 663.9,671.0 L 663.7,674.3 L 664.3,677.4 L 665.8,679.1 L 667.9,680.4 L 669.9,682.5 L 671.1,686.3 L 672.0,703.7 L 672.5,707.3 L 673.7,710.5 Z M 234.7,6.0 L 229.5,7.2 L 225.5,5.3 L 221.9,2.2 L 217.5,0.0 L 217.5,0.0 L 230.6,0.0 L 234.7,6.0 Z" stroke="white" stroke-width="3" fill="none" opacity="0.8"/>
</svg>