<svg xmlns="http://www.w3.org/2000/svg" viewBox="0 0 1000 1000" preserveAspectRatio="none">
  <path d="M 319.2,67.1 L 320.8,68.2 L 324.0,72.3 L 326.7,77.5 L 324.4,79.4 L 320.0,80.7 L 316.6,83.9 L 316.3,87.6 L 318.6,95.3 L 318.9,99.1 L 318.1,101.9 L 316.7,102.8 L 312.8,102.3 L 310.4,102.4 L 304.2,104.6 L 297.8,105.5 L 291.2,104.5 L 278.8,99.7 L 281.0,96.9 L 274.3,90.5 L 271.2,89.8 L 267.4,93.2 L 264.4,94.3 L 263.2,89.8 L 263.8,83.3 L 266.4,78.6 L 268.7,79.0 L 284.2,78.6 L 287.6,80.7 L 290.0,84.5 L 293.2,86.4 L 298.9,82.7 L 312.4,70.9 L 319.2,67.1 Z M 518.5,27.5 L 516.6,28.1 L 514.6,28.3 L 512.6,28.2 L 511.3,28.0 L 508.8,27.3 L 505.1,25.5 L 504.3,24.2 L 504.7,22.7 L 505.6,21.1 L 506.0,20.0 L 506.3,18.8 L 506.2,17.5 L 505.6,16.1 L 503.6,14.6 L 501.1,14.0 L 498.8,12.5 L 497.3,8.3 L 505.6,5.7 L 507.6,8.8 L 511.0,18.7 L 514.4,19.1 L 517.0,20.5 L 519.0,23.0 L 520.4,26.7 L 518.5,27.5 Z M 19.3,933.4 L 26.0,931.4 L 66.8,934.4 L 81.6,929.4 L 95.0,919.3 L 131.8,881.0 L 136.4,872.8 L 138.9,858.5 L 141.8,849.2 L 142.4,844.1 L 142.4,832.1 L 143.6,829.3 L 144.2,828.0 L 148.9,826.6 L 146.9,819.7 L 147.8,813.8 L 149.7,808.0 L 150.8,801.2 L 151.6,733.8 L 154.1,719.3 L 164.9,694.7 L 168.8,681.0 L 171.1,666.0 L 172.7,643.1 L 175.7,629.3 L 176.1,621.2 L 174.5,614.2 L 172.0,607.1 L 170.4,600.5 L 171.9,594.7 L 176.7,597.3 L 182.5,597.8 L 188.2,596.7 L 193.0,594.7 L 193.4,599.0 L 195.0,602.7 L 197.1,605.7 L 199.1,607.9 L 201.0,607.9 L 201.0,602.4 L 205.7,605.9 L 209.5,610.9 L 213.8,613.7 L 220.0,610.5 L 217.7,608.9 L 211.5,602.4 L 219.5,599.4 L 229.0,600.6 L 237.6,600.0 L 243.2,591.8 L 237.4,591.8 L 235.1,592.6 L 232.7,594.7 L 230.5,591.8 L 231.4,584.1 L 225.2,578.4 L 216.7,575.7 L 210.5,577.4 L 208.2,581.8 L 207.0,585.6 L 205.0,588.4 L 200.1,589.4 L 197.1,586.9 L 196.7,581.3 L 197.7,575.1 L 199.1,570.8 L 201.8,566.8 L 204.5,565.5 L 207.5,565.0 L 211.5,563.2 L 221.1,552.4 L 226.1,548.8 L 226.5,541.3 L 222.8,534.7 L 215.8,533.9 L 210.8,540.6 L 208.1,549.7 L 204.3,554.5 L 195.9,548.4 L 194.7,541.3 L 197.0,504.6 L 205.3,486.4 L 219.8,481.1 L 237.1,480.9 L 253.7,478.2 L 252.5,474.9 L 250.6,472.5 L 248.1,471.0 L 245.1,470.3 L 249.4,467.1 L 252.7,462.7 L 253.8,457.4 L 251.6,451.6 L 238.8,459.5 L 237.4,461.3 L 236.2,465.6 L 234.7,467.4 L 233.5,467.1 L 231.7,465.8 L 229.5,465.1 L 220.2,469.4 L 214.9,463.2 L 195.3,387.5 L 177.6,345.0 L 174.3,327.3 L 174.4,323.2 L 177.1,318.6 L 180.6,316.4 L 189.6,314.2 L 193.0,311.9 L 196.4,304.7 L 199.1,296.0 L 203.1,288.5 L 210.5,285.5 L 211.1,284.0 L 209.6,281.2 L 206.4,279.7 L 202.2,281.8 L 199.2,284.4 L 193.2,288.2 L 190.7,290.7 L 182.0,306.4 L 177.6,308.5 L 170.8,302.7 L 166.3,295.6 L 153.9,266.2 L 150.8,254.1 L 143.6,240.3 L 142.4,237.0 L 140.6,228.8 L 127.6,204.2 L 125.5,193.6 L 130.5,193.1 L 139.1,195.1 L 151.3,191.4 L 155.8,192.9 L 158.9,196.1 L 158.2,200.2 L 155.3,204.3 L 154.8,206.6 L 170.2,236.9 L 171.4,249.2 L 175.8,258.8 L 181.1,263.1 L 184.4,254.1 L 180.7,244.2 L 179.9,238.2 L 183.4,235.6 L 192.5,237.3 L 196.5,236.8 L 201.0,233.2 L 194.9,233.4 L 179.5,230.5 L 174.0,227.9 L 178.6,225.7 L 195.2,211.1 L 197.3,212.0 L 197.0,220.3 L 209.7,205.0 L 216.7,199.5 L 224.2,198.8 L 235.9,212.3 L 239.9,214.6 L 244.2,212.8 L 245.0,208.5 L 243.5,203.2 L 240.9,198.8 L 241.5,194.6 L 225.9,188.3 L 220.0,183.3 L 215.2,185.0 L 212.4,180.1 L 210.2,172.8 L 207.5,167.2 L 199.6,176.6 L 195.2,172.8 L 194.6,164.3 L 198.1,159.6 L 201.6,158.6 L 205.3,155.8 L 208.3,151.9 L 209.6,147.7 L 189.8,144.2 L 169.1,145.3 L 158.9,148.2 L 150.8,154.4 L 148.1,159.1 L 146.3,168.3 L 144.7,172.6 L 141.8,176.6 L 139.2,176.7 L 132.0,170.0 L 127.7,176.7 L 121.1,182.6 L 113.9,185.1 L 107.7,181.9 L 104.2,175.1 L 91.8,131.6 L 85.1,95.7 L 79.3,78.6 L 63.4,49.6 L 24.1,0.0 L 63.2,0.0 L 63.1,2.0 L 58.4,5.7 L 70.8,10.4 L 74.1,10.9 L 74.4,11.8 L 71.3,13.8 L 66.8,15.6 L 62.6,16.1 L 65.5,18.4 L 66.7,21.5 L 66.3,25.1 L 64.7,29.1 L 68.3,29.4 L 71.2,30.4 L 77.4,34.5 L 77.2,31.9 L 77.5,26.5 L 77.4,23.9 L 80.4,29.2 L 83.5,37.9 L 86.6,42.2 L 89.8,34.5 L 93.0,34.9 L 94.3,30.6 L 94.9,24.4 L 96.2,18.7 L 98.2,16.2 L 103.1,11.9 L 104.8,8.3 L 100.0,10.0 L 98.3,10.9 L 95.7,3.5 L 96.3,0.0 L 174.2,0.0 L 175.2,1.9 L 176.1,7.0 L 175.9,14.8 L 177.4,15.9 L 181.3,20.0 L 184.3,22.1 L 188.6,23.3 L 197.0,23.9 L 210.1,18.8 L 213.7,18.7 L 217.0,21.4 L 215.5,23.4 L 201.4,31.6 L 193.9,34.5 L 188.9,34.0 L 176.1,29.1 L 182.4,35.7 L 187.0,45.1 L 205.4,102.3 L 198.7,100.4 L 194.7,96.8 L 190.4,95.3 L 182.4,99.7 L 179.8,97.8 L 178.7,95.4 L 178.9,92.6 L 180.3,89.3 L 174.3,87.9 L 170.0,77.5 L 165.5,77.5 L 154.7,83.0 L 149.8,86.3 L 144.7,91.9 L 144.7,94.5 L 147.4,94.8 L 158.2,93.1 L 163.6,94.5 L 160.7,97.3 L 156.3,100.2 L 153.4,103.2 L 155.0,106.2 L 159.9,109.2 L 161.3,110.6 L 161.1,112.8 L 161.5,129.1 L 162.8,134.2 L 166.6,136.4 L 169.1,134.4 L 169.5,129.8 L 169.2,124.5 L 169.8,120.5 L 171.9,123.4 L 174.5,119.1 L 177.3,115.4 L 180.6,112.5 L 184.4,110.4 L 189.2,109.6 L 203.5,112.7 L 222.7,112.7 L 229.4,117.1 L 228.4,128.6 L 225.3,133.2 L 222.3,135.7 L 220.7,139.0 L 222.1,146.3 L 223.8,151.3 L 225.5,154.0 L 227.5,153.5 L 230.5,149.2 L 238.8,107.5 L 240.9,107.5 L 247.6,125.5 L 250.0,134.2 L 249.5,144.2 L 256.4,142.3 L 264.3,142.0 L 268.1,139.2 L 263.1,129.9 L 261.9,123.5 L 269.1,121.7 L 278.8,122.9 L 285.2,125.5 L 288.9,134.2 L 285.5,151.7 L 289.4,158.3 L 294.1,159.6 L 297.9,158.1 L 301.3,155.6 L 306.5,154.0 L 313.7,148.9 L 315.5,149.7 L 317.2,151.2 L 318.7,151.8 L 328.7,147.0 L 331.5,146.3 L 334.6,147.6 L 341.2,153.1 L 345.1,154.4 L 347.6,155.9 L 358.5,169.4 L 360.6,173.2 L 362.2,177.7 L 363.0,183.3 L 362.7,192.1 L 358.8,218.8 L 360.3,227.5 L 363.8,235.8 L 368.5,243.1 L 373.3,248.8 L 384.3,255.2 L 398.0,255.6 L 412.0,252.0 L 423.8,246.2 L 426.3,243.7 L 427.3,241.2 L 428.9,239.2 L 433.2,238.4 L 435.7,240.1 L 436.6,244.2 L 436.4,252.8 L 438.0,260.3 L 442.1,264.9 L 447.5,265.8 L 453.1,262.1 L 448.4,260.8 L 445.1,256.8 L 443.3,251.1 L 442.0,239.0 L 439.2,228.7 L 438.5,223.9 L 433.2,212.4 L 432.2,206.8 L 432.5,186.6 L 431.1,181.9 L 429.7,178.8 L 422.5,155.3 L 420.3,150.8 L 417.4,146.3 L 413.7,142.6 L 405.9,137.0 L 402.7,133.5 L 400.9,129.4 L 399.9,125.4 L 398.3,121.5 L 394.4,117.9 L 400.9,115.6 L 408.2,116.9 L 414.9,116.8 L 419.4,110.4 L 409.4,110.6 L 404.7,109.8 L 400.4,107.5 L 404.2,106.1 L 408.0,105.2 L 411.3,103.6 L 413.2,99.7 L 410.6,99.6 L 408.5,98.8 L 406.7,97.7 L 404.8,96.9 L 420.2,92.5 L 425.3,88.0 L 423.8,78.6 L 418.9,82.0 L 417.4,83.9 L 415.3,80.2 L 413.7,76.3 L 413.6,72.4 L 415.5,68.5 L 408.6,57.0 L 410.7,46.9 L 414.7,37.7 L 413.2,29.1 L 410.6,27.8 L 407.1,27.2 L 404.1,25.9 L 402.7,22.6 L 401.8,21.6 L 396.3,13.8 L 390.8,10.7 L 379.4,6.4 L 374.3,1.7 L 373.4,0.0 L 432.9,0.0 L 432.4,8.6 L 425.7,16.1 L 432.1,21.3 L 439.1,21.4 L 444.6,23.2 L 446.9,33.2 L 447.7,42.9 L 446.9,47.8 L 443.6,46.2 L 439.6,43.0 L 436.6,43.8 L 435.6,47.0 L 437.4,51.4 L 440.9,53.0 L 449.8,51.6 L 453.1,52.7 L 455.1,56.9 L 454.1,60.9 L 452.0,64.7 L 451.0,68.5 L 453.2,79.5 L 457.5,80.6 L 469.8,70.9 L 465.5,68.9 L 463.6,68.5 L 465.8,65.0 L 469.6,63.7 L 473.9,64.4 L 477.3,67.1 L 481.0,68.9 L 485.5,66.7 L 493.0,60.5 L 498.6,58.4 L 503.0,58.1 L 506.9,59.9 L 511.0,64.4 L 514.4,65.0 L 518.5,62.6 L 521.7,62.2 L 522.3,68.5 L 520.6,73.5 L 517.5,74.9 L 508.8,73.7 L 507.4,75.6 L 501.5,86.7 L 497.5,89.4 L 489.6,92.5 L 485.7,95.7 L 480.9,102.4 L 476.3,110.4 L 480.0,113.4 L 479.8,116.1 L 478.6,118.9 L 479.4,121.9 L 482.8,125.4 L 486.5,127.7 L 489.0,127.6 L 488.7,123.4 L 493.5,119.4 L 491.1,107.5 L 495.1,102.3 L 501.9,105.8 L 514.4,103.1 L 521.4,108.9 L 522.5,113.1 L 522.1,123.0 L 523.5,127.1 L 528.3,133.3 L 529.6,136.3 L 530.9,141.3 L 532.8,159.6 L 531.8,171.7 L 531.9,173.9 L 532.5,177.7 L 530.5,181.8 L 528.0,186.0 L 526.7,190.0 L 528.2,192.6 L 531.5,190.5 L 535.0,186.4 L 537.0,183.3 L 542.5,190.4 L 541.5,200.1 L 537.0,210.1 L 531.9,218.8 L 531.5,222.0 L 534.6,223.3 L 538.7,224.0 L 541.3,225.3 L 542.4,230.0 L 541.9,241.2 L 543.4,246.2 L 540.5,244.2 L 538.2,241.1 L 536.5,237.3 L 535.1,233.2 L 532.8,233.2 L 534.2,242.8 L 536.5,251.1 L 536.9,257.8 L 532.8,262.1 L 543.2,267.1 L 546.8,270.6 L 549.7,277.6 L 552.7,292.7 L 553.9,308.0 L 555.2,314.1 L 560.8,326.1 L 562.1,331.7 L 563.0,334.4 L 567.3,337.8 L 568.5,341.0 L 568.4,346.0 L 566.9,345.3 L 564.6,343.1 L 562.1,343.6 L 559.6,349.6 L 562.5,352.1 L 574.8,354.1 L 579.9,356.3 L 585.4,359.8 L 590.6,364.0 L 594.7,368.4 L 597.9,373.6 L 602.7,384.9 L 605.3,389.6 L 614.0,397.9 L 617.7,402.6 L 618.9,409.3 L 608.0,400.7 L 604.3,398.8 L 599.6,398.4 L 595.0,399.1 L 590.3,398.3 L 585.3,393.5 L 588.4,391.8 L 598.0,388.3 L 587.3,380.8 L 582.2,376.0 L 578.0,371.0 L 572.0,367.3 L 564.0,366.9 L 549.7,369.6 L 551.6,371.9 L 554.4,376.2 L 555.8,377.7 L 554.7,379.9 L 553.8,382.7 L 553.4,385.5 L 553.9,388.3 L 555.9,391.1 L 557.7,391.5 L 559.3,391.0 L 560.2,390.9 L 561.8,392.2 L 565.0,392.8 L 566.3,393.5 L 566.8,395.6 L 566.1,398.0 L 564.8,400.0 L 564.4,401.4 L 565.8,410.0 L 566.3,411.9 L 567.8,413.7 L 569.4,414.5 L 574.8,414.8 L 577.2,413.9 L 578.9,412.0 L 580.0,410.1 L 581.1,409.3 L 586.5,412.0 L 589.1,416.7 L 590.8,422.2 L 593.8,427.9 L 598.6,424.6 L 601.6,426.9 L 604.2,431.0 L 607.4,433.2 L 611.7,431.2 L 613.3,427.2 L 615.3,424.1 L 621.2,425.1 L 625.3,427.7 L 627.0,431.1 L 627.4,435.9 L 627.3,442.4 L 628.8,445.9 L 632.7,445.7 L 637.6,444.3 L 642.1,443.7 L 637.9,425.1 L 631.1,413.6 L 629.4,408.1 L 633.5,406.7 L 639.5,411.9 L 650.4,431.5 L 657.8,435.9 L 666.2,437.9 L 684.7,447.0 L 693.6,449.0 L 697.1,450.6 L 704.4,457.9 L 708.2,459.5 L 717.4,459.5 L 718.9,461.1 L 720.2,463.6 L 722.3,464.7 L 726.0,462.2 L 787.1,506.8 L 799.6,512.8 L 818.9,516.0 L 837.4,523.1 L 858.2,526.1 L 874.9,536.8 L 903.4,540.6 L 915.0,547.1 L 897.0,547.1 L 893.6,548.1 L 895.5,550.6 L 909.7,560.6 L 913.6,562.5 L 918.0,563.2 L 922.0,561.2 L 922.7,556.5 L 921.4,551.1 L 919.1,547.1 L 924.3,545.7 L 927.3,547.5 L 929.8,550.4 L 933.8,552.4 L 953.9,552.4 L 954.6,553.2 L 958.0,559.0 L 959.8,560.2 L 961.2,559.6 L 962.5,558.3 L 964.3,557.7 L 965.5,556.4 L 965.3,553.7 L 965.4,550.9 L 967.4,549.7 L 970.9,549.4 L 980.0,547.1 L 1000.0,545.6 L 1000.0,967.1 L 992.1,974.3 L 939.7,1000.0 L 0.0,1000.0 L 0.0,945.5 L 19.3,933.4 Z" stroke="white" stroke-width="3" fill="none" opacity="0.8"/>
</svg>