<svg xmlns="http://www.w3.org/2000/svg" viewBox="0 0 1000 1000" preserveAspectRatio="none">
  <path d="M 14.0,648.3 L 49.7,691.8 L 133.2,739.8 L 236.3,742.8 L 341.6,715.8 L 431.1,672.1 L 449.6,653.5 L 457.1,634.0 L 469.5,619.2 L 501.7,613.1 L 520.7,626.2 L 527.6,656.8 L 525.9,721.4 L 538.3,778.6 L 568.8,813.2 L 609.8,820.0 L 652.3,792.2 L 616.2,782.1 L 591.7,751.8 L 577.8,709.0 L 568.0,617.3 L 546.8,540.2 L 541.7,503.6 L 501.7,416.6 L 494.3,374.6 L 497.0,222.5 L 485.9,186.6 L 475.5,163.4 L 425.3,0.0 L 1000.0,0.0 L 1000.0,1000.0 L 0.0,1000.0 L 0.0,627.0 L 14.0,648.3 Z" stroke="white" stroke-width="3" fill="none" opacity="0.8"/>
</svg>