<svg xmlns="http://www.w3.org/2000/svg" viewBox="0 0 1000 1000" preserveAspectRatio="none">
  <path d="M 6.1,588.7 L 40.7,642.1 L 75.3,684.7 L 155.6,731.3 L 254.4,733.6 L 355.2,706.5 L 440.9,663.0 L 458.4,644.6 L 465.6,625.4 L 477.4,610.8 L 508.2,604.6 L 526.5,617.5 L 533.3,647.5 L 532.0,711.1 L 544.1,767.2 L 573.5,801.1 L 612.8,807.6 L 653.4,780.1 L 618.7,770.3 L 595.2,740.6 L 581.7,698.6 L 571.9,608.5 L 551.2,532.7 L 546.1,496.7 L 507.3,411.3 L 500.1,370.0 L 501.9,220.1 L 491.1,184.8 L 481.0,162.0 L 431.6,0.0 L 1000.0,0.0 L 1000.0,1000.0 L 0.0,1000.0 L 0.0,574.4 L 6.1,588.7 Z" stroke="white" stroke-width="3" fill="none" opacity="0.8"/>
</svg>