<svg xmlns="http://www.w3.org/2000/svg" viewBox="0 0 1000 1000" preserveAspectRatio="none">
  <path d="M 6.1,599.0 L 40.7,651.1 L 75.3,692.5 L 155.6,738.0 L 254.4,740.3 L 355.2,713.8 L 440.9,671.4 L 458.4,653.5 L 465.6,634.8 L 477.4,620.5 L 508.2,614.5 L 526.5,627.0 L 533.3,656.3 L 532.0,718.3 L 544.1,773.0 L 573.5,806.0 L 612.8,812.4 L 653.4,785.6 L 618.7,776.1 L 595.2,747.1 L 581.7,706.1 L 571.9,618.3 L 551.2,544.4 L 546.1,509.3 L 507.3,426.0 L 500.1,385.7 L 501.9,239.6 L 491.1,205.2 L 481.0,182.9 L 427.7,12.5 L 421.6,0.0 L 1000.0,0.0 L 1000.0,1000.0 L 0.0,1000.0 L 0.0,585.1 L 6.1,599.0 Z" stroke="white" stroke-width="3" fill="none" opacity="0.8"/>
</svg>