<svg xmlns="http://www.w3.org/2000/svg" viewBox="0 0 1000 1000" preserveAspectRatio="none">
  <path d="M 4.4,155.6 L 15.0,186.5 L 20.6,224.8 L 18.4,285.3 L 0.0,411.9 L 0.0,147.9 L 4.4,155.6 Z M 1.6,527.8 L 25.9,584.5 L 58.3,634.0 L 90.7,673.5 L 166.5,717.0 L 260.1,719.8 L 355.7,695.3 L 436.9,655.6 L 453.6,638.7 L 460.5,621.0 L 471.7,607.6 L 500.9,602.0 L 518.2,614.0 L 524.5,641.7 L 522.9,700.4 L 534.2,752.3 L 561.9,783.6 L 599.1,789.8 L 637.6,764.6 L 604.9,755.5 L 582.7,727.9 L 570.0,689.1 L 561.2,605.9 L 541.9,535.9 L 537.3,502.6 L 500.9,423.8 L 494.3,385.6 L 496.6,247.6 L 486.6,215.0 L 477.2,193.9 L 427.7,32.8 L 413.0,2.4 L 411.4,0.0 L 1000.0,0.0 L 1000.0,1000.0 L 0.0,1000.0 L 0.0,517.7 L 1.6,527.8 Z" stroke="white" stroke-width="3" fill="none" opacity="0.8"/>
</svg>