<svg xmlns="http://www.w3.org/2000/svg" viewBox="0 0 1000 1000" preserveAspectRatio="none">
  <path d="M 329.3,97.8 L 330.9,98.8 L 334.1,102.8 L 336.7,107.8 L 334.5,109.7 L 330.2,110.9 L 327.0,114.1 L 326.7,117.7 L 329.0,125.2 L 329.4,128.8 L 328.6,131.5 L 327.3,132.4 L 323.4,132.0 L 321.1,132.1 L 315.1,134.3 L 309.0,135.2 L 302.6,134.3 L 290.5,129.8 L 292.6,127.0 L 286.1,120.9 L 283.0,120.3 L 279.3,123.6 L 276.4,124.7 L 275.2,120.3 L 275.7,114.0 L 278.2,109.5 L 280.5,109.8 L 295.5,109.3 L 298.8,111.3 L 301.2,115.0 L 304.4,116.7 L 309.8,113.1 L 322.8,101.5 L 329.3,97.8 Z M 522.8,58.3 L 520.9,58.9 L 519.0,59.0 L 517.0,59.0 L 515.8,58.8 L 513.3,58.1 L 509.7,56.4 L 508.9,55.1 L 509.4,53.7 L 510.2,52.1 L 510.6,51.0 L 510.9,49.9 L 510.7,48.6 L 510.2,47.2 L 508.3,45.8 L 505.8,45.2 L 503.5,43.7 L 502.1,39.7 L 510.2,37.1 L 512.1,40.1 L 515.4,49.8 L 518.7,50.2 L 521.2,51.5 L 523.2,53.9 L 524.6,57.6 L 522.8,58.3 Z M 54.4,929.8 L 60.7,927.8 L 99.1,929.9 L 113.0,925.0 L 125.5,915.2 L 159.5,878.5 L 163.7,870.8 L 165.9,857.2 L 168.5,848.5 L 169.0,843.6 L 168.8,832.3 L 169.9,829.6 L 170.5,828.4 L 174.9,827.0 L 172.9,820.5 L 173.6,814.9 L 175.4,809.4 L 176.3,802.9 L 176.1,739.2 L 178.3,725.3 L 188.2,701.8 L 191.7,688.8 L 193.7,674.5 L 194.9,652.8 L 197.6,639.6 L 197.8,631.8 L 196.3,625.2 L 193.8,618.5 L 192.2,612.2 L 193.5,606.7 L 198.1,609.1 L 203.6,609.5 L 209.0,608.4 L 213.6,606.4 L 214.1,610.5 L 215.6,614.1 L 217.7,616.9 L 219.6,618.9 L 221.4,618.9 L 221.3,613.7 L 225.8,616.9 L 229.5,621.7 L 233.7,624.2 L 239.5,621.2 L 237.3,619.6 L 231.3,613.5 L 239.0,610.5 L 248.0,611.6 L 256.2,610.9 L 261.4,603.1 L 255.9,603.1 L 253.7,603.9 L 251.5,605.9 L 249.3,603.2 L 250.0,595.9 L 244.1,590.5 L 235.9,588.0 L 230.1,589.7 L 227.9,593.9 L 226.9,597.6 L 225.0,600.2 L 220.3,601.3 L 217.4,598.9 L 217.0,593.6 L 217.9,587.6 L 219.1,583.6 L 221.7,579.7 L 224.2,578.4 L 227.1,577.9 L 230.8,576.2 L 239.9,565.7 L 244.6,562.2 L 244.9,555.1 L 241.3,548.8 L 234.6,548.2 L 229.9,554.6 L 227.5,563.3 L 223.9,568.0 L 215.8,562.2 L 214.6,555.5 L 216.3,520.4 L 224.0,502.9 L 237.8,497.6 L 254.4,497.3 L 270.2,494.5 L 269.0,491.4 L 267.2,489.1 L 264.8,487.6 L 261.9,487.1 L 265.9,484.0 L 269.0,479.7 L 270.0,474.7 L 267.9,469.1 L 255.8,476.8 L 254.4,478.5 L 253.3,482.7 L 251.9,484.4 L 250.7,484.1 L 249.0,482.9 L 246.9,482.2 L 238.0,486.4 L 232.9,480.6 L 213.2,408.3 L 195.7,367.7 L 192.3,350.8 L 192.3,346.8 L 194.8,342.3 L 198.2,340.2 L 206.8,337.9 L 210.0,335.7 L 213.2,328.7 L 215.7,320.3 L 219.4,313.1 L 226.5,310.0 L 227.1,308.6 L 225.6,305.9 L 222.6,304.5 L 218.5,306.6 L 215.7,309.1 L 210.0,312.8 L 207.6,315.3 L 199.3,330.5 L 195.2,332.7 L 188.6,327.2 L 184.1,320.4 L 171.8,292.2 L 168.6,280.6 L 161.4,267.4 L 160.3,264.2 L 158.4,256.3 L 145.5,232.7 L 143.3,222.5 L 148.1,222.0 L 156.5,223.8 L 168.2,220.0 L 172.6,221.5 L 175.6,224.5 L 175.0,228.4 L 172.2,232.5 L 171.8,234.7 L 187.1,263.7 L 188.4,275.6 L 192.8,284.8 L 198.0,288.8 L 201.0,280.1 L 197.3,270.6 L 196.4,264.9 L 199.8,262.3 L 208.6,263.8 L 212.4,263.3 L 216.7,259.7 L 210.8,260.0 L 195.9,257.4 L 190.6,255.0 L 195.0,252.8 L 210.9,238.5 L 212.9,239.4 L 212.7,247.4 L 224.8,232.4 L 231.4,227.0 L 238.7,226.2 L 250.1,239.2 L 254.1,241.4 L 258.2,239.5 L 258.9,235.4 L 257.4,230.3 L 254.9,226.0 L 255.4,222.0 L 240.2,216.1 L 234.5,211.3 L 229.9,213.1 L 227.1,208.4 L 224.9,201.3 L 222.2,195.9 L 214.7,205.1 L 210.3,201.5 L 209.7,193.3 L 213.0,188.7 L 216.4,187.6 L 220.0,184.9 L 222.8,181.1 L 223.9,177.1 L 204.8,173.9 L 184.7,175.2 L 174.9,178.2 L 167.1,184.3 L 164.7,188.9 L 163.0,197.8 L 161.5,202.0 L 158.8,205.9 L 156.3,206.1 L 149.2,199.7 L 145.2,206.2 L 138.9,212.0 L 132.0,214.6 L 125.9,211.5 L 122.4,205.1 L 109.7,163.1 L 102.6,128.5 L 96.7,112.0 L 80.8,84.1 L 38.8,33.1 L 29.7,16.3 L 27.6,0.0 L 32.4,0.0 L 32.2,4.3 L 33.9,9.5 L 38.3,0.0 L 51.1,0.0 L 54.5,8.7 L 60.6,14.1 L 67.6,26.3 L 71.9,29.0 L 76.9,30.3 L 79.9,33.7 L 79.7,37.9 L 75.2,41.5 L 87.3,45.8 L 90.5,46.3 L 90.8,47.2 L 87.9,49.1 L 83.5,51.0 L 79.4,51.6 L 82.3,53.8 L 83.5,56.7 L 83.2,60.3 L 81.7,64.2 L 85.3,64.4 L 88.1,65.3 L 94.1,69.2 L 94.0,66.6 L 94.2,61.4 L 94.0,58.9 L 97.0,64.0 L 100.2,72.4 L 103.2,76.5 L 106.2,69.0 L 109.3,69.3 L 110.5,65.1 L 111.0,59.1 L 112.2,53.5 L 114.1,51.0 L 118.8,46.8 L 120.3,43.3 L 115.7,45.1 L 114.1,45.9 L 111.4,38.7 L 114.0,22.2 L 111.6,18.0 L 109.0,23.6 L 107.8,20.9 L 107.4,1.6 L 107.2,0.4 L 107.5,0.0 L 192.2,0.0 L 191.8,3.8 L 185.1,4.2 L 185.1,7.0 L 188.0,7.9 L 190.6,9.5 L 193.1,11.5 L 195.4,14.2 L 193.3,18.1 L 187.1,22.1 L 185.3,24.7 L 185.4,29.6 L 188.7,36.0 L 189.6,41.0 L 189.6,48.6 L 191.0,49.6 L 194.9,53.5 L 197.9,55.5 L 202.1,56.6 L 210.2,57.1 L 222.9,52.0 L 226.4,51.9 L 229.6,54.4 L 228.2,56.4 L 214.6,64.6 L 207.3,67.5 L 202.5,67.1 L 189.9,62.4 L 196.1,68.8 L 200.8,77.8 L 219.3,133.1 L 212.8,131.3 L 209.0,127.9 L 204.7,126.5 L 197.0,130.9 L 194.5,129.1 L 193.3,126.8 L 193.5,124.0 L 194.8,120.8 L 189.0,119.6 L 184.7,109.5 L 180.4,109.6 L 169.9,115.1 L 165.3,118.4 L 160.4,123.8 L 160.4,126.4 L 163.0,126.6 L 173.4,124.9 L 178.7,126.1 L 176.0,128.8 L 171.8,131.7 L 169.0,134.7 L 170.5,137.6 L 175.3,140.4 L 176.7,141.7 L 176.6,143.9 L 177.1,159.6 L 178.5,164.6 L 182.2,166.6 L 184.6,164.7 L 184.9,160.2 L 184.6,155.1 L 185.1,151.2 L 187.2,154.0 L 189.6,149.8 L 192.3,146.2 L 195.4,143.3 L 199.1,141.2 L 203.8,140.4 L 217.6,143.2 L 236.2,143.0 L 242.8,147.2 L 241.9,158.3 L 239.0,162.8 L 236.1,165.3 L 234.6,168.5 L 236.1,175.6 L 237.8,180.3 L 239.4,182.9 L 241.4,182.4 L 244.2,178.2 L 251.8,137.8 L 253.9,137.8 L 260.5,155.1 L 263.0,163.5 L 262.6,173.2 L 269.3,171.3 L 276.8,170.9 L 280.5,168.1 L 275.6,159.2 L 274.4,153.0 L 281.3,151.2 L 290.7,152.2 L 297.0,154.7 L 300.6,163.1 L 297.4,180.0 L 301.3,186.4 L 305.9,187.6 L 309.5,186.1 L 312.8,183.7 L 317.8,182.1 L 324.7,177.1 L 326.5,177.9 L 328.1,179.3 L 329.6,179.8 L 339.2,175.1 L 341.9,174.5 L 345.0,175.6 L 351.4,180.9 L 355.2,182.2 L 357.6,183.6 L 368.3,196.6 L 370.4,200.2 L 371.9,204.6 L 372.7,210.0 L 372.5,218.5 L 368.9,244.3 L 370.4,252.7 L 373.8,260.7 L 378.4,267.7 L 383.1,273.2 L 393.8,279.2 L 406.9,279.6 L 420.4,276.0 L 431.8,270.4 L 434.1,268.0 L 435.1,265.5 L 436.7,263.6 L 440.8,262.8 L 443.2,264.4 L 444.1,268.4 L 443.9,276.6 L 445.6,283.9 L 449.5,288.3 L 454.7,289.2 L 460.1,285.6 L 455.5,284.3 L 452.4,280.5 L 450.6,275.0 L 449.3,263.3 L 446.5,253.4 L 445.8,248.7 L 440.7,237.6 L 439.7,232.3 L 439.9,212.8 L 438.5,208.2 L 437.2,205.2 L 430.0,182.5 L 428.0,178.2 L 425.1,173.9 L 421.4,170.3 L 414.0,164.9 L 410.8,161.6 L 409.0,157.6 L 408.0,153.7 L 406.5,150.0 L 402.7,146.5 L 408.9,144.2 L 416.0,145.5 L 422.5,145.3 L 426.9,139.1 L 417.2,139.3 L 412.6,138.6 L 408.5,136.4 L 412.1,135.0 L 415.8,134.1 L 418.9,132.5 L 420.8,128.8 L 418.2,128.7 L 416.2,127.9 L 414.5,126.8 L 412.6,126.0 L 427.6,121.7 L 432.5,117.3 L 431.0,108.3 L 426.3,111.6 L 424.8,113.4 L 422.7,109.8 L 421.2,106.0 L 421.0,102.2 L 422.8,98.5 L 416.1,87.4 L 418.1,77.5 L 421.9,68.6 L 420.4,60.2 L 417.9,59.0 L 414.5,58.4 L 411.5,57.2 L 410.2,54.0 L 409.3,53.0 L 403.9,45.4 L 398.6,42.5 L 387.4,38.3 L 382.4,33.8 L 379.8,29.0 L 378.3,22.9 L 377.4,8.7 L 379.8,3.4 L 385.8,3.4 L 393.2,4.6 L 403.0,2.5 L 405.0,4.3 L 406.3,7.3 L 408.1,10.6 L 409.3,13.5 L 410.0,14.6 L 411.1,15.8 L 413.5,17.1 L 419.7,23.0 L 422.8,23.3 L 430.5,14.5 L 436.0,21.4 L 439.5,30.7 L 439.0,40.2 L 432.5,47.5 L 438.8,52.5 L 445.5,52.6 L 450.9,54.4 L 453.1,64.1 L 454.0,73.5 L 453.2,78.3 L 450.1,76.7 L 446.2,73.6 L 443.2,74.3 L 442.2,77.5 L 444.1,81.7 L 447.5,83.3 L 456.0,81.9 L 459.3,82.9 L 461.3,87.1 L 460.3,90.9 L 458.3,94.6 L 457.3,98.3 L 459.5,109.0 L 463.6,110.0 L 475.6,100.6 L 471.3,98.7 L 469.5,98.3 L 471.6,94.9 L 475.3,93.6 L 479.5,94.3 L 482.8,96.8 L 486.5,98.6 L 490.8,96.4 L 498.1,90.4 L 503.5,88.4 L 507.7,88.1 L 511.5,89.7 L 515.5,94.1 L 518.8,94.7 L 522.8,92.4 L 525.9,92.0 L 526.5,98.1 L 524.9,103.0 L 521.9,104.3 L 513.4,103.2 L 512.0,105.0 L 506.3,115.9 L 502.4,118.4 L 494.8,121.5 L 491.1,124.6 L 486.4,131.1 L 482.0,138.8 L 485.6,141.7 L 485.4,144.4 L 484.3,147.1 L 485.0,150.0 L 488.3,153.4 L 491.9,155.6 L 494.3,155.4 L 494.0,151.4 L 498.7,147.6 L 496.4,136.0 L 500.2,131.0 L 506.7,134.4 L 518.9,131.7 L 525.7,137.3 L 526.8,141.4 L 526.4,150.9 L 527.7,154.9 L 532.4,160.9 L 533.7,163.8 L 535.0,168.7 L 536.8,186.4 L 535.8,198.1 L 535.9,200.2 L 536.5,203.9 L 534.6,207.8 L 532.2,211.9 L 530.9,215.8 L 532.4,218.3 L 535.6,216.3 L 539.0,212.3 L 540.9,209.3 L 546.2,216.2 L 545.2,225.5 L 540.9,235.2 L 536.0,243.6 L 535.6,246.7 L 538.6,247.9 L 542.6,248.6 L 545.1,249.9 L 546.1,254.4 L 545.7,265.2 L 547.2,270.0 L 544.3,268.0 L 542.1,265.1 L 540.5,261.5 L 539.1,257.4 L 536.9,257.4 L 538.2,266.7 L 540.4,274.8 L 540.9,281.2 L 536.9,285.4 L 546.9,290.1 L 550.4,293.6 L 553.2,300.3 L 556.1,314.8 L 557.3,329.5 L 558.5,335.4 L 563.9,346.9 L 565.2,352.3 L 566.0,355.0 L 570.2,358.2 L 571.4,361.3 L 571.2,366.1 L 569.8,365.4 L 567.6,363.3 L 565.2,363.8 L 562.8,369.6 L 565.5,372.0 L 577.4,373.9 L 582.3,376.0 L 587.6,379.3 L 592.5,383.4 L 596.5,387.6 L 599.5,392.6 L 604.2,403.5 L 606.6,408.0 L 615.0,415.9 L 618.5,420.5 L 619.7,426.9 L 609.2,418.6 L 605.7,416.8 L 601.1,416.4 L 596.7,417.1 L 592.2,416.3 L 587.4,411.7 L 590.4,410.1 L 599.6,406.7 L 589.4,399.5 L 584.5,394.9 L 580.4,390.2 L 574.7,386.5 L 567.0,386.2 L 553.3,388.8 L 555.1,391.0 L 557.7,395.1 L 559.1,396.6 L 558.1,398.7 L 557.2,401.3 L 556.8,404.0 L 557.3,406.7 L 559.2,409.4 L 561.0,409.8 L 562.5,409.3 L 563.3,409.2 L 564.9,410.4 L 568.0,411.0 L 569.2,411.7 L 569.7,413.7 L 569.0,416.0 L 567.8,418.0 L 567.3,419.2 L 568.7,427.5 L 569.2,429.3 L 570.7,431.1 L 572.2,431.9 L 577.4,432.1 L 579.7,431.3 L 581.3,429.4 L 582.4,427.6 L 583.4,426.8 L 588.6,429.4 L 591.0,433.9 L 592.7,439.3 L 595.6,444.7 L 600.2,441.5 L 603.1,443.7 L 605.5,447.7 L 608.6,449.8 L 612.8,447.9 L 614.2,444.0 L 616.2,441.0 L 621.8,442.0 L 625.8,444.5 L 627.4,447.9 L 627.8,452.4 L 627.6,458.6 L 629.1,462.0 L 632.8,461.8 L 637.5,460.4 L 641.8,459.9 L 637.9,442.1 L 631.3,431.0 L 629.8,425.8 L 633.7,424.4 L 639.4,429.4 L 649.8,448.2 L 656.9,452.4 L 664.9,454.5 L 682.6,463.2 L 691.1,465.2 L 694.4,466.7 L 701.4,473.7 L 705.1,475.3 L 713.8,475.4 L 715.2,476.9 L 716.5,479.2 L 718.5,480.4 L 722.0,477.9 L 780.3,521.0 L 792.1,526.8 L 810.5,530.0 L 828.1,537.0 L 848.0,540.1 L 863.8,550.4 L 891.0,554.4 L 901.9,560.7 L 884.8,560.5 L 881.6,561.4 L 883.3,563.8 L 896.7,573.6 L 900.4,575.4 L 904.7,576.1 L 908.4,574.2 L 909.2,569.7 L 908.0,564.6 L 905.9,560.7 L 910.9,559.5 L 913.7,561.3 L 916.1,564.0 L 919.8,566.0 L 939.0,566.2 L 939.7,567.0 L 942.8,572.6 L 944.5,573.8 L 945.9,573.3 L 947.2,572.0 L 948.9,571.4 L 950.1,570.3 L 949.9,567.6 L 950.0,565.0 L 952.0,563.9 L 955.2,563.7 L 964.0,561.5 L 990.2,560.0 L 997.3,555.7 L 1000.0,553.4 L 1000.0,965.1 L 985.8,964.5 L 982.2,963.0 L 979.7,960.5 L 977.0,959.6 L 969.4,966.3 L 915.8,991.7 L 897.8,1000.0 L 0.0,1000.0 L 0.0,965.5 L 54.4,929.8 Z M 206.9,3.1 L 205.7,9.0 L 202.4,0.0 L 207.2,0.0 L 206.9,3.1 Z" stroke="white" stroke-width="3" fill="none" opacity="0.8"/>
</svg>