<svg xmlns="http://www.w3.org/2000/svg" viewBox="0 0 1000 1000" preserveAspectRatio="none">
  <path d="M 329.3,85.6 L 330.9,86.7 L 334.1,90.6 L 336.7,95.7 L 334.5,97.7 L 330.2,98.9 L 327.0,102.1 L 326.7,105.8 L 329.0,113.3 L 329.4,117.0 L 328.6,119.8 L 327.3,120.7 L 323.4,120.3 L 321.1,120.4 L 315.1,122.6 L 309.0,123.5 L 302.6,122.6 L 290.5,118.0 L 292.6,115.2 L 286.1,109.0 L 283.0,108.4 L 279.3,111.7 L 276.4,112.9 L 275.2,108.4 L 275.7,102.0 L 278.2,97.4 L 280.5,97.8 L 295.5,97.2 L 298.8,99.3 L 301.2,103.0 L 304.4,104.8 L 309.8,101.1 L 322.8,89.4 L 329.3,85.6 Z M 522.8,45.6 L 520.9,46.1 L 519.0,46.3 L 517.0,46.2 L 515.8,46.1 L 513.3,45.4 L 509.7,43.6 L 508.9,42.3 L 509.4,40.9 L 510.2,39.2 L 510.6,38.2 L 510.9,37.0 L 510.7,35.8 L 510.2,34.4 L 508.3,32.9 L 505.8,32.3 L 503.5,30.8 L 502.1,26.7 L 510.2,24.1 L 512.1,27.1 L 515.4,36.9 L 518.7,37.3 L 521.2,38.6 L 523.2,41.1 L 524.6,44.8 L 522.8,45.6 Z M 54.4,928.9 L 60.7,926.8 L 99.1,928.9 L 113.0,924.0 L 125.5,914.1 L 159.5,876.9 L 163.7,869.0 L 165.9,855.3 L 168.5,846.4 L 169.0,841.5 L 168.8,830.0 L 169.9,827.3 L 170.5,826.0 L 174.9,824.7 L 172.9,818.1 L 173.6,812.4 L 175.4,806.8 L 176.3,800.3 L 176.1,735.6 L 178.3,721.6 L 188.2,697.8 L 191.7,684.6 L 193.7,670.1 L 194.9,648.1 L 197.6,634.7 L 197.8,626.8 L 196.3,620.1 L 193.8,613.4 L 192.2,607.0 L 193.5,601.4 L 198.1,603.8 L 203.6,604.3 L 209.0,603.1 L 213.6,601.1 L 214.1,605.3 L 215.6,608.8 L 217.7,611.7 L 219.6,613.8 L 221.4,613.8 L 221.3,608.4 L 225.8,611.8 L 229.5,616.6 L 233.7,619.1 L 239.5,616.1 L 237.3,614.5 L 231.3,608.3 L 239.0,605.3 L 248.0,606.4 L 256.2,605.7 L 261.4,597.7 L 255.9,597.7 L 253.7,598.5 L 251.5,600.6 L 249.3,597.8 L 250.0,590.4 L 244.1,584.9 L 235.9,582.4 L 230.1,584.2 L 227.9,588.5 L 226.9,592.2 L 225.0,594.8 L 220.3,595.9 L 217.4,593.5 L 217.0,588.1 L 217.9,582.1 L 219.1,578.0 L 221.7,574.0 L 224.2,572.7 L 227.1,572.2 L 230.8,570.4 L 239.9,559.8 L 244.6,556.3 L 244.9,549.1 L 241.3,542.7 L 234.6,542.1 L 229.9,548.6 L 227.5,557.4 L 223.9,562.2 L 215.8,556.3 L 214.6,549.5 L 216.3,513.9 L 224.0,496.2 L 237.8,490.8 L 254.4,490.5 L 270.2,487.7 L 269.0,484.5 L 267.2,482.2 L 264.8,480.7 L 261.9,480.1 L 265.9,477.0 L 269.0,472.7 L 270.0,467.6 L 267.9,461.9 L 255.8,469.7 L 254.4,471.5 L 253.3,475.7 L 251.9,477.5 L 250.7,477.1 L 249.0,475.9 L 246.9,475.2 L 238.0,479.5 L 232.9,473.6 L 213.2,400.3 L 195.7,359.1 L 192.3,342.0 L 192.3,338.0 L 194.8,333.4 L 198.2,331.3 L 206.8,329.0 L 210.0,326.7 L 213.2,319.6 L 215.7,311.1 L 219.4,303.8 L 226.5,300.7 L 227.1,299.3 L 225.6,296.5 L 222.6,295.1 L 218.5,297.2 L 215.7,299.8 L 210.0,303.5 L 207.6,306.1 L 199.3,321.5 L 195.2,323.6 L 188.6,318.1 L 184.1,311.2 L 171.8,282.7 L 168.6,270.8 L 161.4,257.5 L 160.3,254.2 L 158.4,246.3 L 145.5,222.4 L 143.3,212.0 L 148.1,211.5 L 156.5,213.3 L 168.2,209.5 L 172.6,211.0 L 175.6,214.1 L 175.0,218.0 L 172.2,222.1 L 171.8,224.4 L 187.1,253.8 L 188.4,265.8 L 192.8,275.1 L 198.0,279.2 L 201.0,270.4 L 197.3,260.8 L 196.4,254.9 L 199.8,252.3 L 208.6,253.8 L 212.4,253.4 L 216.7,249.7 L 210.8,250.0 L 195.9,247.4 L 190.6,245.0 L 195.0,242.7 L 210.9,228.2 L 212.9,229.1 L 212.7,237.2 L 224.8,222.1 L 231.4,216.6 L 238.7,215.8 L 250.1,228.9 L 254.1,231.1 L 258.2,229.3 L 258.9,225.0 L 257.4,219.9 L 254.9,215.6 L 255.4,211.5 L 240.2,205.5 L 234.5,200.7 L 229.9,202.4 L 227.1,197.7 L 224.9,190.5 L 222.2,185.1 L 214.7,194.3 L 210.3,190.7 L 209.7,182.4 L 213.0,177.7 L 216.4,176.7 L 220.0,173.9 L 222.8,170.1 L 223.9,166.0 L 204.8,162.7 L 184.7,164.0 L 174.9,167.1 L 167.1,173.3 L 164.7,177.9 L 163.0,187.0 L 161.5,191.2 L 158.8,195.1 L 156.3,195.3 L 149.2,188.9 L 145.2,195.5 L 138.9,201.4 L 132.0,203.9 L 125.9,200.8 L 122.4,194.3 L 109.7,151.8 L 102.6,116.7 L 96.7,100.0 L 80.8,71.8 L 38.8,20.0 L 29.7,3.0 L 29.3,0.0 L 59.7,0.0 L 60.6,0.8 L 67.6,13.1 L 71.9,15.9 L 76.9,17.2 L 79.9,20.6 L 79.7,24.9 L 75.2,28.6 L 87.3,32.9 L 90.5,33.4 L 90.8,34.3 L 87.9,36.3 L 83.5,38.1 L 79.4,38.8 L 82.3,41.0 L 83.5,44.0 L 83.2,47.6 L 81.7,51.5 L 85.3,51.8 L 88.1,52.7 L 94.1,56.7 L 94.0,54.0 L 94.2,48.7 L 94.0,46.2 L 97.0,51.3 L 100.2,59.8 L 103.2,64.0 L 106.2,56.4 L 109.3,56.7 L 110.5,52.5 L 111.0,46.3 L 112.2,40.7 L 114.1,38.2 L 118.8,34.0 L 120.3,30.4 L 115.7,32.1 L 114.1,33.0 L 111.4,25.8 L 114.0,9.0 L 111.6,4.7 L 109.0,10.4 L 107.8,7.6 L 107.6,0.0 L 194.6,0.0 L 195.4,0.9 L 193.3,4.8 L 187.1,8.9 L 185.3,11.5 L 185.4,16.4 L 188.7,23.0 L 189.6,28.0 L 189.6,35.7 L 191.0,36.7 L 194.9,40.7 L 197.9,42.8 L 202.1,43.9 L 210.2,44.4 L 222.9,39.2 L 226.4,39.0 L 229.6,41.6 L 228.2,43.7 L 214.6,51.9 L 207.3,54.9 L 202.5,54.4 L 189.9,49.8 L 196.1,56.2 L 200.8,65.3 L 219.3,121.4 L 212.8,119.6 L 209.0,116.2 L 204.7,114.7 L 197.0,119.1 L 194.5,117.3 L 193.3,115.0 L 193.5,112.2 L 194.8,108.9 L 189.0,107.7 L 184.7,97.5 L 180.4,97.5 L 169.9,103.1 L 165.3,106.4 L 160.4,112.0 L 160.4,114.6 L 163.0,114.8 L 173.4,113.0 L 178.7,114.3 L 176.0,117.1 L 171.8,120.0 L 169.0,123.0 L 170.5,125.9 L 175.3,128.8 L 176.7,130.1 L 176.6,132.3 L 177.1,148.3 L 178.5,153.3 L 182.2,155.4 L 184.6,153.4 L 184.9,148.8 L 184.6,143.7 L 185.1,139.7 L 187.2,142.6 L 189.6,138.3 L 192.3,134.6 L 195.4,131.7 L 199.1,129.6 L 203.8,128.7 L 217.6,131.7 L 236.2,131.4 L 242.8,135.6 L 241.9,147.0 L 239.0,151.5 L 236.1,154.0 L 234.6,157.3 L 236.1,164.4 L 237.8,169.3 L 239.4,171.9 L 241.4,171.3 L 244.2,167.1 L 251.8,126.1 L 253.9,126.1 L 260.5,143.7 L 263.0,152.2 L 262.6,162.0 L 269.3,160.1 L 276.8,159.7 L 280.5,156.9 L 275.6,147.8 L 274.4,141.6 L 281.3,139.7 L 290.7,140.8 L 297.0,143.3 L 300.6,151.8 L 297.4,168.9 L 301.3,175.4 L 305.9,176.6 L 309.5,175.1 L 312.8,172.7 L 317.8,171.0 L 324.7,166.0 L 326.5,166.7 L 328.1,168.2 L 329.6,168.8 L 339.2,164.0 L 341.9,163.3 L 345.0,164.5 L 351.4,169.9 L 355.2,171.1 L 357.6,172.5 L 368.3,185.8 L 370.4,189.4 L 371.9,193.8 L 372.7,199.3 L 372.5,208.0 L 368.9,234.1 L 370.4,242.6 L 373.8,250.7 L 378.4,257.8 L 383.1,263.4 L 393.8,269.5 L 406.9,269.8 L 420.4,266.2 L 431.8,260.5 L 434.1,258.1 L 435.1,255.6 L 436.7,253.6 L 440.8,252.8 L 443.2,254.5 L 444.1,258.5 L 443.9,266.8 L 445.6,274.2 L 449.5,278.7 L 454.7,279.6 L 460.1,275.9 L 455.5,274.7 L 452.4,270.7 L 450.6,265.2 L 449.3,253.3 L 446.5,243.3 L 445.8,238.6 L 440.7,227.3 L 439.7,221.9 L 439.9,202.2 L 438.5,197.5 L 437.2,194.5 L 430.0,171.5 L 428.0,167.1 L 425.1,162.7 L 421.4,159.1 L 414.0,153.6 L 410.8,150.2 L 409.0,146.2 L 408.0,142.3 L 406.5,138.5 L 402.7,135.0 L 408.9,132.6 L 416.0,133.9 L 422.5,133.8 L 426.9,127.4 L 417.2,127.7 L 412.6,127.0 L 408.5,124.7 L 412.1,123.3 L 415.8,122.4 L 418.9,120.8 L 420.8,117.0 L 418.2,116.9 L 416.2,116.1 L 414.5,115.0 L 412.6,114.2 L 427.6,109.9 L 432.5,105.4 L 431.0,96.2 L 426.3,99.6 L 424.8,101.4 L 422.7,97.8 L 421.2,93.9 L 421.0,90.1 L 422.8,86.3 L 416.1,75.1 L 418.1,65.1 L 421.9,56.0 L 420.4,47.5 L 417.9,46.2 L 414.5,45.7 L 411.5,44.5 L 410.2,41.2 L 409.3,40.2 L 403.9,32.5 L 398.6,29.5 L 387.4,25.4 L 382.4,20.8 L 379.8,15.8 L 378.3,9.7 L 377.7,0.0 L 409.2,0.0 L 409.3,0.2 L 410.0,1.3 L 411.1,2.5 L 413.5,3.9 L 419.7,9.8 L 422.8,10.1 L 430.5,1.2 L 436.0,8.2 L 439.5,17.6 L 439.0,27.2 L 432.5,34.7 L 438.8,39.7 L 445.5,39.8 L 450.9,41.6 L 453.1,51.4 L 454.0,60.9 L 453.2,65.8 L 450.1,64.2 L 446.2,61.0 L 443.2,61.8 L 442.2,65.0 L 444.1,69.3 L 447.5,70.9 L 456.0,69.5 L 459.3,70.5 L 461.3,74.7 L 460.3,78.6 L 458.3,82.3 L 457.3,86.2 L 459.5,97.0 L 463.6,98.0 L 475.6,88.4 L 471.3,86.5 L 469.5,86.1 L 471.6,82.7 L 475.3,81.4 L 479.5,82.0 L 482.8,84.6 L 486.5,86.4 L 490.8,84.2 L 498.1,78.1 L 503.5,76.1 L 507.7,75.8 L 511.5,77.4 L 515.5,81.9 L 518.8,82.5 L 522.8,80.1 L 525.9,79.7 L 526.5,86.0 L 524.9,90.9 L 521.9,92.2 L 513.4,91.1 L 512.0,92.9 L 506.3,103.9 L 502.4,106.5 L 494.8,109.6 L 491.1,112.8 L 486.4,119.3 L 482.0,127.2 L 485.6,130.1 L 485.4,132.8 L 484.3,135.6 L 485.0,138.5 L 488.3,141.9 L 491.9,144.2 L 494.3,144.0 L 494.0,140.0 L 498.7,136.0 L 496.4,124.3 L 500.2,119.2 L 506.7,122.7 L 518.9,120.0 L 525.7,125.7 L 526.8,129.8 L 526.4,139.5 L 527.7,143.5 L 532.4,149.6 L 533.7,152.5 L 535.0,157.5 L 536.8,175.4 L 535.8,187.3 L 535.9,189.4 L 536.5,193.1 L 534.6,197.1 L 532.2,201.3 L 530.9,205.2 L 532.4,207.7 L 535.6,205.7 L 539.0,201.7 L 540.9,198.6 L 546.2,205.6 L 545.2,215.0 L 540.9,224.9 L 536.0,233.3 L 535.6,236.5 L 538.6,237.7 L 542.6,238.4 L 545.1,239.7 L 546.1,244.4 L 545.7,255.2 L 547.2,260.2 L 544.3,258.2 L 542.1,255.2 L 540.5,251.5 L 539.1,247.4 L 536.9,247.4 L 538.2,256.8 L 540.4,264.9 L 540.9,271.5 L 536.9,275.7 L 546.9,280.5 L 550.4,284.0 L 553.2,290.9 L 556.1,305.5 L 557.3,320.5 L 558.5,326.4 L 563.9,338.1 L 565.2,343.6 L 566.0,346.2 L 570.2,349.5 L 571.4,352.6 L 571.2,357.5 L 569.8,356.8 L 567.6,354.7 L 565.2,355.2 L 562.8,361.0 L 565.5,363.5 L 577.4,365.4 L 582.3,367.6 L 587.6,370.9 L 592.5,375.0 L 596.5,379.4 L 599.5,384.4 L 604.2,395.4 L 606.6,400.0 L 615.0,408.0 L 618.5,412.7 L 619.7,419.1 L 609.2,410.8 L 605.7,408.9 L 601.1,408.5 L 596.7,409.2 L 592.2,408.4 L 587.4,403.8 L 590.4,402.1 L 599.6,398.7 L 589.4,391.4 L 584.5,386.7 L 580.4,381.9 L 574.7,378.3 L 567.0,377.9 L 553.3,380.5 L 555.1,382.8 L 557.7,386.9 L 559.1,388.4 L 558.1,390.6 L 557.2,393.2 L 556.8,396.0 L 557.3,398.7 L 559.2,401.4 L 561.0,401.8 L 562.5,401.3 L 563.3,401.2 L 564.9,402.4 L 568.0,403.1 L 569.2,403.8 L 569.7,405.8 L 569.0,408.1 L 567.8,410.1 L 567.3,411.4 L 568.7,419.8 L 569.2,421.6 L 570.7,423.4 L 572.2,424.2 L 577.4,424.4 L 579.7,423.6 L 581.3,421.7 L 582.4,419.9 L 583.4,419.1 L 588.6,421.7 L 591.0,426.3 L 592.7,431.7 L 595.6,437.2 L 600.2,434.0 L 603.1,436.2 L 605.5,440.2 L 608.6,442.4 L 612.8,440.4 L 614.2,436.5 L 616.2,433.5 L 621.8,434.5 L 625.8,437.0 L 627.4,440.4 L 627.8,445.0 L 627.6,451.3 L 629.1,454.7 L 632.8,454.5 L 637.5,453.2 L 641.8,452.6 L 637.9,434.5 L 631.3,423.3 L 629.8,418.0 L 633.7,416.7 L 639.4,421.7 L 649.8,440.8 L 656.9,445.0 L 664.9,447.1 L 682.6,455.9 L 691.1,458.0 L 694.4,459.5 L 701.4,466.6 L 705.1,468.2 L 713.8,468.3 L 715.2,469.8 L 716.5,472.2 L 718.5,473.3 L 722.0,470.9 L 780.3,514.5 L 792.1,520.4 L 810.5,523.7 L 828.1,530.7 L 848.0,533.8 L 863.8,544.4 L 891.0,548.4 L 901.9,554.8 L 884.8,554.5 L 881.6,555.5 L 883.3,557.9 L 896.7,567.8 L 900.4,569.6 L 904.7,570.4 L 908.4,568.5 L 909.2,563.9 L 908.0,558.7 L 905.9,554.8 L 910.9,553.6 L 913.7,555.4 L 916.1,558.1 L 919.8,560.1 L 939.0,560.4 L 939.7,561.2 L 942.8,566.8 L 944.5,568.1 L 945.9,567.5 L 947.2,566.2 L 948.9,565.6 L 950.1,564.4 L 949.9,561.8 L 950.0,559.1 L 952.0,558.0 L 955.2,557.8 L 964.0,555.6 L 990.2,554.1 L 997.3,549.7 L 1000.0,547.3 L 1000.0,964.6 L 985.8,964.0 L 982.2,962.5 L 979.7,960.0 L 977.0,959.1 L 969.4,965.8 L 915.8,991.5 L 897.8,1000.0 L 0.0,1000.0 L 0.0,965.1 L 54.4,928.9 Z" stroke="white" stroke-width="3" fill="none" opacity="0.8"/>
</svg>